M48
;DRILL file {KiCad (2015-07-15 BZR 5948)-product} date Tue 15 Sep 2015 04:10:22 BST
;FORMAT={-:-/ absolute / inch / decimal}
FMAT,2
INCH,TZ
T1C0.025
T2C0.032
T3C0.040
T4C0.098
%
G90
G05
M72
T1
X7.975Y-4.8
X8.075Y-5.3
X8.075Y-5.995
X8.11Y-4.89
X8.3Y-5.3
X8.56Y-4.805
X8.745Y-4.62
X8.9375Y-4.7025
X9.055Y-4.41
X9.095Y-4.295
X9.205Y-4.55
X9.31Y-4.37
X9.36Y-4.62
X9.455Y-4.645
X9.54Y-4.195
T2
X7.84Y-5.
X7.84Y-5.1
X7.84Y-5.2
X7.84Y-5.3
X7.84Y-5.4
X7.84Y-5.5
X7.84Y-5.6
X7.84Y-5.7
X7.84Y-5.9
X7.84Y-6.
X7.84Y-6.1
X7.84Y-6.2
X7.84Y-6.3
X7.84Y-6.4
X9.74Y-4.64
X9.74Y-4.74
X9.74Y-4.84
X9.74Y-4.94
X9.74Y-5.04
X9.74Y-5.14
X9.74Y-5.24
X9.74Y-5.34
X9.74Y-5.44
X9.74Y-5.54
X9.74Y-5.7
X9.74Y-5.8
X9.74Y-5.9
X9.74Y-6.
X9.74Y-6.1
X9.74Y-6.2
X9.74Y-6.3
X9.74Y-6.4
T3
X7.85Y-4.075
X7.85Y-4.225
X7.85Y-4.6
X7.85Y-4.7
X7.85Y-4.8
X8.05Y-5.65
X8.4Y-6.45
X8.5Y-6.45
X8.575Y-5.65
X8.75Y-6.45
X8.85Y-6.45
X8.95Y-6.45
X9.35Y-6.45
X9.45Y-6.45
X9.55Y-6.45
X9.75Y-4.1
X9.75Y-4.2
X9.75Y-4.3
T4
X7.84Y-4.45
X8.04Y-6.5
X9.14Y-6.5
X9.74Y-4.5
T0
M30
