M48
;DRILL file {Pcbnew (2013-jul-07)-stable} date Wed 18 Mar 2015 00:26:21 GMT
;FORMAT={-:-/ absolute / inch / decimal}
FMAT,2
INCH,TZ
T1C0.032
T2C0.035
T3C0.050
%
G90
G05
M72
T1
X7.85Y-4.725
X7.85Y-4.825
X8.1Y-5.05
X8.1Y-5.25
X8.1Y-5.35
X8.1Y-5.45
X8.1Y-5.55
X8.1Y-5.65
X8.1Y-5.75
X8.3Y-5.15
X8.45Y-6.1
X8.45Y-6.3
X8.5Y-5.05
X8.5Y-5.15
X8.5Y-5.25
X8.5Y-5.35
X8.5Y-5.45
X8.5Y-5.55
X8.5Y-5.65
X8.5Y-5.75
X8.65Y-5.9
X8.65Y-6.3
X8.75Y-4.95
X8.75Y-5.725
X8.75Y-5.9
X8.75Y-6.3
X8.85Y-4.95
X8.85Y-5.9
X8.85Y-6.3
X8.85Y-6.45
X8.875Y-5.2
X8.875Y-5.5
X8.95Y-4.95
X8.95Y-5.725
X8.95Y-5.9
X8.95Y-6.3
X8.95Y-6.45
X9.025Y-5.2
X9.025Y-5.5
X9.05Y-4.95
X9.15Y-4.95
X9.25Y-4.95
X9.25Y-5.9
X9.25Y-6.3
X9.325Y-5.2
X9.325Y-5.5
X9.35Y-4.95
X9.35Y-5.725
X9.35Y-5.9
X9.35Y-6.3
X9.45Y-4.7
X9.45Y-4.95
X9.45Y-5.9
X9.45Y-6.3
X9.45Y-6.45
X9.475Y-5.2
X9.475Y-5.5
X9.55Y-4.7
X9.55Y-4.95
X9.55Y-5.725
X9.55Y-5.9
X9.55Y-6.3
X9.55Y-6.45
T2
X7.84Y-5.
X7.84Y-5.1
X7.84Y-5.2
X7.84Y-5.3
X7.84Y-5.4
X7.84Y-5.5
X7.84Y-5.6
X7.84Y-5.7
X7.84Y-5.9
X7.84Y-6.
X7.84Y-6.1
X7.84Y-6.2
X7.84Y-6.3
X7.84Y-6.4
X7.85Y-4.625
X8.1Y-5.95
X8.45Y-5.95
X8.65Y-4.95
X8.75Y-6.45
X9.35Y-4.7
X9.35Y-6.45
X9.74Y-4.64
X9.74Y-4.74
X9.74Y-4.84
X9.74Y-4.94
X9.74Y-5.04
X9.74Y-5.14
X9.74Y-5.24
X9.74Y-5.34
X9.74Y-5.44
X9.74Y-5.54
X9.74Y-5.7
X9.74Y-5.8
X9.74Y-5.9
X9.74Y-6.
X9.74Y-6.1
X9.74Y-6.2
X9.74Y-6.3
X9.74Y-6.4
T3
X8.1Y-4.4
X8.375Y-4.4
T0
M30
