G04 #@! TF.FileFunction,Legend,Top*
%FSLAX46Y46*%
G04 Gerber Fmt 4.6, Leading zero omitted, Abs format (unit mm)*
G04 Created by KiCad (PCBNEW (2015-07-15 BZR 5948)-product) date Tue 15 Sep 2015 04:10:27 BST*
%MOMM*%
G01*
G04 APERTURE LIST*
%ADD10C,0.150000*%
%ADD11C,0.300000*%
%ADD12C,0.400000*%
%ADD13C,0.381000*%
%ADD14C,0.304800*%
G04 APERTURE END LIST*
D10*
X299989000Y-253002200D02*
X299989000Y-285002200D01*
X407989000Y-285002200D01*
X407989000Y-253002200D01*
X299989000Y-253002200D01*
X10000000Y-10000000D02*
X10000000Y-287002200D01*
X409989000Y-287002200D01*
X409989000Y-10000000D01*
X10000000Y-10000000D01*
X12000000Y-12000000D02*
X12000000Y-285002200D01*
X407989000Y-285002200D01*
X407989000Y-12000000D01*
X12000000Y-12000000D01*
X60000000Y-12000000D02*
X60000000Y-10000000D01*
X110000000Y-12000000D02*
X110000000Y-10000000D01*
X160000000Y-12000000D02*
X160000000Y-10000000D01*
X210000000Y-12000000D02*
X210000000Y-10000000D01*
X260000000Y-12000000D02*
X260000000Y-10000000D01*
X310000000Y-12000000D02*
X310000000Y-10000000D01*
X360000000Y-12000000D02*
X360000000Y-10000000D01*
X35990476Y-11588095D02*
X35247619Y-11588095D01*
X35619048Y-11588095D02*
X35619048Y-10288095D01*
X35495238Y-10473810D01*
X35371429Y-10597619D01*
X35247619Y-10659524D01*
X85247619Y-10411905D02*
X85309524Y-10350000D01*
X85433333Y-10288095D01*
X85742857Y-10288095D01*
X85866667Y-10350000D01*
X85928571Y-10411905D01*
X85990476Y-10535714D01*
X85990476Y-10659524D01*
X85928571Y-10845238D01*
X85185714Y-11588095D01*
X85990476Y-11588095D01*
X135185714Y-10288095D02*
X135990476Y-10288095D01*
X135557143Y-10783333D01*
X135742857Y-10783333D01*
X135866667Y-10845238D01*
X135928571Y-10907143D01*
X135990476Y-11030952D01*
X135990476Y-11340476D01*
X135928571Y-11464286D01*
X135866667Y-11526190D01*
X135742857Y-11588095D01*
X135371429Y-11588095D01*
X135247619Y-11526190D01*
X135185714Y-11464286D01*
X185866667Y-10721429D02*
X185866667Y-11588095D01*
X185557143Y-10226190D02*
X185247619Y-11154762D01*
X186052381Y-11154762D01*
X235928571Y-10288095D02*
X235309524Y-10288095D01*
X235247619Y-10907143D01*
X235309524Y-10845238D01*
X235433333Y-10783333D01*
X235742857Y-10783333D01*
X235866667Y-10845238D01*
X235928571Y-10907143D01*
X235990476Y-11030952D01*
X235990476Y-11340476D01*
X235928571Y-11464286D01*
X235866667Y-11526190D01*
X235742857Y-11588095D01*
X235433333Y-11588095D01*
X235309524Y-11526190D01*
X235247619Y-11464286D01*
X285866667Y-10288095D02*
X285619048Y-10288095D01*
X285495238Y-10350000D01*
X285433333Y-10411905D01*
X285309524Y-10597619D01*
X285247619Y-10845238D01*
X285247619Y-11340476D01*
X285309524Y-11464286D01*
X285371429Y-11526190D01*
X285495238Y-11588095D01*
X285742857Y-11588095D01*
X285866667Y-11526190D01*
X285928571Y-11464286D01*
X285990476Y-11340476D01*
X285990476Y-11030952D01*
X285928571Y-10907143D01*
X285866667Y-10845238D01*
X285742857Y-10783333D01*
X285495238Y-10783333D01*
X285371429Y-10845238D01*
X285309524Y-10907143D01*
X285247619Y-11030952D01*
X335185714Y-10288095D02*
X336052381Y-10288095D01*
X335495238Y-11588095D01*
X385495238Y-10845238D02*
X385371429Y-10783333D01*
X385309524Y-10721429D01*
X385247619Y-10597619D01*
X385247619Y-10535714D01*
X385309524Y-10411905D01*
X385371429Y-10350000D01*
X385495238Y-10288095D01*
X385742857Y-10288095D01*
X385866667Y-10350000D01*
X385928571Y-10411905D01*
X385990476Y-10535714D01*
X385990476Y-10597619D01*
X385928571Y-10721429D01*
X385866667Y-10783333D01*
X385742857Y-10845238D01*
X385495238Y-10845238D01*
X385371429Y-10907143D01*
X385309524Y-10969048D01*
X385247619Y-11092857D01*
X385247619Y-11340476D01*
X385309524Y-11464286D01*
X385371429Y-11526190D01*
X385495238Y-11588095D01*
X385742857Y-11588095D01*
X385866667Y-11526190D01*
X385928571Y-11464286D01*
X385990476Y-11340476D01*
X385990476Y-11092857D01*
X385928571Y-10969048D01*
X385866667Y-10907143D01*
X385742857Y-10845238D01*
X60000000Y-285002200D02*
X60000000Y-287002200D01*
X110000000Y-285002200D02*
X110000000Y-287002200D01*
X160000000Y-285002200D02*
X160000000Y-287002200D01*
X210000000Y-285002200D02*
X210000000Y-287002200D01*
X260000000Y-285002200D02*
X260000000Y-287002200D01*
X310000000Y-285002200D02*
X310000000Y-287002200D01*
X360000000Y-285002200D02*
X360000000Y-287002200D01*
X35990476Y-286590295D02*
X35247619Y-286590295D01*
X35619048Y-286590295D02*
X35619048Y-285290295D01*
X35495238Y-285476010D01*
X35371429Y-285599819D01*
X35247619Y-285661724D01*
X85247619Y-285414105D02*
X85309524Y-285352200D01*
X85433333Y-285290295D01*
X85742857Y-285290295D01*
X85866667Y-285352200D01*
X85928571Y-285414105D01*
X85990476Y-285537914D01*
X85990476Y-285661724D01*
X85928571Y-285847438D01*
X85185714Y-286590295D01*
X85990476Y-286590295D01*
X135185714Y-285290295D02*
X135990476Y-285290295D01*
X135557143Y-285785533D01*
X135742857Y-285785533D01*
X135866667Y-285847438D01*
X135928571Y-285909343D01*
X135990476Y-286033152D01*
X135990476Y-286342676D01*
X135928571Y-286466486D01*
X135866667Y-286528390D01*
X135742857Y-286590295D01*
X135371429Y-286590295D01*
X135247619Y-286528390D01*
X135185714Y-286466486D01*
X185866667Y-285723629D02*
X185866667Y-286590295D01*
X185557143Y-285228390D02*
X185247619Y-286156962D01*
X186052381Y-286156962D01*
X235928571Y-285290295D02*
X235309524Y-285290295D01*
X235247619Y-285909343D01*
X235309524Y-285847438D01*
X235433333Y-285785533D01*
X235742857Y-285785533D01*
X235866667Y-285847438D01*
X235928571Y-285909343D01*
X235990476Y-286033152D01*
X235990476Y-286342676D01*
X235928571Y-286466486D01*
X235866667Y-286528390D01*
X235742857Y-286590295D01*
X235433333Y-286590295D01*
X235309524Y-286528390D01*
X235247619Y-286466486D01*
X285866667Y-285290295D02*
X285619048Y-285290295D01*
X285495238Y-285352200D01*
X285433333Y-285414105D01*
X285309524Y-285599819D01*
X285247619Y-285847438D01*
X285247619Y-286342676D01*
X285309524Y-286466486D01*
X285371429Y-286528390D01*
X285495238Y-286590295D01*
X285742857Y-286590295D01*
X285866667Y-286528390D01*
X285928571Y-286466486D01*
X285990476Y-286342676D01*
X285990476Y-286033152D01*
X285928571Y-285909343D01*
X285866667Y-285847438D01*
X285742857Y-285785533D01*
X285495238Y-285785533D01*
X285371429Y-285847438D01*
X285309524Y-285909343D01*
X285247619Y-286033152D01*
X335185714Y-285290295D02*
X336052381Y-285290295D01*
X335495238Y-286590295D01*
X385495238Y-285847438D02*
X385371429Y-285785533D01*
X385309524Y-285723629D01*
X385247619Y-285599819D01*
X385247619Y-285537914D01*
X385309524Y-285414105D01*
X385371429Y-285352200D01*
X385495238Y-285290295D01*
X385742857Y-285290295D01*
X385866667Y-285352200D01*
X385928571Y-285414105D01*
X385990476Y-285537914D01*
X385990476Y-285599819D01*
X385928571Y-285723629D01*
X385866667Y-285785533D01*
X385742857Y-285847438D01*
X385495238Y-285847438D01*
X385371429Y-285909343D01*
X385309524Y-285971248D01*
X385247619Y-286095057D01*
X385247619Y-286342676D01*
X385309524Y-286466486D01*
X385371429Y-286528390D01*
X385495238Y-286590295D01*
X385742857Y-286590295D01*
X385866667Y-286528390D01*
X385928571Y-286466486D01*
X385990476Y-286342676D01*
X385990476Y-286095057D01*
X385928571Y-285971248D01*
X385866667Y-285909343D01*
X385742857Y-285847438D01*
X10000000Y-60000000D02*
X12000000Y-60000000D01*
X10000000Y-110000000D02*
X12000000Y-110000000D01*
X10000000Y-160000000D02*
X12000000Y-160000000D01*
X10000000Y-210000000D02*
X12000000Y-210000000D01*
X10000000Y-260000000D02*
X12000000Y-260000000D01*
X10690476Y-35216667D02*
X11309524Y-35216667D01*
X10566667Y-35588095D02*
X11000000Y-34288095D01*
X11433333Y-35588095D01*
X11092857Y-84907143D02*
X11278571Y-84969048D01*
X11340476Y-85030952D01*
X11402381Y-85154762D01*
X11402381Y-85340476D01*
X11340476Y-85464286D01*
X11278571Y-85526190D01*
X11154762Y-85588095D01*
X10659524Y-85588095D01*
X10659524Y-84288095D01*
X11092857Y-84288095D01*
X11216667Y-84350000D01*
X11278571Y-84411905D01*
X11340476Y-84535714D01*
X11340476Y-84659524D01*
X11278571Y-84783333D01*
X11216667Y-84845238D01*
X11092857Y-84907143D01*
X10659524Y-84907143D01*
X11402381Y-135464286D02*
X11340476Y-135526190D01*
X11154762Y-135588095D01*
X11030952Y-135588095D01*
X10845238Y-135526190D01*
X10721429Y-135402381D01*
X10659524Y-135278571D01*
X10597619Y-135030952D01*
X10597619Y-134845238D01*
X10659524Y-134597619D01*
X10721429Y-134473810D01*
X10845238Y-134350000D01*
X11030952Y-134288095D01*
X11154762Y-134288095D01*
X11340476Y-134350000D01*
X11402381Y-134411905D01*
X10659524Y-185588095D02*
X10659524Y-184288095D01*
X10969048Y-184288095D01*
X11154762Y-184350000D01*
X11278571Y-184473810D01*
X11340476Y-184597619D01*
X11402381Y-184845238D01*
X11402381Y-185030952D01*
X11340476Y-185278571D01*
X11278571Y-185402381D01*
X11154762Y-185526190D01*
X10969048Y-185588095D01*
X10659524Y-185588095D01*
X10721429Y-234907143D02*
X11154762Y-234907143D01*
X11340476Y-235588095D02*
X10721429Y-235588095D01*
X10721429Y-234288095D01*
X11340476Y-234288095D01*
X11185714Y-284907143D02*
X10752381Y-284907143D01*
X10752381Y-285588095D02*
X10752381Y-284288095D01*
X11371428Y-284288095D01*
X409989000Y-60000000D02*
X407989000Y-60000000D01*
X409989000Y-110000000D02*
X407989000Y-110000000D01*
X409989000Y-160000000D02*
X407989000Y-160000000D01*
X409989000Y-210000000D02*
X407989000Y-210000000D01*
X409989000Y-260000000D02*
X407989000Y-260000000D01*
X408679476Y-35216667D02*
X409298524Y-35216667D01*
X408555667Y-35588095D02*
X408989000Y-34288095D01*
X409422333Y-35588095D01*
X409081857Y-84907143D02*
X409267571Y-84969048D01*
X409329476Y-85030952D01*
X409391381Y-85154762D01*
X409391381Y-85340476D01*
X409329476Y-85464286D01*
X409267571Y-85526190D01*
X409143762Y-85588095D01*
X408648524Y-85588095D01*
X408648524Y-84288095D01*
X409081857Y-84288095D01*
X409205667Y-84350000D01*
X409267571Y-84411905D01*
X409329476Y-84535714D01*
X409329476Y-84659524D01*
X409267571Y-84783333D01*
X409205667Y-84845238D01*
X409081857Y-84907143D01*
X408648524Y-84907143D01*
X409391381Y-135464286D02*
X409329476Y-135526190D01*
X409143762Y-135588095D01*
X409019952Y-135588095D01*
X408834238Y-135526190D01*
X408710429Y-135402381D01*
X408648524Y-135278571D01*
X408586619Y-135030952D01*
X408586619Y-134845238D01*
X408648524Y-134597619D01*
X408710429Y-134473810D01*
X408834238Y-134350000D01*
X409019952Y-134288095D01*
X409143762Y-134288095D01*
X409329476Y-134350000D01*
X409391381Y-134411905D01*
X408648524Y-185588095D02*
X408648524Y-184288095D01*
X408958048Y-184288095D01*
X409143762Y-184350000D01*
X409267571Y-184473810D01*
X409329476Y-184597619D01*
X409391381Y-184845238D01*
X409391381Y-185030952D01*
X409329476Y-185278571D01*
X409267571Y-185402381D01*
X409143762Y-185526190D01*
X408958048Y-185588095D01*
X408648524Y-185588095D01*
X408710429Y-234907143D02*
X409143762Y-234907143D01*
X409329476Y-235588095D02*
X408710429Y-235588095D01*
X408710429Y-234288095D01*
X409329476Y-234288095D01*
X409174714Y-284907143D02*
X408741381Y-284907143D01*
X408741381Y-285588095D02*
X408741381Y-284288095D01*
X409360428Y-284288095D01*
X323346143Y-280780771D02*
X323346143Y-279280771D01*
X323703286Y-279280771D01*
X323917571Y-279352200D01*
X324060429Y-279495057D01*
X324131857Y-279637914D01*
X324203286Y-279923629D01*
X324203286Y-280137914D01*
X324131857Y-280423629D01*
X324060429Y-280566486D01*
X323917571Y-280709343D01*
X323703286Y-280780771D01*
X323346143Y-280780771D01*
X325489000Y-280780771D02*
X325489000Y-279995057D01*
X325417571Y-279852200D01*
X325274714Y-279780771D01*
X324989000Y-279780771D01*
X324846143Y-279852200D01*
X325489000Y-280709343D02*
X325346143Y-280780771D01*
X324989000Y-280780771D01*
X324846143Y-280709343D01*
X324774714Y-280566486D01*
X324774714Y-280423629D01*
X324846143Y-280280771D01*
X324989000Y-280209343D01*
X325346143Y-280209343D01*
X325489000Y-280137914D01*
X325989000Y-279780771D02*
X326560429Y-279780771D01*
X326203286Y-279280771D02*
X326203286Y-280566486D01*
X326274714Y-280709343D01*
X326417572Y-280780771D01*
X326560429Y-280780771D01*
X327631857Y-280709343D02*
X327489000Y-280780771D01*
X327203286Y-280780771D01*
X327060429Y-280709343D01*
X326989000Y-280566486D01*
X326989000Y-279995057D01*
X327060429Y-279852200D01*
X327203286Y-279780771D01*
X327489000Y-279780771D01*
X327631857Y-279852200D01*
X327703286Y-279995057D01*
X327703286Y-280137914D01*
X326989000Y-280280771D01*
X328346143Y-280637914D02*
X328417571Y-280709343D01*
X328346143Y-280780771D01*
X328274714Y-280709343D01*
X328346143Y-280637914D01*
X328346143Y-280780771D01*
X328346143Y-279852200D02*
X328417571Y-279923629D01*
X328346143Y-279995057D01*
X328274714Y-279923629D01*
X328346143Y-279852200D01*
X328346143Y-279995057D01*
X299989000Y-281502200D02*
X407989000Y-281502200D01*
X301346143Y-283580771D02*
X301346143Y-282080771D01*
X302203286Y-283580771D02*
X301560429Y-282723629D01*
X302203286Y-282080771D02*
X301346143Y-282937914D01*
X302846143Y-283580771D02*
X302846143Y-282580771D01*
X302846143Y-282080771D02*
X302774714Y-282152200D01*
X302846143Y-282223629D01*
X302917571Y-282152200D01*
X302846143Y-282080771D01*
X302846143Y-282223629D01*
X304417572Y-283437914D02*
X304346143Y-283509343D01*
X304131857Y-283580771D01*
X303989000Y-283580771D01*
X303774715Y-283509343D01*
X303631857Y-283366486D01*
X303560429Y-283223629D01*
X303489000Y-282937914D01*
X303489000Y-282723629D01*
X303560429Y-282437914D01*
X303631857Y-282295057D01*
X303774715Y-282152200D01*
X303989000Y-282080771D01*
X304131857Y-282080771D01*
X304346143Y-282152200D01*
X304417572Y-282223629D01*
X305703286Y-283580771D02*
X305703286Y-282795057D01*
X305631857Y-282652200D01*
X305489000Y-282580771D01*
X305203286Y-282580771D01*
X305060429Y-282652200D01*
X305703286Y-283509343D02*
X305560429Y-283580771D01*
X305203286Y-283580771D01*
X305060429Y-283509343D01*
X304989000Y-283366486D01*
X304989000Y-283223629D01*
X305060429Y-283080771D01*
X305203286Y-283009343D01*
X305560429Y-283009343D01*
X305703286Y-282937914D01*
X307060429Y-283580771D02*
X307060429Y-282080771D01*
X307060429Y-283509343D02*
X306917572Y-283580771D01*
X306631858Y-283580771D01*
X306489000Y-283509343D01*
X306417572Y-283437914D01*
X306346143Y-283295057D01*
X306346143Y-282866486D01*
X306417572Y-282723629D01*
X306489000Y-282652200D01*
X306631858Y-282580771D01*
X306917572Y-282580771D01*
X307060429Y-282652200D01*
X308917572Y-282795057D02*
X309417572Y-282795057D01*
X309631858Y-283580771D02*
X308917572Y-283580771D01*
X308917572Y-282080771D01*
X309631858Y-282080771D01*
X310274715Y-283437914D02*
X310346143Y-283509343D01*
X310274715Y-283580771D01*
X310203286Y-283509343D01*
X310274715Y-283437914D01*
X310274715Y-283580771D01*
X310989001Y-283580771D02*
X310989001Y-282080771D01*
X311346144Y-282080771D01*
X311560429Y-282152200D01*
X311703287Y-282295057D01*
X311774715Y-282437914D01*
X311846144Y-282723629D01*
X311846144Y-282937914D01*
X311774715Y-283223629D01*
X311703287Y-283366486D01*
X311560429Y-283509343D01*
X311346144Y-283580771D01*
X310989001Y-283580771D01*
X312489001Y-283437914D02*
X312560429Y-283509343D01*
X312489001Y-283580771D01*
X312417572Y-283509343D01*
X312489001Y-283437914D01*
X312489001Y-283580771D01*
X313131858Y-283152200D02*
X313846144Y-283152200D01*
X312989001Y-283580771D02*
X313489001Y-282080771D01*
X313989001Y-283580771D01*
X314489001Y-283437914D02*
X314560429Y-283509343D01*
X314489001Y-283580771D01*
X314417572Y-283509343D01*
X314489001Y-283437914D01*
X314489001Y-283580771D01*
X317489001Y-283580771D02*
X317489001Y-282080771D01*
X317631858Y-283009343D02*
X318060429Y-283580771D01*
X318060429Y-282580771D02*
X317489001Y-283152200D01*
X318703287Y-283580771D02*
X318703287Y-282580771D01*
X318703287Y-282080771D02*
X318631858Y-282152200D01*
X318703287Y-282223629D01*
X318774715Y-282152200D01*
X318703287Y-282080771D01*
X318703287Y-282223629D01*
X320060430Y-283509343D02*
X319917573Y-283580771D01*
X319631859Y-283580771D01*
X319489001Y-283509343D01*
X319417573Y-283437914D01*
X319346144Y-283295057D01*
X319346144Y-282866486D01*
X319417573Y-282723629D01*
X319489001Y-282652200D01*
X319631859Y-282580771D01*
X319917573Y-282580771D01*
X320060430Y-282652200D01*
X321346144Y-283580771D02*
X321346144Y-282795057D01*
X321274715Y-282652200D01*
X321131858Y-282580771D01*
X320846144Y-282580771D01*
X320703287Y-282652200D01*
X321346144Y-283509343D02*
X321203287Y-283580771D01*
X320846144Y-283580771D01*
X320703287Y-283509343D01*
X320631858Y-283366486D01*
X320631858Y-283223629D01*
X320703287Y-283080771D01*
X320846144Y-283009343D01*
X321203287Y-283009343D01*
X321346144Y-282937914D01*
X322703287Y-283580771D02*
X322703287Y-282080771D01*
X322703287Y-283509343D02*
X322560430Y-283580771D01*
X322274716Y-283580771D01*
X322131858Y-283509343D01*
X322060430Y-283437914D01*
X321989001Y-283295057D01*
X321989001Y-282866486D01*
X322060430Y-282723629D01*
X322131858Y-282652200D01*
X322274716Y-282580771D01*
X322560430Y-282580771D01*
X322703287Y-282652200D01*
X324989001Y-284152200D02*
X324917573Y-284080771D01*
X324774716Y-283866486D01*
X324703287Y-283723629D01*
X324631858Y-283509343D01*
X324560430Y-283152200D01*
X324560430Y-282866486D01*
X324631858Y-282509343D01*
X324703287Y-282295057D01*
X324774716Y-282152200D01*
X324917573Y-281937914D01*
X324989001Y-281866486D01*
X325489001Y-282223629D02*
X325560430Y-282152200D01*
X325703287Y-282080771D01*
X326060430Y-282080771D01*
X326203287Y-282152200D01*
X326274716Y-282223629D01*
X326346144Y-282366486D01*
X326346144Y-282509343D01*
X326274716Y-282723629D01*
X325417573Y-283580771D01*
X326346144Y-283580771D01*
X327274715Y-282080771D02*
X327417572Y-282080771D01*
X327560429Y-282152200D01*
X327631858Y-282223629D01*
X327703287Y-282366486D01*
X327774715Y-282652200D01*
X327774715Y-283009343D01*
X327703287Y-283295057D01*
X327631858Y-283437914D01*
X327560429Y-283509343D01*
X327417572Y-283580771D01*
X327274715Y-283580771D01*
X327131858Y-283509343D01*
X327060429Y-283437914D01*
X326989001Y-283295057D01*
X326917572Y-283009343D01*
X326917572Y-282652200D01*
X326989001Y-282366486D01*
X327060429Y-282223629D01*
X327131858Y-282152200D01*
X327274715Y-282080771D01*
X329203286Y-283580771D02*
X328346143Y-283580771D01*
X328774715Y-283580771D02*
X328774715Y-282080771D01*
X328631858Y-282295057D01*
X328489000Y-282437914D01*
X328346143Y-282509343D01*
X330560429Y-282080771D02*
X329846143Y-282080771D01*
X329774714Y-282795057D01*
X329846143Y-282723629D01*
X329989000Y-282652200D01*
X330346143Y-282652200D01*
X330489000Y-282723629D01*
X330560429Y-282795057D01*
X330631857Y-282937914D01*
X330631857Y-283295057D01*
X330560429Y-283437914D01*
X330489000Y-283509343D01*
X330346143Y-283580771D01*
X329989000Y-283580771D01*
X329846143Y-283509343D01*
X329774714Y-283437914D01*
X331274714Y-283009343D02*
X332417571Y-283009343D01*
X333417571Y-282080771D02*
X333560428Y-282080771D01*
X333703285Y-282152200D01*
X333774714Y-282223629D01*
X333846143Y-282366486D01*
X333917571Y-282652200D01*
X333917571Y-283009343D01*
X333846143Y-283295057D01*
X333774714Y-283437914D01*
X333703285Y-283509343D01*
X333560428Y-283580771D01*
X333417571Y-283580771D01*
X333274714Y-283509343D01*
X333203285Y-283437914D01*
X333131857Y-283295057D01*
X333060428Y-283009343D01*
X333060428Y-282652200D01*
X333131857Y-282366486D01*
X333203285Y-282223629D01*
X333274714Y-282152200D01*
X333417571Y-282080771D01*
X334417571Y-282080771D02*
X335417571Y-282080771D01*
X334774714Y-283580771D01*
X335988999Y-283009343D02*
X337131856Y-283009343D01*
X338631856Y-283580771D02*
X337774713Y-283580771D01*
X338203285Y-283580771D02*
X338203285Y-282080771D01*
X338060428Y-282295057D01*
X337917570Y-282437914D01*
X337774713Y-282509343D01*
X339988999Y-282080771D02*
X339274713Y-282080771D01*
X339203284Y-282795057D01*
X339274713Y-282723629D01*
X339417570Y-282652200D01*
X339774713Y-282652200D01*
X339917570Y-282723629D01*
X339988999Y-282795057D01*
X340060427Y-282937914D01*
X340060427Y-283295057D01*
X339988999Y-283437914D01*
X339917570Y-283509343D01*
X339774713Y-283580771D01*
X339417570Y-283580771D01*
X339274713Y-283509343D01*
X339203284Y-283437914D01*
X342346141Y-282795057D02*
X342560427Y-282866486D01*
X342631855Y-282937914D01*
X342703284Y-283080771D01*
X342703284Y-283295057D01*
X342631855Y-283437914D01*
X342560427Y-283509343D01*
X342417569Y-283580771D01*
X341846141Y-283580771D01*
X341846141Y-282080771D01*
X342346141Y-282080771D01*
X342488998Y-282152200D01*
X342560427Y-282223629D01*
X342631855Y-282366486D01*
X342631855Y-282509343D01*
X342560427Y-282652200D01*
X342488998Y-282723629D01*
X342346141Y-282795057D01*
X341846141Y-282795057D01*
X343203284Y-282080771D02*
X344203284Y-282080771D01*
X343203284Y-283580771D01*
X344203284Y-283580771D01*
X345631855Y-283580771D02*
X345131855Y-282866486D01*
X344774712Y-283580771D02*
X344774712Y-282080771D01*
X345346140Y-282080771D01*
X345488998Y-282152200D01*
X345560426Y-282223629D01*
X345631855Y-282366486D01*
X345631855Y-282580771D01*
X345560426Y-282723629D01*
X345488998Y-282795057D01*
X345346140Y-282866486D01*
X344774712Y-282866486D01*
X348131855Y-282080771D02*
X347417569Y-282080771D01*
X347346140Y-282795057D01*
X347417569Y-282723629D01*
X347560426Y-282652200D01*
X347917569Y-282652200D01*
X348060426Y-282723629D01*
X348131855Y-282795057D01*
X348203283Y-282937914D01*
X348203283Y-283295057D01*
X348131855Y-283437914D01*
X348060426Y-283509343D01*
X347917569Y-283580771D01*
X347560426Y-283580771D01*
X347417569Y-283509343D01*
X347346140Y-283437914D01*
X348917568Y-283580771D02*
X349203283Y-283580771D01*
X349346140Y-283509343D01*
X349417568Y-283437914D01*
X349560426Y-283223629D01*
X349631854Y-282937914D01*
X349631854Y-282366486D01*
X349560426Y-282223629D01*
X349488997Y-282152200D01*
X349346140Y-282080771D01*
X349060426Y-282080771D01*
X348917568Y-282152200D01*
X348846140Y-282223629D01*
X348774711Y-282366486D01*
X348774711Y-282723629D01*
X348846140Y-282866486D01*
X348917568Y-282937914D01*
X349060426Y-283009343D01*
X349346140Y-283009343D01*
X349488997Y-282937914D01*
X349560426Y-282866486D01*
X349631854Y-282723629D01*
X350917568Y-282580771D02*
X350917568Y-283580771D01*
X350560425Y-282009343D02*
X350203282Y-283080771D01*
X351131854Y-283080771D01*
X351917568Y-282723629D02*
X351774710Y-282652200D01*
X351703282Y-282580771D01*
X351631853Y-282437914D01*
X351631853Y-282366486D01*
X351703282Y-282223629D01*
X351774710Y-282152200D01*
X351917568Y-282080771D01*
X352203282Y-282080771D01*
X352346139Y-282152200D01*
X352417568Y-282223629D01*
X352488996Y-282366486D01*
X352488996Y-282437914D01*
X352417568Y-282580771D01*
X352346139Y-282652200D01*
X352203282Y-282723629D01*
X351917568Y-282723629D01*
X351774710Y-282795057D01*
X351703282Y-282866486D01*
X351631853Y-283009343D01*
X351631853Y-283295057D01*
X351703282Y-283437914D01*
X351774710Y-283509343D01*
X351917568Y-283580771D01*
X352203282Y-283580771D01*
X352346139Y-283509343D01*
X352417568Y-283437914D01*
X352488996Y-283295057D01*
X352488996Y-283009343D01*
X352417568Y-282866486D01*
X352346139Y-282795057D01*
X352203282Y-282723629D01*
X352988996Y-284152200D02*
X353060424Y-284080771D01*
X353203281Y-283866486D01*
X353274710Y-283723629D01*
X353346139Y-283509343D01*
X353417567Y-283152200D01*
X353417567Y-282866486D01*
X353346139Y-282509343D01*
X353274710Y-282295057D01*
X353203281Y-282152200D01*
X353060424Y-281937914D01*
X352988996Y-281866486D01*
X354131853Y-283009343D02*
X355274710Y-283009343D01*
X355988996Y-282580771D02*
X355988996Y-284080771D01*
X355988996Y-282652200D02*
X356131853Y-282580771D01*
X356417567Y-282580771D01*
X356560424Y-282652200D01*
X356631853Y-282723629D01*
X356703282Y-282866486D01*
X356703282Y-283295057D01*
X356631853Y-283437914D01*
X356560424Y-283509343D01*
X356417567Y-283580771D01*
X356131853Y-283580771D01*
X355988996Y-283509343D01*
X357346139Y-283580771D02*
X357346139Y-282580771D01*
X357346139Y-282866486D02*
X357417567Y-282723629D01*
X357488996Y-282652200D01*
X357631853Y-282580771D01*
X357774710Y-282580771D01*
X358488996Y-283580771D02*
X358346138Y-283509343D01*
X358274710Y-283437914D01*
X358203281Y-283295057D01*
X358203281Y-282866486D01*
X358274710Y-282723629D01*
X358346138Y-282652200D01*
X358488996Y-282580771D01*
X358703281Y-282580771D01*
X358846138Y-282652200D01*
X358917567Y-282723629D01*
X358988996Y-282866486D01*
X358988996Y-283295057D01*
X358917567Y-283437914D01*
X358846138Y-283509343D01*
X358703281Y-283580771D01*
X358488996Y-283580771D01*
X360274710Y-283580771D02*
X360274710Y-282080771D01*
X360274710Y-283509343D02*
X360131853Y-283580771D01*
X359846139Y-283580771D01*
X359703281Y-283509343D01*
X359631853Y-283437914D01*
X359560424Y-283295057D01*
X359560424Y-282866486D01*
X359631853Y-282723629D01*
X359703281Y-282652200D01*
X359846139Y-282580771D01*
X360131853Y-282580771D01*
X360274710Y-282652200D01*
X361631853Y-282580771D02*
X361631853Y-283580771D01*
X360988996Y-282580771D02*
X360988996Y-283366486D01*
X361060424Y-283509343D01*
X361203282Y-283580771D01*
X361417567Y-283580771D01*
X361560424Y-283509343D01*
X361631853Y-283437914D01*
X362988996Y-283509343D02*
X362846139Y-283580771D01*
X362560425Y-283580771D01*
X362417567Y-283509343D01*
X362346139Y-283437914D01*
X362274710Y-283295057D01*
X362274710Y-282866486D01*
X362346139Y-282723629D01*
X362417567Y-282652200D01*
X362560425Y-282580771D01*
X362846139Y-282580771D01*
X362988996Y-282652200D01*
X363417567Y-282580771D02*
X363988996Y-282580771D01*
X363631853Y-282080771D02*
X363631853Y-283366486D01*
X363703281Y-283509343D01*
X363846139Y-283580771D01*
X363988996Y-283580771D01*
X299989000Y-278502200D02*
X407989000Y-278502200D01*
D11*
X387203286Y-280780771D02*
X386703286Y-280066486D01*
X386346143Y-280780771D02*
X386346143Y-279280771D01*
X386917571Y-279280771D01*
X387060429Y-279352200D01*
X387131857Y-279423629D01*
X387203286Y-279566486D01*
X387203286Y-279780771D01*
X387131857Y-279923629D01*
X387060429Y-279995057D01*
X386917571Y-280066486D01*
X386346143Y-280066486D01*
X388417571Y-280709343D02*
X388274714Y-280780771D01*
X387989000Y-280780771D01*
X387846143Y-280709343D01*
X387774714Y-280566486D01*
X387774714Y-279995057D01*
X387846143Y-279852200D01*
X387989000Y-279780771D01*
X388274714Y-279780771D01*
X388417571Y-279852200D01*
X388489000Y-279995057D01*
X388489000Y-280137914D01*
X387774714Y-280280771D01*
X388989000Y-279780771D02*
X389346143Y-280780771D01*
X389703285Y-279780771D01*
X390274714Y-280637914D02*
X390346142Y-280709343D01*
X390274714Y-280780771D01*
X390203285Y-280709343D01*
X390274714Y-280637914D01*
X390274714Y-280780771D01*
X390274714Y-279852200D02*
X390346142Y-279923629D01*
X390274714Y-279995057D01*
X390203285Y-279923629D01*
X390274714Y-279852200D01*
X390274714Y-279995057D01*
D10*
X301274714Y-280709343D02*
X301489000Y-280780771D01*
X301846143Y-280780771D01*
X301989000Y-280709343D01*
X302060429Y-280637914D01*
X302131857Y-280495057D01*
X302131857Y-280352200D01*
X302060429Y-280209343D01*
X301989000Y-280137914D01*
X301846143Y-280066486D01*
X301560429Y-279995057D01*
X301417571Y-279923629D01*
X301346143Y-279852200D01*
X301274714Y-279709343D01*
X301274714Y-279566486D01*
X301346143Y-279423629D01*
X301417571Y-279352200D01*
X301560429Y-279280771D01*
X301917571Y-279280771D01*
X302131857Y-279352200D01*
X302774714Y-280780771D02*
X302774714Y-279780771D01*
X302774714Y-279280771D02*
X302703285Y-279352200D01*
X302774714Y-279423629D01*
X302846142Y-279352200D01*
X302774714Y-279280771D01*
X302774714Y-279423629D01*
X303346143Y-279780771D02*
X304131857Y-279780771D01*
X303346143Y-280780771D01*
X304131857Y-280780771D01*
X305274714Y-280709343D02*
X305131857Y-280780771D01*
X304846143Y-280780771D01*
X304703286Y-280709343D01*
X304631857Y-280566486D01*
X304631857Y-279995057D01*
X304703286Y-279852200D01*
X304846143Y-279780771D01*
X305131857Y-279780771D01*
X305274714Y-279852200D01*
X305346143Y-279995057D01*
X305346143Y-280137914D01*
X304631857Y-280280771D01*
X305989000Y-280637914D02*
X306060428Y-280709343D01*
X305989000Y-280780771D01*
X305917571Y-280709343D01*
X305989000Y-280637914D01*
X305989000Y-280780771D01*
X305989000Y-279852200D02*
X306060428Y-279923629D01*
X305989000Y-279995057D01*
X305917571Y-279923629D01*
X305989000Y-279852200D01*
X305989000Y-279995057D01*
X307774714Y-280352200D02*
X308489000Y-280352200D01*
X307631857Y-280780771D02*
X308131857Y-279280771D01*
X308631857Y-280780771D01*
X308989000Y-279280771D02*
X309917571Y-279280771D01*
X309417571Y-279852200D01*
X309631857Y-279852200D01*
X309774714Y-279923629D01*
X309846143Y-279995057D01*
X309917571Y-280137914D01*
X309917571Y-280495057D01*
X309846143Y-280637914D01*
X309774714Y-280709343D01*
X309631857Y-280780771D01*
X309203285Y-280780771D01*
X309060428Y-280709343D01*
X308989000Y-280637914D01*
X386346143Y-283580771D02*
X386346143Y-282080771D01*
X387703286Y-283580771D02*
X387703286Y-282080771D01*
X387703286Y-283509343D02*
X387560429Y-283580771D01*
X387274715Y-283580771D01*
X387131857Y-283509343D01*
X387060429Y-283437914D01*
X386989000Y-283295057D01*
X386989000Y-282866486D01*
X387060429Y-282723629D01*
X387131857Y-282652200D01*
X387274715Y-282580771D01*
X387560429Y-282580771D01*
X387703286Y-282652200D01*
X388417572Y-283437914D02*
X388489000Y-283509343D01*
X388417572Y-283580771D01*
X388346143Y-283509343D01*
X388417572Y-283437914D01*
X388417572Y-283580771D01*
X388417572Y-282652200D02*
X388489000Y-282723629D01*
X388417572Y-282795057D01*
X388346143Y-282723629D01*
X388417572Y-282652200D01*
X388417572Y-282795057D01*
X391060429Y-283580771D02*
X390203286Y-283580771D01*
X390631858Y-283580771D02*
X390631858Y-282080771D01*
X390489001Y-282295057D01*
X390346143Y-282437914D01*
X390203286Y-282509343D01*
X392774714Y-282009343D02*
X391489000Y-283937914D01*
X394060429Y-283580771D02*
X393203286Y-283580771D01*
X393631858Y-283580771D02*
X393631858Y-282080771D01*
X393489001Y-282295057D01*
X393346143Y-282437914D01*
X393203286Y-282509343D01*
X299989000Y-274502200D02*
X407989000Y-274502200D01*
D12*
X301441381Y-275206962D02*
X302584238Y-275206962D01*
X301762810Y-277206962D02*
X302012810Y-275206962D01*
X303000905Y-277206962D02*
X303167571Y-275873629D01*
X303250905Y-275206962D02*
X303143762Y-275302200D01*
X303227095Y-275397438D01*
X303334239Y-275302200D01*
X303250905Y-275206962D01*
X303227095Y-275397438D01*
X303834238Y-275873629D02*
X304596143Y-275873629D01*
X304203286Y-275206962D02*
X303989000Y-276921248D01*
X304060430Y-277111724D01*
X304239001Y-277206962D01*
X304429477Y-277206962D01*
X305381858Y-277206962D02*
X305203287Y-277111724D01*
X305131857Y-276921248D01*
X305346143Y-275206962D01*
X306917572Y-277111724D02*
X306715191Y-277206962D01*
X306334239Y-277206962D01*
X306155667Y-277111724D01*
X306084238Y-276921248D01*
X306179476Y-276159343D01*
X306298524Y-275968867D01*
X306500905Y-275873629D01*
X306881857Y-275873629D01*
X307060429Y-275968867D01*
X307131857Y-276159343D01*
X307108048Y-276349819D01*
X306131857Y-276540295D01*
X307881857Y-277016486D02*
X307965192Y-277111724D01*
X307858048Y-277206962D01*
X307774715Y-277111724D01*
X307881857Y-277016486D01*
X307858048Y-277206962D01*
X308012810Y-275968867D02*
X308096144Y-276064105D01*
X307989000Y-276159343D01*
X307905667Y-276064105D01*
X308012810Y-275968867D01*
X307989000Y-276159343D01*
D10*
X301846143Y-272595057D02*
X301346143Y-272595057D01*
X301346143Y-273380771D02*
X301346143Y-271880771D01*
X302060429Y-271880771D01*
X302631857Y-273380771D02*
X302631857Y-272380771D01*
X302631857Y-271880771D02*
X302560428Y-271952200D01*
X302631857Y-272023629D01*
X302703285Y-271952200D01*
X302631857Y-271880771D01*
X302631857Y-272023629D01*
X303560429Y-273380771D02*
X303417571Y-273309343D01*
X303346143Y-273166486D01*
X303346143Y-271880771D01*
X304703285Y-273309343D02*
X304560428Y-273380771D01*
X304274714Y-273380771D01*
X304131857Y-273309343D01*
X304060428Y-273166486D01*
X304060428Y-272595057D01*
X304131857Y-272452200D01*
X304274714Y-272380771D01*
X304560428Y-272380771D01*
X304703285Y-272452200D01*
X304774714Y-272595057D01*
X304774714Y-272737914D01*
X304060428Y-272880771D01*
X305417571Y-273237914D02*
X305488999Y-273309343D01*
X305417571Y-273380771D01*
X305346142Y-273309343D01*
X305417571Y-273237914D01*
X305417571Y-273380771D01*
X305417571Y-272452200D02*
X305488999Y-272523629D01*
X305417571Y-272595057D01*
X305346142Y-272523629D01*
X305417571Y-272452200D01*
X305417571Y-272595057D01*
X307060428Y-271880771D02*
X307560428Y-273380771D01*
X308060428Y-271880771D01*
X308774714Y-273380771D02*
X308631856Y-273309343D01*
X308560428Y-273237914D01*
X308488999Y-273095057D01*
X308488999Y-272666486D01*
X308560428Y-272523629D01*
X308631856Y-272452200D01*
X308774714Y-272380771D01*
X308988999Y-272380771D01*
X309131856Y-272452200D01*
X309203285Y-272523629D01*
X309274714Y-272666486D01*
X309274714Y-273095057D01*
X309203285Y-273237914D01*
X309131856Y-273309343D01*
X308988999Y-273380771D01*
X308774714Y-273380771D01*
X310560428Y-273309343D02*
X310417571Y-273380771D01*
X310131857Y-273380771D01*
X309988999Y-273309343D01*
X309917571Y-273237914D01*
X309846142Y-273095057D01*
X309846142Y-272666486D01*
X309917571Y-272523629D01*
X309988999Y-272452200D01*
X310131857Y-272380771D01*
X310417571Y-272380771D01*
X310560428Y-272452200D01*
X311846142Y-273380771D02*
X311846142Y-272595057D01*
X311774713Y-272452200D01*
X311631856Y-272380771D01*
X311346142Y-272380771D01*
X311203285Y-272452200D01*
X311846142Y-273309343D02*
X311703285Y-273380771D01*
X311346142Y-273380771D01*
X311203285Y-273309343D01*
X311131856Y-273166486D01*
X311131856Y-273023629D01*
X311203285Y-272880771D01*
X311346142Y-272809343D01*
X311703285Y-272809343D01*
X311846142Y-272737914D01*
X312560428Y-273380771D02*
X312560428Y-271880771D01*
X312560428Y-272452200D02*
X312703285Y-272380771D01*
X312988999Y-272380771D01*
X313131856Y-272452200D01*
X313203285Y-272523629D01*
X313274714Y-272666486D01*
X313274714Y-273095057D01*
X313203285Y-273237914D01*
X313131856Y-273309343D01*
X312988999Y-273380771D01*
X312703285Y-273380771D01*
X312560428Y-273309343D01*
X313917571Y-273237914D02*
X313988999Y-273309343D01*
X313917571Y-273380771D01*
X313846142Y-273309343D01*
X313917571Y-273237914D01*
X313917571Y-273380771D01*
X314631857Y-273380771D02*
X314631857Y-271880771D01*
X314774714Y-272809343D02*
X315203285Y-273380771D01*
X315203285Y-272380771D02*
X314631857Y-272952200D01*
X315846143Y-273380771D02*
X315846143Y-272380771D01*
X315846143Y-271880771D02*
X315774714Y-271952200D01*
X315846143Y-272023629D01*
X315917571Y-271952200D01*
X315846143Y-271880771D01*
X315846143Y-272023629D01*
X317203286Y-273309343D02*
X317060429Y-273380771D01*
X316774715Y-273380771D01*
X316631857Y-273309343D01*
X316560429Y-273237914D01*
X316489000Y-273095057D01*
X316489000Y-272666486D01*
X316560429Y-272523629D01*
X316631857Y-272452200D01*
X316774715Y-272380771D01*
X317060429Y-272380771D01*
X317203286Y-272452200D01*
X318489000Y-273380771D02*
X318489000Y-272595057D01*
X318417571Y-272452200D01*
X318274714Y-272380771D01*
X317989000Y-272380771D01*
X317846143Y-272452200D01*
X318489000Y-273309343D02*
X318346143Y-273380771D01*
X317989000Y-273380771D01*
X317846143Y-273309343D01*
X317774714Y-273166486D01*
X317774714Y-273023629D01*
X317846143Y-272880771D01*
X317989000Y-272809343D01*
X318346143Y-272809343D01*
X318489000Y-272737914D01*
X319846143Y-273380771D02*
X319846143Y-271880771D01*
X319846143Y-273309343D02*
X319703286Y-273380771D01*
X319417572Y-273380771D01*
X319274714Y-273309343D01*
X319203286Y-273237914D01*
X319131857Y-273095057D01*
X319131857Y-272666486D01*
X319203286Y-272523629D01*
X319274714Y-272452200D01*
X319417572Y-272380771D01*
X319703286Y-272380771D01*
X319846143Y-272452200D01*
X320203286Y-273523629D02*
X321346143Y-273523629D01*
X321703286Y-272380771D02*
X321703286Y-273880771D01*
X321703286Y-272452200D02*
X321846143Y-272380771D01*
X322131857Y-272380771D01*
X322274714Y-272452200D01*
X322346143Y-272523629D01*
X322417572Y-272666486D01*
X322417572Y-273095057D01*
X322346143Y-273237914D01*
X322274714Y-273309343D01*
X322131857Y-273380771D01*
X321846143Y-273380771D01*
X321703286Y-273309343D01*
X323703286Y-273309343D02*
X323560429Y-273380771D01*
X323274715Y-273380771D01*
X323131857Y-273309343D01*
X323060429Y-273237914D01*
X322989000Y-273095057D01*
X322989000Y-272666486D01*
X323060429Y-272523629D01*
X323131857Y-272452200D01*
X323274715Y-272380771D01*
X323560429Y-272380771D01*
X323703286Y-272452200D01*
X324346143Y-273380771D02*
X324346143Y-271880771D01*
X324346143Y-272452200D02*
X324489000Y-272380771D01*
X324774714Y-272380771D01*
X324917571Y-272452200D01*
X324989000Y-272523629D01*
X325060429Y-272666486D01*
X325060429Y-273095057D01*
X324989000Y-273237914D01*
X324917571Y-273309343D01*
X324774714Y-273380771D01*
X324489000Y-273380771D01*
X324346143Y-273309343D01*
X299989000Y-268502200D02*
X407989000Y-268502200D01*
X301274714Y-270609343D02*
X301489000Y-270680771D01*
X301846143Y-270680771D01*
X301989000Y-270609343D01*
X302060429Y-270537914D01*
X302131857Y-270395057D01*
X302131857Y-270252200D01*
X302060429Y-270109343D01*
X301989000Y-270037914D01*
X301846143Y-269966486D01*
X301560429Y-269895057D01*
X301417571Y-269823629D01*
X301346143Y-269752200D01*
X301274714Y-269609343D01*
X301274714Y-269466486D01*
X301346143Y-269323629D01*
X301417571Y-269252200D01*
X301560429Y-269180771D01*
X301917571Y-269180771D01*
X302131857Y-269252200D01*
X302774714Y-270680771D02*
X302774714Y-269180771D01*
X303417571Y-270680771D02*
X303417571Y-269895057D01*
X303346142Y-269752200D01*
X303203285Y-269680771D01*
X302989000Y-269680771D01*
X302846142Y-269752200D01*
X302774714Y-269823629D01*
X304703285Y-270609343D02*
X304560428Y-270680771D01*
X304274714Y-270680771D01*
X304131857Y-270609343D01*
X304060428Y-270466486D01*
X304060428Y-269895057D01*
X304131857Y-269752200D01*
X304274714Y-269680771D01*
X304560428Y-269680771D01*
X304703285Y-269752200D01*
X304774714Y-269895057D01*
X304774714Y-270037914D01*
X304060428Y-270180771D01*
X305988999Y-270609343D02*
X305846142Y-270680771D01*
X305560428Y-270680771D01*
X305417571Y-270609343D01*
X305346142Y-270466486D01*
X305346142Y-269895057D01*
X305417571Y-269752200D01*
X305560428Y-269680771D01*
X305846142Y-269680771D01*
X305988999Y-269752200D01*
X306060428Y-269895057D01*
X306060428Y-270037914D01*
X305346142Y-270180771D01*
X306488999Y-269680771D02*
X307060428Y-269680771D01*
X306703285Y-269180771D02*
X306703285Y-270466486D01*
X306774713Y-270609343D01*
X306917571Y-270680771D01*
X307060428Y-270680771D01*
X307560428Y-270537914D02*
X307631856Y-270609343D01*
X307560428Y-270680771D01*
X307488999Y-270609343D01*
X307560428Y-270537914D01*
X307560428Y-270680771D01*
X307560428Y-269752200D02*
X307631856Y-269823629D01*
X307560428Y-269895057D01*
X307488999Y-269823629D01*
X307560428Y-269752200D01*
X307560428Y-269895057D01*
X319989000Y-278502200D02*
X319989000Y-281502200D01*
X383989000Y-278502200D02*
X383989000Y-285002200D01*
X196596000Y-167640000D02*
X196596000Y-99060000D01*
X249936000Y-167640000D02*
X196596000Y-167640000D01*
X249936000Y-99060000D02*
X249936000Y-167640000D01*
X196596000Y-99060000D02*
X249936000Y-99060000D01*
X241030000Y-143940000D02*
X239030000Y-143940000D01*
X239030000Y-146890000D02*
X241030000Y-146890000D01*
X226425000Y-143940000D02*
X224425000Y-143940000D01*
X224425000Y-146890000D02*
X226425000Y-146890000D01*
X205994000Y-154940000D02*
X205994000Y-156337000D01*
X206121000Y-154686000D02*
X206121000Y-156464000D01*
X206248000Y-154305000D02*
X206248000Y-156845000D01*
X206375000Y-156972000D02*
X206375000Y-154178000D01*
X206502000Y-154051000D02*
X206502000Y-157099000D01*
X206629000Y-157226000D02*
X206629000Y-153924000D01*
X206756000Y-153797000D02*
X206756000Y-157353000D01*
X210693000Y-155575000D02*
G75*
G03X210693000Y-155575000I-2413000J0D01*
G01*
X205613000Y-152908000D02*
X210185000Y-152908000D01*
X210185000Y-152908000D02*
X210947000Y-153670000D01*
X210947000Y-153670000D02*
X210947000Y-157480000D01*
X210947000Y-157480000D02*
X210185000Y-158242000D01*
X210185000Y-158242000D02*
X205613000Y-158242000D01*
X205613000Y-158242000D02*
X205613000Y-152908000D01*
X210439000Y-155575000D02*
X209677000Y-155575000D01*
X210058000Y-155194000D02*
X210058000Y-155956000D01*
X223520000Y-126492000D02*
X224917000Y-126492000D01*
X223266000Y-126365000D02*
X225044000Y-126365000D01*
X222885000Y-126238000D02*
X225425000Y-126238000D01*
X225552000Y-126111000D02*
X222758000Y-126111000D01*
X222631000Y-125984000D02*
X225679000Y-125984000D01*
X225806000Y-125857000D02*
X222504000Y-125857000D01*
X222377000Y-125730000D02*
X225933000Y-125730000D01*
X226568000Y-124206000D02*
G75*
G03X226568000Y-124206000I-2413000J0D01*
G01*
X221488000Y-126873000D02*
X221488000Y-122301000D01*
X221488000Y-122301000D02*
X222250000Y-121539000D01*
X222250000Y-121539000D02*
X226060000Y-121539000D01*
X226060000Y-121539000D02*
X226822000Y-122301000D01*
X226822000Y-122301000D02*
X226822000Y-126873000D01*
X226822000Y-126873000D02*
X221488000Y-126873000D01*
X224155000Y-122047000D02*
X224155000Y-122809000D01*
X223774000Y-122428000D02*
X224536000Y-122428000D01*
X240665000Y-135572500D02*
X240665000Y-135191500D01*
X240665000Y-136588500D02*
X240665000Y-136207500D01*
X240665000Y-136207500D02*
X240284000Y-135572500D01*
X240284000Y-135572500D02*
X241046000Y-135572500D01*
X241046000Y-135572500D02*
X240665000Y-136207500D01*
X240157000Y-136207500D02*
X241173000Y-136207500D01*
X241565000Y-137890000D02*
X241565000Y-134350000D01*
X239765000Y-137890000D02*
X239765000Y-134350000D01*
X236855000Y-136207500D02*
X236855000Y-136588500D01*
X236855000Y-135191500D02*
X236855000Y-135572500D01*
X236855000Y-135572500D02*
X237236000Y-136207500D01*
X237236000Y-136207500D02*
X236474000Y-136207500D01*
X236474000Y-136207500D02*
X236855000Y-135572500D01*
X237363000Y-135572500D02*
X236347000Y-135572500D01*
X235955000Y-133890000D02*
X235955000Y-137430000D01*
X237755000Y-133890000D02*
X237755000Y-137430000D01*
X229235000Y-135572500D02*
X229235000Y-135191500D01*
X229235000Y-136588500D02*
X229235000Y-136207500D01*
X229235000Y-136207500D02*
X228854000Y-135572500D01*
X228854000Y-135572500D02*
X229616000Y-135572500D01*
X229616000Y-135572500D02*
X229235000Y-136207500D01*
X228727000Y-136207500D02*
X229743000Y-136207500D01*
X230135000Y-137890000D02*
X230135000Y-134350000D01*
X228335000Y-137890000D02*
X228335000Y-134350000D01*
X225425000Y-136207500D02*
X225425000Y-136588500D01*
X225425000Y-135191500D02*
X225425000Y-135572500D01*
X225425000Y-135572500D02*
X225806000Y-136207500D01*
X225806000Y-136207500D02*
X225044000Y-136207500D01*
X225044000Y-136207500D02*
X225425000Y-135572500D01*
X225933000Y-135572500D02*
X224917000Y-135572500D01*
X224525000Y-133890000D02*
X224525000Y-137430000D01*
X226325000Y-133890000D02*
X226325000Y-137430000D01*
X205740000Y-144780000D02*
X205740000Y-142240000D01*
X202920000Y-141960000D02*
X204470000Y-141960000D01*
X202920000Y-141960000D02*
X202920000Y-145060000D01*
X202920000Y-145060000D02*
X204470000Y-145060000D01*
X221375000Y-155540000D02*
X221375000Y-154340000D01*
X223125000Y-154340000D02*
X223125000Y-155540000D01*
X223915000Y-155540000D02*
X223915000Y-154340000D01*
X225665000Y-154340000D02*
X225665000Y-155540000D01*
X236615000Y-155540000D02*
X236615000Y-154340000D01*
X238365000Y-154340000D02*
X238365000Y-155540000D01*
X239155000Y-155540000D02*
X239155000Y-154340000D01*
X240905000Y-154340000D02*
X240905000Y-155540000D01*
X213960000Y-144385000D02*
X212760000Y-144385000D01*
X212760000Y-142635000D02*
X213960000Y-142635000D01*
X212760000Y-140095000D02*
X213960000Y-140095000D01*
X213960000Y-141845000D02*
X212760000Y-141845000D01*
X241695000Y-155540000D02*
X241695000Y-154340000D01*
X243445000Y-154340000D02*
X243445000Y-155540000D01*
X212760000Y-137555000D02*
X213960000Y-137555000D01*
X213960000Y-139305000D02*
X212760000Y-139305000D01*
X234075000Y-155540000D02*
X234075000Y-154340000D01*
X235825000Y-154340000D02*
X235825000Y-155540000D01*
X226455000Y-155540000D02*
X226455000Y-154340000D01*
X228205000Y-154340000D02*
X228205000Y-155540000D01*
X218835000Y-155540000D02*
X218835000Y-154340000D01*
X220585000Y-154340000D02*
X220585000Y-155540000D01*
X213960000Y-132320000D02*
X212760000Y-132320000D01*
X212760000Y-130570000D02*
X213960000Y-130570000D01*
X212760000Y-133745000D02*
X213960000Y-133745000D01*
X213960000Y-135495000D02*
X212760000Y-135495000D01*
X212760000Y-145175000D02*
X213960000Y-145175000D01*
X213960000Y-146925000D02*
X212760000Y-146925000D01*
X222250000Y-162280000D02*
X220700000Y-162280000D01*
X220700000Y-162280000D02*
X220700000Y-165380000D01*
X220700000Y-165380000D02*
X222250000Y-165380000D01*
X223520000Y-162560000D02*
X228600000Y-162560000D01*
X228600000Y-162560000D02*
X228600000Y-165100000D01*
X228600000Y-165100000D02*
X223520000Y-165100000D01*
X223520000Y-165100000D02*
X223520000Y-162560000D01*
X237490000Y-162280000D02*
X235940000Y-162280000D01*
X235940000Y-162280000D02*
X235940000Y-165380000D01*
X235940000Y-165380000D02*
X237490000Y-165380000D01*
X238760000Y-162560000D02*
X243840000Y-162560000D01*
X243840000Y-162560000D02*
X243840000Y-165100000D01*
X243840000Y-165100000D02*
X238760000Y-165100000D01*
X238760000Y-165100000D02*
X238760000Y-162560000D01*
X200940000Y-116840000D02*
X200940000Y-115290000D01*
X200940000Y-115290000D02*
X197840000Y-115290000D01*
X197840000Y-115290000D02*
X197840000Y-116840000D01*
X200660000Y-118110000D02*
X200660000Y-123190000D01*
X200660000Y-123190000D02*
X198120000Y-123190000D01*
X198120000Y-123190000D02*
X198120000Y-118110000D01*
X198120000Y-118110000D02*
X200660000Y-118110000D01*
X249200000Y-104140000D02*
X249200000Y-102590000D01*
X249200000Y-102590000D02*
X246100000Y-102590000D01*
X246100000Y-102590000D02*
X246100000Y-104140000D01*
X248920000Y-105410000D02*
X248920000Y-110490000D01*
X248920000Y-110490000D02*
X246380000Y-110490000D01*
X246380000Y-110490000D02*
X246380000Y-105410000D01*
X246380000Y-105410000D02*
X248920000Y-105410000D01*
D13*
X248920000Y-114300000D02*
G75*
G03X248920000Y-114300000I-1524000J0D01*
G01*
X233680000Y-165100000D02*
G75*
G03X233680000Y-165100000I-1524000J0D01*
G01*
X200660000Y-113030000D02*
G75*
G03X200660000Y-113030000I-1524000J0D01*
G01*
X205740000Y-165100000D02*
G75*
G03X205740000Y-165100000I-1524000J0D01*
G01*
X196596000Y-99060000D02*
X196596000Y-167640000D01*
X196596000Y-167640000D02*
X249936000Y-167640000D01*
X249936000Y-167640000D02*
X249936000Y-99060000D01*
X249936000Y-99060000D02*
X196596000Y-99060000D01*
D10*
X200660000Y-104775000D02*
X200660000Y-102235000D01*
X197840000Y-101955000D02*
X199390000Y-101955000D01*
X197840000Y-101955000D02*
X197840000Y-105055000D01*
X197840000Y-105055000D02*
X199390000Y-105055000D01*
X200660000Y-108585000D02*
X200660000Y-106045000D01*
X197840000Y-105765000D02*
X199390000Y-105765000D01*
X197840000Y-105765000D02*
X197840000Y-108865000D01*
X197840000Y-108865000D02*
X199390000Y-108865000D01*
X219075000Y-144780000D02*
X219075000Y-142240000D01*
X216255000Y-141960000D02*
X217805000Y-141960000D01*
X216255000Y-141960000D02*
X216255000Y-145060000D01*
X216255000Y-145060000D02*
X217805000Y-145060000D01*
X211810000Y-163830000D02*
X211810000Y-165380000D01*
X214630000Y-162560000D02*
X212090000Y-162560000D01*
X211810000Y-165380000D02*
X213360000Y-165380000D01*
X217170000Y-162560000D02*
X214630000Y-162560000D01*
X214630000Y-162560000D02*
X214630000Y-165100000D01*
X214630000Y-165100000D02*
X217170000Y-165100000D01*
X217170000Y-165100000D02*
X217170000Y-162560000D01*
X241642900Y-110192820D02*
X241642900Y-111244380D01*
X243243100Y-111295180D02*
X243243100Y-110243620D01*
X233133900Y-110319820D02*
X233133900Y-111371380D01*
X234734100Y-111422180D02*
X234734100Y-110370620D01*
X239155000Y-115662000D02*
X239155000Y-114462000D01*
X240905000Y-114462000D02*
X240905000Y-115662000D01*
X230872000Y-114589000D02*
X230872000Y-115789000D01*
X229122000Y-115789000D02*
X229122000Y-114589000D01*
X236615000Y-115662000D02*
X236615000Y-114462000D01*
X238365000Y-114462000D02*
X238365000Y-115662000D01*
X230618000Y-123479000D02*
X230618000Y-124679000D01*
X228868000Y-124679000D02*
X228868000Y-123479000D01*
X236958000Y-118975000D02*
X236958000Y-119275000D01*
X240308000Y-118975000D02*
X240308000Y-119275000D01*
X240308000Y-122325000D02*
X240308000Y-122025000D01*
X236958000Y-122325000D02*
X236958000Y-122025000D01*
X236958000Y-118975000D02*
X240308000Y-118975000D01*
X236958000Y-122325000D02*
X240308000Y-122325000D01*
X236958000Y-119275000D02*
X235733000Y-119275000D01*
X206980840Y-123713240D02*
X207029100Y-123713240D01*
X209779820Y-123012200D02*
X209779820Y-123713240D01*
X209779820Y-123713240D02*
X209530900Y-123713240D01*
X206980840Y-123713240D02*
X206780180Y-123713240D01*
X206780180Y-123713240D02*
X206780180Y-123012200D01*
X239863334Y-143072143D02*
X239815715Y-143119762D01*
X239672858Y-143167381D01*
X239577620Y-143167381D01*
X239434762Y-143119762D01*
X239339524Y-143024524D01*
X239291905Y-142929286D01*
X239244286Y-142738810D01*
X239244286Y-142595952D01*
X239291905Y-142405476D01*
X239339524Y-142310238D01*
X239434762Y-142215000D01*
X239577620Y-142167381D01*
X239672858Y-142167381D01*
X239815715Y-142215000D01*
X239863334Y-142262619D01*
X240815715Y-143167381D02*
X240244286Y-143167381D01*
X240530000Y-143167381D02*
X240530000Y-142167381D01*
X240434762Y-142310238D01*
X240339524Y-142405476D01*
X240244286Y-142453095D01*
X225258334Y-143072143D02*
X225210715Y-143119762D01*
X225067858Y-143167381D01*
X224972620Y-143167381D01*
X224829762Y-143119762D01*
X224734524Y-143024524D01*
X224686905Y-142929286D01*
X224639286Y-142738810D01*
X224639286Y-142595952D01*
X224686905Y-142405476D01*
X224734524Y-142310238D01*
X224829762Y-142215000D01*
X224972620Y-142167381D01*
X225067858Y-142167381D01*
X225210715Y-142215000D01*
X225258334Y-142262619D01*
X225639286Y-142262619D02*
X225686905Y-142215000D01*
X225782143Y-142167381D01*
X226020239Y-142167381D01*
X226115477Y-142215000D01*
X226163096Y-142262619D01*
X226210715Y-142357857D01*
X226210715Y-142453095D01*
X226163096Y-142595952D01*
X225591667Y-143167381D01*
X226210715Y-143167381D01*
X208113334Y-152757143D02*
X208065715Y-152804762D01*
X207922858Y-152852381D01*
X207827620Y-152852381D01*
X207684762Y-152804762D01*
X207589524Y-152709524D01*
X207541905Y-152614286D01*
X207494286Y-152423810D01*
X207494286Y-152280952D01*
X207541905Y-152090476D01*
X207589524Y-151995238D01*
X207684762Y-151900000D01*
X207827620Y-151852381D01*
X207922858Y-151852381D01*
X208065715Y-151900000D01*
X208113334Y-151947619D01*
X208446667Y-151852381D02*
X209065715Y-151852381D01*
X208732381Y-152233333D01*
X208875239Y-152233333D01*
X208970477Y-152280952D01*
X209018096Y-152328571D01*
X209065715Y-152423810D01*
X209065715Y-152661905D01*
X209018096Y-152757143D01*
X208970477Y-152804762D01*
X208875239Y-152852381D01*
X208589524Y-152852381D01*
X208494286Y-152804762D01*
X208446667Y-152757143D01*
X221337143Y-124372666D02*
X221384762Y-124420285D01*
X221432381Y-124563142D01*
X221432381Y-124658380D01*
X221384762Y-124801238D01*
X221289524Y-124896476D01*
X221194286Y-124944095D01*
X221003810Y-124991714D01*
X220860952Y-124991714D01*
X220670476Y-124944095D01*
X220575238Y-124896476D01*
X220480000Y-124801238D01*
X220432381Y-124658380D01*
X220432381Y-124563142D01*
X220480000Y-124420285D01*
X220527619Y-124372666D01*
X220765714Y-123515523D02*
X221432381Y-123515523D01*
X220384762Y-123753619D02*
X221099048Y-123991714D01*
X221099048Y-123372666D01*
X239117381Y-136628095D02*
X238117381Y-136628095D01*
X238117381Y-136390000D01*
X238165000Y-136247142D01*
X238260238Y-136151904D01*
X238355476Y-136104285D01*
X238545952Y-136056666D01*
X238688810Y-136056666D01*
X238879286Y-136104285D01*
X238974524Y-136151904D01*
X239069762Y-136247142D01*
X239117381Y-136390000D01*
X239117381Y-136628095D01*
X239117381Y-135104285D02*
X239117381Y-135675714D01*
X239117381Y-135390000D02*
X238117381Y-135390000D01*
X238260238Y-135485238D01*
X238355476Y-135580476D01*
X238403095Y-135675714D01*
X239307381Y-136628095D02*
X238307381Y-136628095D01*
X238307381Y-136390000D01*
X238355000Y-136247142D01*
X238450238Y-136151904D01*
X238545476Y-136104285D01*
X238735952Y-136056666D01*
X238878810Y-136056666D01*
X239069286Y-136104285D01*
X239164524Y-136151904D01*
X239259762Y-136247142D01*
X239307381Y-136390000D01*
X239307381Y-136628095D01*
X238402619Y-135675714D02*
X238355000Y-135628095D01*
X238307381Y-135532857D01*
X238307381Y-135294761D01*
X238355000Y-135199523D01*
X238402619Y-135151904D01*
X238497857Y-135104285D01*
X238593095Y-135104285D01*
X238735952Y-135151904D01*
X239307381Y-135723333D01*
X239307381Y-135104285D01*
X227687381Y-136628095D02*
X226687381Y-136628095D01*
X226687381Y-136390000D01*
X226735000Y-136247142D01*
X226830238Y-136151904D01*
X226925476Y-136104285D01*
X227115952Y-136056666D01*
X227258810Y-136056666D01*
X227449286Y-136104285D01*
X227544524Y-136151904D01*
X227639762Y-136247142D01*
X227687381Y-136390000D01*
X227687381Y-136628095D01*
X226687381Y-135723333D02*
X226687381Y-135104285D01*
X227068333Y-135437619D01*
X227068333Y-135294761D01*
X227115952Y-135199523D01*
X227163571Y-135151904D01*
X227258810Y-135104285D01*
X227496905Y-135104285D01*
X227592143Y-135151904D01*
X227639762Y-135199523D01*
X227687381Y-135294761D01*
X227687381Y-135580476D01*
X227639762Y-135675714D01*
X227592143Y-135723333D01*
X227877381Y-136628095D02*
X226877381Y-136628095D01*
X226877381Y-136390000D01*
X226925000Y-136247142D01*
X227020238Y-136151904D01*
X227115476Y-136104285D01*
X227305952Y-136056666D01*
X227448810Y-136056666D01*
X227639286Y-136104285D01*
X227734524Y-136151904D01*
X227829762Y-136247142D01*
X227877381Y-136390000D01*
X227877381Y-136628095D01*
X227210714Y-135199523D02*
X227877381Y-135199523D01*
X226829762Y-135437619D02*
X227544048Y-135675714D01*
X227544048Y-135056666D01*
X203731905Y-138862381D02*
X203731905Y-137862381D01*
X204112858Y-137862381D01*
X204208096Y-137910000D01*
X204255715Y-137957619D01*
X204303334Y-138052857D01*
X204303334Y-138195714D01*
X204255715Y-138290952D01*
X204208096Y-138338571D01*
X204112858Y-138386190D01*
X203731905Y-138386190D01*
X205255715Y-138862381D02*
X204684286Y-138862381D01*
X204970000Y-138862381D02*
X204970000Y-137862381D01*
X204874762Y-138005238D01*
X204779524Y-138100476D01*
X204684286Y-138148095D01*
X224802381Y-155106666D02*
X224326190Y-155440000D01*
X224802381Y-155678095D02*
X223802381Y-155678095D01*
X223802381Y-155297142D01*
X223850000Y-155201904D01*
X223897619Y-155154285D01*
X223992857Y-155106666D01*
X224135714Y-155106666D01*
X224230952Y-155154285D01*
X224278571Y-155201904D01*
X224326190Y-155297142D01*
X224326190Y-155678095D01*
X224802381Y-154154285D02*
X224802381Y-154725714D01*
X224802381Y-154440000D02*
X223802381Y-154440000D01*
X223945238Y-154535238D01*
X224040476Y-154630476D01*
X224088095Y-154725714D01*
X227342381Y-155106666D02*
X226866190Y-155440000D01*
X227342381Y-155678095D02*
X226342381Y-155678095D01*
X226342381Y-155297142D01*
X226390000Y-155201904D01*
X226437619Y-155154285D01*
X226532857Y-155106666D01*
X226675714Y-155106666D01*
X226770952Y-155154285D01*
X226818571Y-155201904D01*
X226866190Y-155297142D01*
X226866190Y-155678095D01*
X226437619Y-154725714D02*
X226390000Y-154678095D01*
X226342381Y-154582857D01*
X226342381Y-154344761D01*
X226390000Y-154249523D01*
X226437619Y-154201904D01*
X226532857Y-154154285D01*
X226628095Y-154154285D01*
X226770952Y-154201904D01*
X227342381Y-154773333D01*
X227342381Y-154154285D01*
X240042381Y-155106666D02*
X239566190Y-155440000D01*
X240042381Y-155678095D02*
X239042381Y-155678095D01*
X239042381Y-155297142D01*
X239090000Y-155201904D01*
X239137619Y-155154285D01*
X239232857Y-155106666D01*
X239375714Y-155106666D01*
X239470952Y-155154285D01*
X239518571Y-155201904D01*
X239566190Y-155297142D01*
X239566190Y-155678095D01*
X239042381Y-154773333D02*
X239042381Y-154154285D01*
X239423333Y-154487619D01*
X239423333Y-154344761D01*
X239470952Y-154249523D01*
X239518571Y-154201904D01*
X239613810Y-154154285D01*
X239851905Y-154154285D01*
X239947143Y-154201904D01*
X239994762Y-154249523D01*
X240042381Y-154344761D01*
X240042381Y-154630476D01*
X239994762Y-154725714D01*
X239947143Y-154773333D01*
X242582381Y-155106666D02*
X242106190Y-155440000D01*
X242582381Y-155678095D02*
X241582381Y-155678095D01*
X241582381Y-155297142D01*
X241630000Y-155201904D01*
X241677619Y-155154285D01*
X241772857Y-155106666D01*
X241915714Y-155106666D01*
X242010952Y-155154285D01*
X242058571Y-155201904D01*
X242106190Y-155297142D01*
X242106190Y-155678095D01*
X241915714Y-154249523D02*
X242582381Y-154249523D01*
X241534762Y-154487619D02*
X242249048Y-154725714D01*
X242249048Y-154106666D01*
X213193334Y-141862381D02*
X212860000Y-141386190D01*
X212621905Y-141862381D02*
X212621905Y-140862381D01*
X213002858Y-140862381D01*
X213098096Y-140910000D01*
X213145715Y-140957619D01*
X213193334Y-141052857D01*
X213193334Y-141195714D01*
X213145715Y-141290952D01*
X213098096Y-141338571D01*
X213002858Y-141386190D01*
X212621905Y-141386190D01*
X214098096Y-140862381D02*
X213621905Y-140862381D01*
X213574286Y-141338571D01*
X213621905Y-141290952D01*
X213717143Y-141243333D01*
X213955239Y-141243333D01*
X214050477Y-141290952D01*
X214098096Y-141338571D01*
X214145715Y-141433810D01*
X214145715Y-141671905D01*
X214098096Y-141767143D01*
X214050477Y-141814762D01*
X213955239Y-141862381D01*
X213717143Y-141862381D01*
X213621905Y-141814762D01*
X213574286Y-141767143D01*
X213193334Y-143522381D02*
X212860000Y-143046190D01*
X212621905Y-143522381D02*
X212621905Y-142522381D01*
X213002858Y-142522381D01*
X213098096Y-142570000D01*
X213145715Y-142617619D01*
X213193334Y-142712857D01*
X213193334Y-142855714D01*
X213145715Y-142950952D01*
X213098096Y-142998571D01*
X213002858Y-143046190D01*
X212621905Y-143046190D01*
X214050477Y-142522381D02*
X213860000Y-142522381D01*
X213764762Y-142570000D01*
X213717143Y-142617619D01*
X213621905Y-142760476D01*
X213574286Y-142950952D01*
X213574286Y-143331905D01*
X213621905Y-143427143D01*
X213669524Y-143474762D01*
X213764762Y-143522381D01*
X213955239Y-143522381D01*
X214050477Y-143474762D01*
X214098096Y-143427143D01*
X214145715Y-143331905D01*
X214145715Y-143093810D01*
X214098096Y-142998571D01*
X214050477Y-142950952D01*
X213955239Y-142903333D01*
X213764762Y-142903333D01*
X213669524Y-142950952D01*
X213621905Y-142998571D01*
X213574286Y-143093810D01*
X245122381Y-155106666D02*
X244646190Y-155440000D01*
X245122381Y-155678095D02*
X244122381Y-155678095D01*
X244122381Y-155297142D01*
X244170000Y-155201904D01*
X244217619Y-155154285D01*
X244312857Y-155106666D01*
X244455714Y-155106666D01*
X244550952Y-155154285D01*
X244598571Y-155201904D01*
X244646190Y-155297142D01*
X244646190Y-155678095D01*
X244122381Y-154773333D02*
X244122381Y-154106666D01*
X245122381Y-154535238D01*
X213193334Y-140982381D02*
X212860000Y-140506190D01*
X212621905Y-140982381D02*
X212621905Y-139982381D01*
X213002858Y-139982381D01*
X213098096Y-140030000D01*
X213145715Y-140077619D01*
X213193334Y-140172857D01*
X213193334Y-140315714D01*
X213145715Y-140410952D01*
X213098096Y-140458571D01*
X213002858Y-140506190D01*
X212621905Y-140506190D01*
X213764762Y-140410952D02*
X213669524Y-140363333D01*
X213621905Y-140315714D01*
X213574286Y-140220476D01*
X213574286Y-140172857D01*
X213621905Y-140077619D01*
X213669524Y-140030000D01*
X213764762Y-139982381D01*
X213955239Y-139982381D01*
X214050477Y-140030000D01*
X214098096Y-140077619D01*
X214145715Y-140172857D01*
X214145715Y-140220476D01*
X214098096Y-140315714D01*
X214050477Y-140363333D01*
X213955239Y-140410952D01*
X213764762Y-140410952D01*
X213669524Y-140458571D01*
X213621905Y-140506190D01*
X213574286Y-140601429D01*
X213574286Y-140791905D01*
X213621905Y-140887143D01*
X213669524Y-140934762D01*
X213764762Y-140982381D01*
X213955239Y-140982381D01*
X214050477Y-140934762D01*
X214098096Y-140887143D01*
X214145715Y-140791905D01*
X214145715Y-140601429D01*
X214098096Y-140506190D01*
X214050477Y-140458571D01*
X213955239Y-140410952D01*
X237502381Y-155106666D02*
X237026190Y-155440000D01*
X237502381Y-155678095D02*
X236502381Y-155678095D01*
X236502381Y-155297142D01*
X236550000Y-155201904D01*
X236597619Y-155154285D01*
X236692857Y-155106666D01*
X236835714Y-155106666D01*
X236930952Y-155154285D01*
X236978571Y-155201904D01*
X237026190Y-155297142D01*
X237026190Y-155678095D01*
X237502381Y-154630476D02*
X237502381Y-154440000D01*
X237454762Y-154344761D01*
X237407143Y-154297142D01*
X237264286Y-154201904D01*
X237073810Y-154154285D01*
X236692857Y-154154285D01*
X236597619Y-154201904D01*
X236550000Y-154249523D01*
X236502381Y-154344761D01*
X236502381Y-154535238D01*
X236550000Y-154630476D01*
X236597619Y-154678095D01*
X236692857Y-154725714D01*
X236930952Y-154725714D01*
X237026190Y-154678095D01*
X237073810Y-154630476D01*
X237121429Y-154535238D01*
X237121429Y-154344761D01*
X237073810Y-154249523D01*
X237026190Y-154201904D01*
X236930952Y-154154285D01*
X229882381Y-155582857D02*
X229406190Y-155916191D01*
X229882381Y-156154286D02*
X228882381Y-156154286D01*
X228882381Y-155773333D01*
X228930000Y-155678095D01*
X228977619Y-155630476D01*
X229072857Y-155582857D01*
X229215714Y-155582857D01*
X229310952Y-155630476D01*
X229358571Y-155678095D01*
X229406190Y-155773333D01*
X229406190Y-156154286D01*
X229882381Y-154630476D02*
X229882381Y-155201905D01*
X229882381Y-154916191D02*
X228882381Y-154916191D01*
X229025238Y-155011429D01*
X229120476Y-155106667D01*
X229168095Y-155201905D01*
X228882381Y-154011429D02*
X228882381Y-153916190D01*
X228930000Y-153820952D01*
X228977619Y-153773333D01*
X229072857Y-153725714D01*
X229263333Y-153678095D01*
X229501429Y-153678095D01*
X229691905Y-153725714D01*
X229787143Y-153773333D01*
X229834762Y-153820952D01*
X229882381Y-153916190D01*
X229882381Y-154011429D01*
X229834762Y-154106667D01*
X229787143Y-154154286D01*
X229691905Y-154201905D01*
X229501429Y-154249524D01*
X229263333Y-154249524D01*
X229072857Y-154201905D01*
X228977619Y-154154286D01*
X228930000Y-154106667D01*
X228882381Y-154011429D01*
X222262381Y-155582857D02*
X221786190Y-155916191D01*
X222262381Y-156154286D02*
X221262381Y-156154286D01*
X221262381Y-155773333D01*
X221310000Y-155678095D01*
X221357619Y-155630476D01*
X221452857Y-155582857D01*
X221595714Y-155582857D01*
X221690952Y-155630476D01*
X221738571Y-155678095D01*
X221786190Y-155773333D01*
X221786190Y-156154286D01*
X222262381Y-154630476D02*
X222262381Y-155201905D01*
X222262381Y-154916191D02*
X221262381Y-154916191D01*
X221405238Y-155011429D01*
X221500476Y-155106667D01*
X221548095Y-155201905D01*
X222262381Y-153678095D02*
X222262381Y-154249524D01*
X222262381Y-153963810D02*
X221262381Y-153963810D01*
X221405238Y-154059048D01*
X221500476Y-154154286D01*
X221548095Y-154249524D01*
X212717143Y-129797381D02*
X212383809Y-129321190D01*
X212145714Y-129797381D02*
X212145714Y-128797381D01*
X212526667Y-128797381D01*
X212621905Y-128845000D01*
X212669524Y-128892619D01*
X212717143Y-128987857D01*
X212717143Y-129130714D01*
X212669524Y-129225952D01*
X212621905Y-129273571D01*
X212526667Y-129321190D01*
X212145714Y-129321190D01*
X213669524Y-129797381D02*
X213098095Y-129797381D01*
X213383809Y-129797381D02*
X213383809Y-128797381D01*
X213288571Y-128940238D01*
X213193333Y-129035476D01*
X213098095Y-129083095D01*
X214050476Y-128892619D02*
X214098095Y-128845000D01*
X214193333Y-128797381D01*
X214431429Y-128797381D01*
X214526667Y-128845000D01*
X214574286Y-128892619D01*
X214621905Y-128987857D01*
X214621905Y-129083095D01*
X214574286Y-129225952D01*
X214002857Y-129797381D01*
X214621905Y-129797381D01*
X212717143Y-137172381D02*
X212383809Y-136696190D01*
X212145714Y-137172381D02*
X212145714Y-136172381D01*
X212526667Y-136172381D01*
X212621905Y-136220000D01*
X212669524Y-136267619D01*
X212717143Y-136362857D01*
X212717143Y-136505714D01*
X212669524Y-136600952D01*
X212621905Y-136648571D01*
X212526667Y-136696190D01*
X212145714Y-136696190D01*
X213669524Y-137172381D02*
X213098095Y-137172381D01*
X213383809Y-137172381D02*
X213383809Y-136172381D01*
X213288571Y-136315238D01*
X213193333Y-136410476D01*
X213098095Y-136458095D01*
X214002857Y-136172381D02*
X214621905Y-136172381D01*
X214288571Y-136553333D01*
X214431429Y-136553333D01*
X214526667Y-136600952D01*
X214574286Y-136648571D01*
X214621905Y-136743810D01*
X214621905Y-136981905D01*
X214574286Y-137077143D01*
X214526667Y-137124762D01*
X214431429Y-137172381D01*
X214145714Y-137172381D01*
X214050476Y-137124762D01*
X214002857Y-137077143D01*
X212717143Y-148602381D02*
X212383809Y-148126190D01*
X212145714Y-148602381D02*
X212145714Y-147602381D01*
X212526667Y-147602381D01*
X212621905Y-147650000D01*
X212669524Y-147697619D01*
X212717143Y-147792857D01*
X212717143Y-147935714D01*
X212669524Y-148030952D01*
X212621905Y-148078571D01*
X212526667Y-148126190D01*
X212145714Y-148126190D01*
X213669524Y-148602381D02*
X213098095Y-148602381D01*
X213383809Y-148602381D02*
X213383809Y-147602381D01*
X213288571Y-147745238D01*
X213193333Y-147840476D01*
X213098095Y-147888095D01*
X214574286Y-147602381D02*
X214098095Y-147602381D01*
X214050476Y-148078571D01*
X214098095Y-148030952D01*
X214193333Y-147983333D01*
X214431429Y-147983333D01*
X214526667Y-148030952D01*
X214574286Y-148078571D01*
X214621905Y-148173810D01*
X214621905Y-148411905D01*
X214574286Y-148507143D01*
X214526667Y-148554762D01*
X214431429Y-148602381D01*
X214193333Y-148602381D01*
X214098095Y-148554762D01*
X214050476Y-148507143D01*
X221511905Y-159182381D02*
X221511905Y-158182381D01*
X222083334Y-159182381D02*
X221654762Y-158610952D01*
X222083334Y-158182381D02*
X221511905Y-158753810D01*
X223035715Y-159182381D02*
X222464286Y-159182381D01*
X222750000Y-159182381D02*
X222750000Y-158182381D01*
X222654762Y-158325238D01*
X222559524Y-158420476D01*
X222464286Y-158468095D01*
X236751905Y-159182381D02*
X236751905Y-158182381D01*
X237323334Y-159182381D02*
X236894762Y-158610952D01*
X237323334Y-158182381D02*
X236751905Y-158753810D01*
X237704286Y-158277619D02*
X237751905Y-158230000D01*
X237847143Y-158182381D01*
X238085239Y-158182381D01*
X238180477Y-158230000D01*
X238228096Y-158277619D01*
X238275715Y-158372857D01*
X238275715Y-158468095D01*
X238228096Y-158610952D01*
X237656667Y-159182381D01*
X238275715Y-159182381D01*
X204942381Y-117578095D02*
X203942381Y-117578095D01*
X204942381Y-117006666D02*
X204370952Y-117435238D01*
X203942381Y-117006666D02*
X204513810Y-117578095D01*
X203942381Y-116673333D02*
X203942381Y-116054285D01*
X204323333Y-116387619D01*
X204323333Y-116244761D01*
X204370952Y-116149523D01*
X204418571Y-116101904D01*
X204513810Y-116054285D01*
X204751905Y-116054285D01*
X204847143Y-116101904D01*
X204894762Y-116149523D01*
X204942381Y-116244761D01*
X204942381Y-116530476D01*
X204894762Y-116625714D01*
X204847143Y-116673333D01*
X253202381Y-104878095D02*
X252202381Y-104878095D01*
X253202381Y-104306666D02*
X252630952Y-104735238D01*
X252202381Y-104306666D02*
X252773810Y-104878095D01*
X252535714Y-103449523D02*
X253202381Y-103449523D01*
X252154762Y-103687619D02*
X252869048Y-103925714D01*
X252869048Y-103306666D01*
D14*
X225334286Y-144453429D02*
X225334286Y-142929429D01*
X225842286Y-144018000D01*
X226350286Y-142929429D01*
X226350286Y-144453429D01*
X227874286Y-144453429D02*
X227003429Y-144453429D01*
X227438857Y-144453429D02*
X227438857Y-142929429D01*
X227293714Y-143147143D01*
X227148572Y-143292286D01*
X227003429Y-143364857D01*
X221596858Y-146558000D02*
X222322572Y-146558000D01*
X221451715Y-146993429D02*
X221959715Y-145469429D01*
X222467715Y-146993429D01*
X222975715Y-146993429D02*
X222975715Y-145977429D01*
X222975715Y-146267714D02*
X223048287Y-146122571D01*
X223120858Y-146050000D01*
X223266001Y-145977429D01*
X223411144Y-145977429D01*
X224572287Y-146993429D02*
X224572287Y-145469429D01*
X224572287Y-146920857D02*
X224427144Y-146993429D01*
X224136858Y-146993429D01*
X223991716Y-146920857D01*
X223919144Y-146848286D01*
X223846573Y-146703143D01*
X223846573Y-146267714D01*
X223919144Y-146122571D01*
X223991716Y-146050000D01*
X224136858Y-145977429D01*
X224427144Y-145977429D01*
X224572287Y-146050000D01*
X225951144Y-145977429D02*
X225951144Y-146993429D01*
X225298001Y-145977429D02*
X225298001Y-146775714D01*
X225370573Y-146920857D01*
X225515715Y-146993429D01*
X225733430Y-146993429D01*
X225878573Y-146920857D01*
X225951144Y-146848286D01*
X226676858Y-146993429D02*
X226676858Y-145977429D01*
X226676858Y-145469429D02*
X226604287Y-145542000D01*
X226676858Y-145614571D01*
X226749430Y-145542000D01*
X226676858Y-145469429D01*
X226676858Y-145614571D01*
X227402572Y-145977429D02*
X227402572Y-146993429D01*
X227402572Y-146122571D02*
X227475144Y-146050000D01*
X227620286Y-145977429D01*
X227838001Y-145977429D01*
X227983144Y-146050000D01*
X228055715Y-146195143D01*
X228055715Y-146993429D01*
X228999143Y-146993429D02*
X228854001Y-146920857D01*
X228781429Y-146848286D01*
X228708858Y-146703143D01*
X228708858Y-146267714D01*
X228781429Y-146122571D01*
X228854001Y-146050000D01*
X228999143Y-145977429D01*
X229216858Y-145977429D01*
X229362001Y-146050000D01*
X229434572Y-146122571D01*
X229507143Y-146267714D01*
X229507143Y-146703143D01*
X229434572Y-146848286D01*
X229362001Y-146920857D01*
X229216858Y-146993429D01*
X228999143Y-146993429D01*
D10*
X198651905Y-98857381D02*
X198651905Y-97857381D01*
X199032858Y-97857381D01*
X199128096Y-97905000D01*
X199175715Y-97952619D01*
X199223334Y-98047857D01*
X199223334Y-98190714D01*
X199175715Y-98285952D01*
X199128096Y-98333571D01*
X199032858Y-98381190D01*
X198651905Y-98381190D01*
X200080477Y-98190714D02*
X200080477Y-98857381D01*
X199842381Y-97809762D02*
X199604286Y-98524048D01*
X200223334Y-98524048D01*
X198651905Y-102667381D02*
X198651905Y-101667381D01*
X199032858Y-101667381D01*
X199128096Y-101715000D01*
X199175715Y-101762619D01*
X199223334Y-101857857D01*
X199223334Y-102000714D01*
X199175715Y-102095952D01*
X199128096Y-102143571D01*
X199032858Y-102191190D01*
X198651905Y-102191190D01*
X200128096Y-101667381D02*
X199651905Y-101667381D01*
X199604286Y-102143571D01*
X199651905Y-102095952D01*
X199747143Y-102048333D01*
X199985239Y-102048333D01*
X200080477Y-102095952D01*
X200128096Y-102143571D01*
X200175715Y-102238810D01*
X200175715Y-102476905D01*
X200128096Y-102572143D01*
X200080477Y-102619762D01*
X199985239Y-102667381D01*
X199747143Y-102667381D01*
X199651905Y-102619762D01*
X199604286Y-102572143D01*
X217066905Y-138862381D02*
X217066905Y-137862381D01*
X217447858Y-137862381D01*
X217543096Y-137910000D01*
X217590715Y-137957619D01*
X217638334Y-138052857D01*
X217638334Y-138195714D01*
X217590715Y-138290952D01*
X217543096Y-138338571D01*
X217447858Y-138386190D01*
X217066905Y-138386190D01*
X218019286Y-137957619D02*
X218066905Y-137910000D01*
X218162143Y-137862381D01*
X218400239Y-137862381D01*
X218495477Y-137910000D01*
X218543096Y-137957619D01*
X218590715Y-138052857D01*
X218590715Y-138148095D01*
X218543096Y-138290952D01*
X217971667Y-138862381D01*
X218590715Y-138862381D01*
X208712381Y-164568095D02*
X207712381Y-164568095D01*
X207712381Y-164187142D01*
X207760000Y-164091904D01*
X207807619Y-164044285D01*
X207902857Y-163996666D01*
X208045714Y-163996666D01*
X208140952Y-164044285D01*
X208188571Y-164091904D01*
X208236190Y-164187142D01*
X208236190Y-164568095D01*
X207712381Y-163139523D02*
X207712381Y-163330000D01*
X207760000Y-163425238D01*
X207807619Y-163472857D01*
X207950476Y-163568095D01*
X208140952Y-163615714D01*
X208521905Y-163615714D01*
X208617143Y-163568095D01*
X208664762Y-163520476D01*
X208712381Y-163425238D01*
X208712381Y-163234761D01*
X208664762Y-163139523D01*
X208617143Y-163091904D01*
X208521905Y-163044285D01*
X208283810Y-163044285D01*
X208188571Y-163091904D01*
X208140952Y-163139523D01*
X208093333Y-163234761D01*
X208093333Y-163425238D01*
X208140952Y-163520476D01*
X208188571Y-163568095D01*
X208283810Y-163615714D01*
X245435381Y-110910666D02*
X245435381Y-111386857D01*
X244435381Y-111386857D01*
X245435381Y-110053523D02*
X245435381Y-110624952D01*
X245435381Y-110339238D02*
X244435381Y-110339238D01*
X244578238Y-110434476D01*
X244673476Y-110529714D01*
X244721095Y-110624952D01*
X236926381Y-111037666D02*
X236926381Y-111513857D01*
X235926381Y-111513857D01*
X236021619Y-110751952D02*
X235974000Y-110704333D01*
X235926381Y-110609095D01*
X235926381Y-110370999D01*
X235974000Y-110275761D01*
X236021619Y-110228142D01*
X236116857Y-110180523D01*
X236212095Y-110180523D01*
X236354952Y-110228142D01*
X236926381Y-110799571D01*
X236926381Y-110180523D01*
X242582381Y-115704857D02*
X242106190Y-116038191D01*
X242582381Y-116276286D02*
X241582381Y-116276286D01*
X241582381Y-115895333D01*
X241630000Y-115800095D01*
X241677619Y-115752476D01*
X241772857Y-115704857D01*
X241915714Y-115704857D01*
X242010952Y-115752476D01*
X242058571Y-115800095D01*
X242106190Y-115895333D01*
X242106190Y-116276286D01*
X242582381Y-114752476D02*
X242582381Y-115323905D01*
X242582381Y-115038191D02*
X241582381Y-115038191D01*
X241725238Y-115133429D01*
X241820476Y-115228667D01*
X241868095Y-115323905D01*
X241915714Y-113895333D02*
X242582381Y-113895333D01*
X241534762Y-114133429D02*
X242249048Y-114371524D01*
X242249048Y-113752476D01*
X228349381Y-115831857D02*
X227873190Y-116165191D01*
X228349381Y-116403286D02*
X227349381Y-116403286D01*
X227349381Y-116022333D01*
X227397000Y-115927095D01*
X227444619Y-115879476D01*
X227539857Y-115831857D01*
X227682714Y-115831857D01*
X227777952Y-115879476D01*
X227825571Y-115927095D01*
X227873190Y-116022333D01*
X227873190Y-116403286D01*
X228349381Y-114879476D02*
X228349381Y-115450905D01*
X228349381Y-115165191D02*
X227349381Y-115165191D01*
X227492238Y-115260429D01*
X227587476Y-115355667D01*
X227635095Y-115450905D01*
X227349381Y-114022333D02*
X227349381Y-114212810D01*
X227397000Y-114308048D01*
X227444619Y-114355667D01*
X227587476Y-114450905D01*
X227777952Y-114498524D01*
X228158905Y-114498524D01*
X228254143Y-114450905D01*
X228301762Y-114403286D01*
X228349381Y-114308048D01*
X228349381Y-114117571D01*
X228301762Y-114022333D01*
X228254143Y-113974714D01*
X228158905Y-113927095D01*
X227920810Y-113927095D01*
X227825571Y-113974714D01*
X227777952Y-114022333D01*
X227730333Y-114117571D01*
X227730333Y-114308048D01*
X227777952Y-114403286D01*
X227825571Y-114450905D01*
X227920810Y-114498524D01*
X240042381Y-115704857D02*
X239566190Y-116038191D01*
X240042381Y-116276286D02*
X239042381Y-116276286D01*
X239042381Y-115895333D01*
X239090000Y-115800095D01*
X239137619Y-115752476D01*
X239232857Y-115704857D01*
X239375714Y-115704857D01*
X239470952Y-115752476D01*
X239518571Y-115800095D01*
X239566190Y-115895333D01*
X239566190Y-116276286D01*
X240042381Y-114752476D02*
X240042381Y-115323905D01*
X240042381Y-115038191D02*
X239042381Y-115038191D01*
X239185238Y-115133429D01*
X239280476Y-115228667D01*
X239328095Y-115323905D01*
X239042381Y-114419143D02*
X239042381Y-113752476D01*
X240042381Y-114181048D01*
X228095381Y-124721857D02*
X227619190Y-125055191D01*
X228095381Y-125293286D02*
X227095381Y-125293286D01*
X227095381Y-124912333D01*
X227143000Y-124817095D01*
X227190619Y-124769476D01*
X227285857Y-124721857D01*
X227428714Y-124721857D01*
X227523952Y-124769476D01*
X227571571Y-124817095D01*
X227619190Y-124912333D01*
X227619190Y-125293286D01*
X228095381Y-123769476D02*
X228095381Y-124340905D01*
X228095381Y-124055191D02*
X227095381Y-124055191D01*
X227238238Y-124150429D01*
X227333476Y-124245667D01*
X227381095Y-124340905D01*
X227523952Y-123198048D02*
X227476333Y-123293286D01*
X227428714Y-123340905D01*
X227333476Y-123388524D01*
X227285857Y-123388524D01*
X227190619Y-123340905D01*
X227143000Y-123293286D01*
X227095381Y-123198048D01*
X227095381Y-123007571D01*
X227143000Y-122912333D01*
X227190619Y-122864714D01*
X227285857Y-122817095D01*
X227333476Y-122817095D01*
X227428714Y-122864714D01*
X227476333Y-122912333D01*
X227523952Y-123007571D01*
X227523952Y-123198048D01*
X227571571Y-123293286D01*
X227619190Y-123340905D01*
X227714429Y-123388524D01*
X227904905Y-123388524D01*
X228000143Y-123340905D01*
X228047762Y-123293286D01*
X228095381Y-123198048D01*
X228095381Y-123007571D01*
X228047762Y-122912333D01*
X228000143Y-122864714D01*
X227904905Y-122817095D01*
X227714429Y-122817095D01*
X227619190Y-122864714D01*
X227571571Y-122912333D01*
X227523952Y-123007571D01*
X237871095Y-117502381D02*
X237871095Y-118311905D01*
X237918714Y-118407143D01*
X237966333Y-118454762D01*
X238061571Y-118502381D01*
X238252048Y-118502381D01*
X238347286Y-118454762D01*
X238394905Y-118407143D01*
X238442524Y-118311905D01*
X238442524Y-117502381D01*
X239442524Y-118502381D02*
X238871095Y-118502381D01*
X239156809Y-118502381D02*
X239156809Y-117502381D01*
X239061571Y-117645238D01*
X238966333Y-117740476D01*
X238871095Y-117788095D01*
X207518095Y-124765381D02*
X207518095Y-125574905D01*
X207565714Y-125670143D01*
X207613333Y-125717762D01*
X207708571Y-125765381D01*
X207899048Y-125765381D01*
X207994286Y-125717762D01*
X208041905Y-125670143D01*
X208089524Y-125574905D01*
X208089524Y-124765381D01*
X208518095Y-124860619D02*
X208565714Y-124813000D01*
X208660952Y-124765381D01*
X208899048Y-124765381D01*
X208994286Y-124813000D01*
X209041905Y-124860619D01*
X209089524Y-124955857D01*
X209089524Y-125051095D01*
X209041905Y-125193952D01*
X208470476Y-125765381D01*
X209089524Y-125765381D01*
X197802667Y-109982261D02*
X197469333Y-109506070D01*
X197231238Y-109982261D02*
X197231238Y-108982261D01*
X197612191Y-108982261D01*
X197707429Y-109029880D01*
X197755048Y-109077499D01*
X197802667Y-109172737D01*
X197802667Y-109315594D01*
X197755048Y-109410832D01*
X197707429Y-109458451D01*
X197612191Y-109506070D01*
X197231238Y-109506070D01*
X198231238Y-109458451D02*
X198564572Y-109458451D01*
X198707429Y-109982261D02*
X198231238Y-109982261D01*
X198231238Y-108982261D01*
X198707429Y-108982261D01*
X199469334Y-109458451D02*
X199136000Y-109458451D01*
X199136000Y-109982261D02*
X199136000Y-108982261D01*
X199612191Y-108982261D01*
X200136000Y-108982261D02*
X200136000Y-109220356D01*
X199897905Y-109125118D02*
X200136000Y-109220356D01*
X200374096Y-109125118D01*
X199993143Y-109410832D02*
X200136000Y-109220356D01*
X200278858Y-109410832D01*
X200897905Y-108982261D02*
X200897905Y-109220356D01*
X200659810Y-109125118D02*
X200897905Y-109220356D01*
X201136001Y-109125118D01*
X200755048Y-109410832D02*
X200897905Y-109220356D01*
X201040763Y-109410832D01*
X202882667Y-162052261D02*
X202549333Y-161576070D01*
X202311238Y-162052261D02*
X202311238Y-161052261D01*
X202692191Y-161052261D01*
X202787429Y-161099880D01*
X202835048Y-161147499D01*
X202882667Y-161242737D01*
X202882667Y-161385594D01*
X202835048Y-161480832D01*
X202787429Y-161528451D01*
X202692191Y-161576070D01*
X202311238Y-161576070D01*
X203311238Y-161528451D02*
X203644572Y-161528451D01*
X203787429Y-162052261D02*
X203311238Y-162052261D01*
X203311238Y-161052261D01*
X203787429Y-161052261D01*
X204549334Y-161528451D02*
X204216000Y-161528451D01*
X204216000Y-162052261D02*
X204216000Y-161052261D01*
X204692191Y-161052261D01*
X205216000Y-161052261D02*
X205216000Y-161290356D01*
X204977905Y-161195118D02*
X205216000Y-161290356D01*
X205454096Y-161195118D01*
X205073143Y-161480832D02*
X205216000Y-161290356D01*
X205358858Y-161480832D01*
X205977905Y-161052261D02*
X205977905Y-161290356D01*
X205739810Y-161195118D02*
X205977905Y-161290356D01*
X206216001Y-161195118D01*
X205835048Y-161480832D02*
X205977905Y-161290356D01*
X206120763Y-161480832D01*
X230822667Y-162052261D02*
X230489333Y-161576070D01*
X230251238Y-162052261D02*
X230251238Y-161052261D01*
X230632191Y-161052261D01*
X230727429Y-161099880D01*
X230775048Y-161147499D01*
X230822667Y-161242737D01*
X230822667Y-161385594D01*
X230775048Y-161480832D01*
X230727429Y-161528451D01*
X230632191Y-161576070D01*
X230251238Y-161576070D01*
X231251238Y-161528451D02*
X231584572Y-161528451D01*
X231727429Y-162052261D02*
X231251238Y-162052261D01*
X231251238Y-161052261D01*
X231727429Y-161052261D01*
X232489334Y-161528451D02*
X232156000Y-161528451D01*
X232156000Y-162052261D02*
X232156000Y-161052261D01*
X232632191Y-161052261D01*
X233156000Y-161052261D02*
X233156000Y-161290356D01*
X232917905Y-161195118D02*
X233156000Y-161290356D01*
X233394096Y-161195118D01*
X233013143Y-161480832D02*
X233156000Y-161290356D01*
X233298858Y-161480832D01*
X233917905Y-161052261D02*
X233917905Y-161290356D01*
X233679810Y-161195118D02*
X233917905Y-161290356D01*
X234156001Y-161195118D01*
X233775048Y-161480832D02*
X233917905Y-161290356D01*
X234060763Y-161480832D01*
X246062667Y-111252261D02*
X245729333Y-110776070D01*
X245491238Y-111252261D02*
X245491238Y-110252261D01*
X245872191Y-110252261D01*
X245967429Y-110299880D01*
X246015048Y-110347499D01*
X246062667Y-110442737D01*
X246062667Y-110585594D01*
X246015048Y-110680832D01*
X245967429Y-110728451D01*
X245872191Y-110776070D01*
X245491238Y-110776070D01*
X246491238Y-110728451D02*
X246824572Y-110728451D01*
X246967429Y-111252261D02*
X246491238Y-111252261D01*
X246491238Y-110252261D01*
X246967429Y-110252261D01*
X247729334Y-110728451D02*
X247396000Y-110728451D01*
X247396000Y-111252261D02*
X247396000Y-110252261D01*
X247872191Y-110252261D01*
X248396000Y-110252261D02*
X248396000Y-110490356D01*
X248157905Y-110395118D02*
X248396000Y-110490356D01*
X248634096Y-110395118D01*
X248253143Y-110680832D02*
X248396000Y-110490356D01*
X248538858Y-110680832D01*
X249157905Y-110252261D02*
X249157905Y-110490356D01*
X248919810Y-110395118D02*
X249157905Y-110490356D01*
X249396001Y-110395118D01*
X249015048Y-110680832D02*
X249157905Y-110490356D01*
X249300763Y-110680832D01*
M02*
