G04 #@! TF.FileFunction,Copper,L2,Bot,Signal*
%FSLAX46Y46*%
G04 Gerber Fmt 4.6, Leading zero omitted, Abs format (unit mm)*
G04 Created by KiCad (PCBNEW (2015-07-15 BZR 5948)-product) date Tue 15 Sep 2015 04:10:27 BST*
%MOMM*%
G01*
G04 APERTURE LIST*
%ADD10C,0.150000*%
%ADD11C,0.300000*%
%ADD12C,0.400000*%
%ADD13R,2.235200X2.235200*%
%ADD14R,1.727200X2.032000*%
%ADD15O,1.727200X2.032000*%
%ADD16R,2.032000X1.727200*%
%ADD17O,2.032000X1.727200*%
%ADD18C,1.524000*%
%ADD19R,1.727200X1.727200*%
%ADD20O,1.727200X1.727200*%
%ADD21C,0.508000*%
%ADD22C,0.254000*%
G04 APERTURE END LIST*
D10*
X299989000Y-253002200D02*
X299989000Y-285002200D01*
X407989000Y-285002200D01*
X407989000Y-253002200D01*
X299989000Y-253002200D01*
X10000000Y-10000000D02*
X10000000Y-287002200D01*
X409989000Y-287002200D01*
X409989000Y-10000000D01*
X10000000Y-10000000D01*
X12000000Y-12000000D02*
X12000000Y-285002200D01*
X407989000Y-285002200D01*
X407989000Y-12000000D01*
X12000000Y-12000000D01*
X60000000Y-12000000D02*
X60000000Y-10000000D01*
X110000000Y-12000000D02*
X110000000Y-10000000D01*
X160000000Y-12000000D02*
X160000000Y-10000000D01*
X210000000Y-12000000D02*
X210000000Y-10000000D01*
X260000000Y-12000000D02*
X260000000Y-10000000D01*
X310000000Y-12000000D02*
X310000000Y-10000000D01*
X360000000Y-12000000D02*
X360000000Y-10000000D01*
X35990476Y-11588095D02*
X35247619Y-11588095D01*
X35619048Y-11588095D02*
X35619048Y-10288095D01*
X35495238Y-10473810D01*
X35371429Y-10597619D01*
X35247619Y-10659524D01*
X85247619Y-10411905D02*
X85309524Y-10350000D01*
X85433333Y-10288095D01*
X85742857Y-10288095D01*
X85866667Y-10350000D01*
X85928571Y-10411905D01*
X85990476Y-10535714D01*
X85990476Y-10659524D01*
X85928571Y-10845238D01*
X85185714Y-11588095D01*
X85990476Y-11588095D01*
X135185714Y-10288095D02*
X135990476Y-10288095D01*
X135557143Y-10783333D01*
X135742857Y-10783333D01*
X135866667Y-10845238D01*
X135928571Y-10907143D01*
X135990476Y-11030952D01*
X135990476Y-11340476D01*
X135928571Y-11464286D01*
X135866667Y-11526190D01*
X135742857Y-11588095D01*
X135371429Y-11588095D01*
X135247619Y-11526190D01*
X135185714Y-11464286D01*
X185866667Y-10721429D02*
X185866667Y-11588095D01*
X185557143Y-10226190D02*
X185247619Y-11154762D01*
X186052381Y-11154762D01*
X235928571Y-10288095D02*
X235309524Y-10288095D01*
X235247619Y-10907143D01*
X235309524Y-10845238D01*
X235433333Y-10783333D01*
X235742857Y-10783333D01*
X235866667Y-10845238D01*
X235928571Y-10907143D01*
X235990476Y-11030952D01*
X235990476Y-11340476D01*
X235928571Y-11464286D01*
X235866667Y-11526190D01*
X235742857Y-11588095D01*
X235433333Y-11588095D01*
X235309524Y-11526190D01*
X235247619Y-11464286D01*
X285866667Y-10288095D02*
X285619048Y-10288095D01*
X285495238Y-10350000D01*
X285433333Y-10411905D01*
X285309524Y-10597619D01*
X285247619Y-10845238D01*
X285247619Y-11340476D01*
X285309524Y-11464286D01*
X285371429Y-11526190D01*
X285495238Y-11588095D01*
X285742857Y-11588095D01*
X285866667Y-11526190D01*
X285928571Y-11464286D01*
X285990476Y-11340476D01*
X285990476Y-11030952D01*
X285928571Y-10907143D01*
X285866667Y-10845238D01*
X285742857Y-10783333D01*
X285495238Y-10783333D01*
X285371429Y-10845238D01*
X285309524Y-10907143D01*
X285247619Y-11030952D01*
X335185714Y-10288095D02*
X336052381Y-10288095D01*
X335495238Y-11588095D01*
X385495238Y-10845238D02*
X385371429Y-10783333D01*
X385309524Y-10721429D01*
X385247619Y-10597619D01*
X385247619Y-10535714D01*
X385309524Y-10411905D01*
X385371429Y-10350000D01*
X385495238Y-10288095D01*
X385742857Y-10288095D01*
X385866667Y-10350000D01*
X385928571Y-10411905D01*
X385990476Y-10535714D01*
X385990476Y-10597619D01*
X385928571Y-10721429D01*
X385866667Y-10783333D01*
X385742857Y-10845238D01*
X385495238Y-10845238D01*
X385371429Y-10907143D01*
X385309524Y-10969048D01*
X385247619Y-11092857D01*
X385247619Y-11340476D01*
X385309524Y-11464286D01*
X385371429Y-11526190D01*
X385495238Y-11588095D01*
X385742857Y-11588095D01*
X385866667Y-11526190D01*
X385928571Y-11464286D01*
X385990476Y-11340476D01*
X385990476Y-11092857D01*
X385928571Y-10969048D01*
X385866667Y-10907143D01*
X385742857Y-10845238D01*
X60000000Y-285002200D02*
X60000000Y-287002200D01*
X110000000Y-285002200D02*
X110000000Y-287002200D01*
X160000000Y-285002200D02*
X160000000Y-287002200D01*
X210000000Y-285002200D02*
X210000000Y-287002200D01*
X260000000Y-285002200D02*
X260000000Y-287002200D01*
X310000000Y-285002200D02*
X310000000Y-287002200D01*
X360000000Y-285002200D02*
X360000000Y-287002200D01*
X35990476Y-286590295D02*
X35247619Y-286590295D01*
X35619048Y-286590295D02*
X35619048Y-285290295D01*
X35495238Y-285476010D01*
X35371429Y-285599819D01*
X35247619Y-285661724D01*
X85247619Y-285414105D02*
X85309524Y-285352200D01*
X85433333Y-285290295D01*
X85742857Y-285290295D01*
X85866667Y-285352200D01*
X85928571Y-285414105D01*
X85990476Y-285537914D01*
X85990476Y-285661724D01*
X85928571Y-285847438D01*
X85185714Y-286590295D01*
X85990476Y-286590295D01*
X135185714Y-285290295D02*
X135990476Y-285290295D01*
X135557143Y-285785533D01*
X135742857Y-285785533D01*
X135866667Y-285847438D01*
X135928571Y-285909343D01*
X135990476Y-286033152D01*
X135990476Y-286342676D01*
X135928571Y-286466486D01*
X135866667Y-286528390D01*
X135742857Y-286590295D01*
X135371429Y-286590295D01*
X135247619Y-286528390D01*
X135185714Y-286466486D01*
X185866667Y-285723629D02*
X185866667Y-286590295D01*
X185557143Y-285228390D02*
X185247619Y-286156962D01*
X186052381Y-286156962D01*
X235928571Y-285290295D02*
X235309524Y-285290295D01*
X235247619Y-285909343D01*
X235309524Y-285847438D01*
X235433333Y-285785533D01*
X235742857Y-285785533D01*
X235866667Y-285847438D01*
X235928571Y-285909343D01*
X235990476Y-286033152D01*
X235990476Y-286342676D01*
X235928571Y-286466486D01*
X235866667Y-286528390D01*
X235742857Y-286590295D01*
X235433333Y-286590295D01*
X235309524Y-286528390D01*
X235247619Y-286466486D01*
X285866667Y-285290295D02*
X285619048Y-285290295D01*
X285495238Y-285352200D01*
X285433333Y-285414105D01*
X285309524Y-285599819D01*
X285247619Y-285847438D01*
X285247619Y-286342676D01*
X285309524Y-286466486D01*
X285371429Y-286528390D01*
X285495238Y-286590295D01*
X285742857Y-286590295D01*
X285866667Y-286528390D01*
X285928571Y-286466486D01*
X285990476Y-286342676D01*
X285990476Y-286033152D01*
X285928571Y-285909343D01*
X285866667Y-285847438D01*
X285742857Y-285785533D01*
X285495238Y-285785533D01*
X285371429Y-285847438D01*
X285309524Y-285909343D01*
X285247619Y-286033152D01*
X335185714Y-285290295D02*
X336052381Y-285290295D01*
X335495238Y-286590295D01*
X385495238Y-285847438D02*
X385371429Y-285785533D01*
X385309524Y-285723629D01*
X385247619Y-285599819D01*
X385247619Y-285537914D01*
X385309524Y-285414105D01*
X385371429Y-285352200D01*
X385495238Y-285290295D01*
X385742857Y-285290295D01*
X385866667Y-285352200D01*
X385928571Y-285414105D01*
X385990476Y-285537914D01*
X385990476Y-285599819D01*
X385928571Y-285723629D01*
X385866667Y-285785533D01*
X385742857Y-285847438D01*
X385495238Y-285847438D01*
X385371429Y-285909343D01*
X385309524Y-285971248D01*
X385247619Y-286095057D01*
X385247619Y-286342676D01*
X385309524Y-286466486D01*
X385371429Y-286528390D01*
X385495238Y-286590295D01*
X385742857Y-286590295D01*
X385866667Y-286528390D01*
X385928571Y-286466486D01*
X385990476Y-286342676D01*
X385990476Y-286095057D01*
X385928571Y-285971248D01*
X385866667Y-285909343D01*
X385742857Y-285847438D01*
X10000000Y-60000000D02*
X12000000Y-60000000D01*
X10000000Y-110000000D02*
X12000000Y-110000000D01*
X10000000Y-160000000D02*
X12000000Y-160000000D01*
X10000000Y-210000000D02*
X12000000Y-210000000D01*
X10000000Y-260000000D02*
X12000000Y-260000000D01*
X10690476Y-35216667D02*
X11309524Y-35216667D01*
X10566667Y-35588095D02*
X11000000Y-34288095D01*
X11433333Y-35588095D01*
X11092857Y-84907143D02*
X11278571Y-84969048D01*
X11340476Y-85030952D01*
X11402381Y-85154762D01*
X11402381Y-85340476D01*
X11340476Y-85464286D01*
X11278571Y-85526190D01*
X11154762Y-85588095D01*
X10659524Y-85588095D01*
X10659524Y-84288095D01*
X11092857Y-84288095D01*
X11216667Y-84350000D01*
X11278571Y-84411905D01*
X11340476Y-84535714D01*
X11340476Y-84659524D01*
X11278571Y-84783333D01*
X11216667Y-84845238D01*
X11092857Y-84907143D01*
X10659524Y-84907143D01*
X11402381Y-135464286D02*
X11340476Y-135526190D01*
X11154762Y-135588095D01*
X11030952Y-135588095D01*
X10845238Y-135526190D01*
X10721429Y-135402381D01*
X10659524Y-135278571D01*
X10597619Y-135030952D01*
X10597619Y-134845238D01*
X10659524Y-134597619D01*
X10721429Y-134473810D01*
X10845238Y-134350000D01*
X11030952Y-134288095D01*
X11154762Y-134288095D01*
X11340476Y-134350000D01*
X11402381Y-134411905D01*
X10659524Y-185588095D02*
X10659524Y-184288095D01*
X10969048Y-184288095D01*
X11154762Y-184350000D01*
X11278571Y-184473810D01*
X11340476Y-184597619D01*
X11402381Y-184845238D01*
X11402381Y-185030952D01*
X11340476Y-185278571D01*
X11278571Y-185402381D01*
X11154762Y-185526190D01*
X10969048Y-185588095D01*
X10659524Y-185588095D01*
X10721429Y-234907143D02*
X11154762Y-234907143D01*
X11340476Y-235588095D02*
X10721429Y-235588095D01*
X10721429Y-234288095D01*
X11340476Y-234288095D01*
X11185714Y-284907143D02*
X10752381Y-284907143D01*
X10752381Y-285588095D02*
X10752381Y-284288095D01*
X11371428Y-284288095D01*
X409989000Y-60000000D02*
X407989000Y-60000000D01*
X409989000Y-110000000D02*
X407989000Y-110000000D01*
X409989000Y-160000000D02*
X407989000Y-160000000D01*
X409989000Y-210000000D02*
X407989000Y-210000000D01*
X409989000Y-260000000D02*
X407989000Y-260000000D01*
X408679476Y-35216667D02*
X409298524Y-35216667D01*
X408555667Y-35588095D02*
X408989000Y-34288095D01*
X409422333Y-35588095D01*
X409081857Y-84907143D02*
X409267571Y-84969048D01*
X409329476Y-85030952D01*
X409391381Y-85154762D01*
X409391381Y-85340476D01*
X409329476Y-85464286D01*
X409267571Y-85526190D01*
X409143762Y-85588095D01*
X408648524Y-85588095D01*
X408648524Y-84288095D01*
X409081857Y-84288095D01*
X409205667Y-84350000D01*
X409267571Y-84411905D01*
X409329476Y-84535714D01*
X409329476Y-84659524D01*
X409267571Y-84783333D01*
X409205667Y-84845238D01*
X409081857Y-84907143D01*
X408648524Y-84907143D01*
X409391381Y-135464286D02*
X409329476Y-135526190D01*
X409143762Y-135588095D01*
X409019952Y-135588095D01*
X408834238Y-135526190D01*
X408710429Y-135402381D01*
X408648524Y-135278571D01*
X408586619Y-135030952D01*
X408586619Y-134845238D01*
X408648524Y-134597619D01*
X408710429Y-134473810D01*
X408834238Y-134350000D01*
X409019952Y-134288095D01*
X409143762Y-134288095D01*
X409329476Y-134350000D01*
X409391381Y-134411905D01*
X408648524Y-185588095D02*
X408648524Y-184288095D01*
X408958048Y-184288095D01*
X409143762Y-184350000D01*
X409267571Y-184473810D01*
X409329476Y-184597619D01*
X409391381Y-184845238D01*
X409391381Y-185030952D01*
X409329476Y-185278571D01*
X409267571Y-185402381D01*
X409143762Y-185526190D01*
X408958048Y-185588095D01*
X408648524Y-185588095D01*
X408710429Y-234907143D02*
X409143762Y-234907143D01*
X409329476Y-235588095D02*
X408710429Y-235588095D01*
X408710429Y-234288095D01*
X409329476Y-234288095D01*
X409174714Y-284907143D02*
X408741381Y-284907143D01*
X408741381Y-285588095D02*
X408741381Y-284288095D01*
X409360428Y-284288095D01*
X323346143Y-280780771D02*
X323346143Y-279280771D01*
X323703286Y-279280771D01*
X323917571Y-279352200D01*
X324060429Y-279495057D01*
X324131857Y-279637914D01*
X324203286Y-279923629D01*
X324203286Y-280137914D01*
X324131857Y-280423629D01*
X324060429Y-280566486D01*
X323917571Y-280709343D01*
X323703286Y-280780771D01*
X323346143Y-280780771D01*
X325489000Y-280780771D02*
X325489000Y-279995057D01*
X325417571Y-279852200D01*
X325274714Y-279780771D01*
X324989000Y-279780771D01*
X324846143Y-279852200D01*
X325489000Y-280709343D02*
X325346143Y-280780771D01*
X324989000Y-280780771D01*
X324846143Y-280709343D01*
X324774714Y-280566486D01*
X324774714Y-280423629D01*
X324846143Y-280280771D01*
X324989000Y-280209343D01*
X325346143Y-280209343D01*
X325489000Y-280137914D01*
X325989000Y-279780771D02*
X326560429Y-279780771D01*
X326203286Y-279280771D02*
X326203286Y-280566486D01*
X326274714Y-280709343D01*
X326417572Y-280780771D01*
X326560429Y-280780771D01*
X327631857Y-280709343D02*
X327489000Y-280780771D01*
X327203286Y-280780771D01*
X327060429Y-280709343D01*
X326989000Y-280566486D01*
X326989000Y-279995057D01*
X327060429Y-279852200D01*
X327203286Y-279780771D01*
X327489000Y-279780771D01*
X327631857Y-279852200D01*
X327703286Y-279995057D01*
X327703286Y-280137914D01*
X326989000Y-280280771D01*
X328346143Y-280637914D02*
X328417571Y-280709343D01*
X328346143Y-280780771D01*
X328274714Y-280709343D01*
X328346143Y-280637914D01*
X328346143Y-280780771D01*
X328346143Y-279852200D02*
X328417571Y-279923629D01*
X328346143Y-279995057D01*
X328274714Y-279923629D01*
X328346143Y-279852200D01*
X328346143Y-279995057D01*
X299989000Y-281502200D02*
X407989000Y-281502200D01*
X301346143Y-283580771D02*
X301346143Y-282080771D01*
X302203286Y-283580771D02*
X301560429Y-282723629D01*
X302203286Y-282080771D02*
X301346143Y-282937914D01*
X302846143Y-283580771D02*
X302846143Y-282580771D01*
X302846143Y-282080771D02*
X302774714Y-282152200D01*
X302846143Y-282223629D01*
X302917571Y-282152200D01*
X302846143Y-282080771D01*
X302846143Y-282223629D01*
X304417572Y-283437914D02*
X304346143Y-283509343D01*
X304131857Y-283580771D01*
X303989000Y-283580771D01*
X303774715Y-283509343D01*
X303631857Y-283366486D01*
X303560429Y-283223629D01*
X303489000Y-282937914D01*
X303489000Y-282723629D01*
X303560429Y-282437914D01*
X303631857Y-282295057D01*
X303774715Y-282152200D01*
X303989000Y-282080771D01*
X304131857Y-282080771D01*
X304346143Y-282152200D01*
X304417572Y-282223629D01*
X305703286Y-283580771D02*
X305703286Y-282795057D01*
X305631857Y-282652200D01*
X305489000Y-282580771D01*
X305203286Y-282580771D01*
X305060429Y-282652200D01*
X305703286Y-283509343D02*
X305560429Y-283580771D01*
X305203286Y-283580771D01*
X305060429Y-283509343D01*
X304989000Y-283366486D01*
X304989000Y-283223629D01*
X305060429Y-283080771D01*
X305203286Y-283009343D01*
X305560429Y-283009343D01*
X305703286Y-282937914D01*
X307060429Y-283580771D02*
X307060429Y-282080771D01*
X307060429Y-283509343D02*
X306917572Y-283580771D01*
X306631858Y-283580771D01*
X306489000Y-283509343D01*
X306417572Y-283437914D01*
X306346143Y-283295057D01*
X306346143Y-282866486D01*
X306417572Y-282723629D01*
X306489000Y-282652200D01*
X306631858Y-282580771D01*
X306917572Y-282580771D01*
X307060429Y-282652200D01*
X308917572Y-282795057D02*
X309417572Y-282795057D01*
X309631858Y-283580771D02*
X308917572Y-283580771D01*
X308917572Y-282080771D01*
X309631858Y-282080771D01*
X310274715Y-283437914D02*
X310346143Y-283509343D01*
X310274715Y-283580771D01*
X310203286Y-283509343D01*
X310274715Y-283437914D01*
X310274715Y-283580771D01*
X310989001Y-283580771D02*
X310989001Y-282080771D01*
X311346144Y-282080771D01*
X311560429Y-282152200D01*
X311703287Y-282295057D01*
X311774715Y-282437914D01*
X311846144Y-282723629D01*
X311846144Y-282937914D01*
X311774715Y-283223629D01*
X311703287Y-283366486D01*
X311560429Y-283509343D01*
X311346144Y-283580771D01*
X310989001Y-283580771D01*
X312489001Y-283437914D02*
X312560429Y-283509343D01*
X312489001Y-283580771D01*
X312417572Y-283509343D01*
X312489001Y-283437914D01*
X312489001Y-283580771D01*
X313131858Y-283152200D02*
X313846144Y-283152200D01*
X312989001Y-283580771D02*
X313489001Y-282080771D01*
X313989001Y-283580771D01*
X314489001Y-283437914D02*
X314560429Y-283509343D01*
X314489001Y-283580771D01*
X314417572Y-283509343D01*
X314489001Y-283437914D01*
X314489001Y-283580771D01*
X317489001Y-283580771D02*
X317489001Y-282080771D01*
X317631858Y-283009343D02*
X318060429Y-283580771D01*
X318060429Y-282580771D02*
X317489001Y-283152200D01*
X318703287Y-283580771D02*
X318703287Y-282580771D01*
X318703287Y-282080771D02*
X318631858Y-282152200D01*
X318703287Y-282223629D01*
X318774715Y-282152200D01*
X318703287Y-282080771D01*
X318703287Y-282223629D01*
X320060430Y-283509343D02*
X319917573Y-283580771D01*
X319631859Y-283580771D01*
X319489001Y-283509343D01*
X319417573Y-283437914D01*
X319346144Y-283295057D01*
X319346144Y-282866486D01*
X319417573Y-282723629D01*
X319489001Y-282652200D01*
X319631859Y-282580771D01*
X319917573Y-282580771D01*
X320060430Y-282652200D01*
X321346144Y-283580771D02*
X321346144Y-282795057D01*
X321274715Y-282652200D01*
X321131858Y-282580771D01*
X320846144Y-282580771D01*
X320703287Y-282652200D01*
X321346144Y-283509343D02*
X321203287Y-283580771D01*
X320846144Y-283580771D01*
X320703287Y-283509343D01*
X320631858Y-283366486D01*
X320631858Y-283223629D01*
X320703287Y-283080771D01*
X320846144Y-283009343D01*
X321203287Y-283009343D01*
X321346144Y-282937914D01*
X322703287Y-283580771D02*
X322703287Y-282080771D01*
X322703287Y-283509343D02*
X322560430Y-283580771D01*
X322274716Y-283580771D01*
X322131858Y-283509343D01*
X322060430Y-283437914D01*
X321989001Y-283295057D01*
X321989001Y-282866486D01*
X322060430Y-282723629D01*
X322131858Y-282652200D01*
X322274716Y-282580771D01*
X322560430Y-282580771D01*
X322703287Y-282652200D01*
X324989001Y-284152200D02*
X324917573Y-284080771D01*
X324774716Y-283866486D01*
X324703287Y-283723629D01*
X324631858Y-283509343D01*
X324560430Y-283152200D01*
X324560430Y-282866486D01*
X324631858Y-282509343D01*
X324703287Y-282295057D01*
X324774716Y-282152200D01*
X324917573Y-281937914D01*
X324989001Y-281866486D01*
X325489001Y-282223629D02*
X325560430Y-282152200D01*
X325703287Y-282080771D01*
X326060430Y-282080771D01*
X326203287Y-282152200D01*
X326274716Y-282223629D01*
X326346144Y-282366486D01*
X326346144Y-282509343D01*
X326274716Y-282723629D01*
X325417573Y-283580771D01*
X326346144Y-283580771D01*
X327274715Y-282080771D02*
X327417572Y-282080771D01*
X327560429Y-282152200D01*
X327631858Y-282223629D01*
X327703287Y-282366486D01*
X327774715Y-282652200D01*
X327774715Y-283009343D01*
X327703287Y-283295057D01*
X327631858Y-283437914D01*
X327560429Y-283509343D01*
X327417572Y-283580771D01*
X327274715Y-283580771D01*
X327131858Y-283509343D01*
X327060429Y-283437914D01*
X326989001Y-283295057D01*
X326917572Y-283009343D01*
X326917572Y-282652200D01*
X326989001Y-282366486D01*
X327060429Y-282223629D01*
X327131858Y-282152200D01*
X327274715Y-282080771D01*
X329203286Y-283580771D02*
X328346143Y-283580771D01*
X328774715Y-283580771D02*
X328774715Y-282080771D01*
X328631858Y-282295057D01*
X328489000Y-282437914D01*
X328346143Y-282509343D01*
X330560429Y-282080771D02*
X329846143Y-282080771D01*
X329774714Y-282795057D01*
X329846143Y-282723629D01*
X329989000Y-282652200D01*
X330346143Y-282652200D01*
X330489000Y-282723629D01*
X330560429Y-282795057D01*
X330631857Y-282937914D01*
X330631857Y-283295057D01*
X330560429Y-283437914D01*
X330489000Y-283509343D01*
X330346143Y-283580771D01*
X329989000Y-283580771D01*
X329846143Y-283509343D01*
X329774714Y-283437914D01*
X331274714Y-283009343D02*
X332417571Y-283009343D01*
X333417571Y-282080771D02*
X333560428Y-282080771D01*
X333703285Y-282152200D01*
X333774714Y-282223629D01*
X333846143Y-282366486D01*
X333917571Y-282652200D01*
X333917571Y-283009343D01*
X333846143Y-283295057D01*
X333774714Y-283437914D01*
X333703285Y-283509343D01*
X333560428Y-283580771D01*
X333417571Y-283580771D01*
X333274714Y-283509343D01*
X333203285Y-283437914D01*
X333131857Y-283295057D01*
X333060428Y-283009343D01*
X333060428Y-282652200D01*
X333131857Y-282366486D01*
X333203285Y-282223629D01*
X333274714Y-282152200D01*
X333417571Y-282080771D01*
X334417571Y-282080771D02*
X335417571Y-282080771D01*
X334774714Y-283580771D01*
X335988999Y-283009343D02*
X337131856Y-283009343D01*
X338631856Y-283580771D02*
X337774713Y-283580771D01*
X338203285Y-283580771D02*
X338203285Y-282080771D01*
X338060428Y-282295057D01*
X337917570Y-282437914D01*
X337774713Y-282509343D01*
X339988999Y-282080771D02*
X339274713Y-282080771D01*
X339203284Y-282795057D01*
X339274713Y-282723629D01*
X339417570Y-282652200D01*
X339774713Y-282652200D01*
X339917570Y-282723629D01*
X339988999Y-282795057D01*
X340060427Y-282937914D01*
X340060427Y-283295057D01*
X339988999Y-283437914D01*
X339917570Y-283509343D01*
X339774713Y-283580771D01*
X339417570Y-283580771D01*
X339274713Y-283509343D01*
X339203284Y-283437914D01*
X342346141Y-282795057D02*
X342560427Y-282866486D01*
X342631855Y-282937914D01*
X342703284Y-283080771D01*
X342703284Y-283295057D01*
X342631855Y-283437914D01*
X342560427Y-283509343D01*
X342417569Y-283580771D01*
X341846141Y-283580771D01*
X341846141Y-282080771D01*
X342346141Y-282080771D01*
X342488998Y-282152200D01*
X342560427Y-282223629D01*
X342631855Y-282366486D01*
X342631855Y-282509343D01*
X342560427Y-282652200D01*
X342488998Y-282723629D01*
X342346141Y-282795057D01*
X341846141Y-282795057D01*
X343203284Y-282080771D02*
X344203284Y-282080771D01*
X343203284Y-283580771D01*
X344203284Y-283580771D01*
X345631855Y-283580771D02*
X345131855Y-282866486D01*
X344774712Y-283580771D02*
X344774712Y-282080771D01*
X345346140Y-282080771D01*
X345488998Y-282152200D01*
X345560426Y-282223629D01*
X345631855Y-282366486D01*
X345631855Y-282580771D01*
X345560426Y-282723629D01*
X345488998Y-282795057D01*
X345346140Y-282866486D01*
X344774712Y-282866486D01*
X348131855Y-282080771D02*
X347417569Y-282080771D01*
X347346140Y-282795057D01*
X347417569Y-282723629D01*
X347560426Y-282652200D01*
X347917569Y-282652200D01*
X348060426Y-282723629D01*
X348131855Y-282795057D01*
X348203283Y-282937914D01*
X348203283Y-283295057D01*
X348131855Y-283437914D01*
X348060426Y-283509343D01*
X347917569Y-283580771D01*
X347560426Y-283580771D01*
X347417569Y-283509343D01*
X347346140Y-283437914D01*
X348917568Y-283580771D02*
X349203283Y-283580771D01*
X349346140Y-283509343D01*
X349417568Y-283437914D01*
X349560426Y-283223629D01*
X349631854Y-282937914D01*
X349631854Y-282366486D01*
X349560426Y-282223629D01*
X349488997Y-282152200D01*
X349346140Y-282080771D01*
X349060426Y-282080771D01*
X348917568Y-282152200D01*
X348846140Y-282223629D01*
X348774711Y-282366486D01*
X348774711Y-282723629D01*
X348846140Y-282866486D01*
X348917568Y-282937914D01*
X349060426Y-283009343D01*
X349346140Y-283009343D01*
X349488997Y-282937914D01*
X349560426Y-282866486D01*
X349631854Y-282723629D01*
X350917568Y-282580771D02*
X350917568Y-283580771D01*
X350560425Y-282009343D02*
X350203282Y-283080771D01*
X351131854Y-283080771D01*
X351917568Y-282723629D02*
X351774710Y-282652200D01*
X351703282Y-282580771D01*
X351631853Y-282437914D01*
X351631853Y-282366486D01*
X351703282Y-282223629D01*
X351774710Y-282152200D01*
X351917568Y-282080771D01*
X352203282Y-282080771D01*
X352346139Y-282152200D01*
X352417568Y-282223629D01*
X352488996Y-282366486D01*
X352488996Y-282437914D01*
X352417568Y-282580771D01*
X352346139Y-282652200D01*
X352203282Y-282723629D01*
X351917568Y-282723629D01*
X351774710Y-282795057D01*
X351703282Y-282866486D01*
X351631853Y-283009343D01*
X351631853Y-283295057D01*
X351703282Y-283437914D01*
X351774710Y-283509343D01*
X351917568Y-283580771D01*
X352203282Y-283580771D01*
X352346139Y-283509343D01*
X352417568Y-283437914D01*
X352488996Y-283295057D01*
X352488996Y-283009343D01*
X352417568Y-282866486D01*
X352346139Y-282795057D01*
X352203282Y-282723629D01*
X352988996Y-284152200D02*
X353060424Y-284080771D01*
X353203281Y-283866486D01*
X353274710Y-283723629D01*
X353346139Y-283509343D01*
X353417567Y-283152200D01*
X353417567Y-282866486D01*
X353346139Y-282509343D01*
X353274710Y-282295057D01*
X353203281Y-282152200D01*
X353060424Y-281937914D01*
X352988996Y-281866486D01*
X354131853Y-283009343D02*
X355274710Y-283009343D01*
X355988996Y-282580771D02*
X355988996Y-284080771D01*
X355988996Y-282652200D02*
X356131853Y-282580771D01*
X356417567Y-282580771D01*
X356560424Y-282652200D01*
X356631853Y-282723629D01*
X356703282Y-282866486D01*
X356703282Y-283295057D01*
X356631853Y-283437914D01*
X356560424Y-283509343D01*
X356417567Y-283580771D01*
X356131853Y-283580771D01*
X355988996Y-283509343D01*
X357346139Y-283580771D02*
X357346139Y-282580771D01*
X357346139Y-282866486D02*
X357417567Y-282723629D01*
X357488996Y-282652200D01*
X357631853Y-282580771D01*
X357774710Y-282580771D01*
X358488996Y-283580771D02*
X358346138Y-283509343D01*
X358274710Y-283437914D01*
X358203281Y-283295057D01*
X358203281Y-282866486D01*
X358274710Y-282723629D01*
X358346138Y-282652200D01*
X358488996Y-282580771D01*
X358703281Y-282580771D01*
X358846138Y-282652200D01*
X358917567Y-282723629D01*
X358988996Y-282866486D01*
X358988996Y-283295057D01*
X358917567Y-283437914D01*
X358846138Y-283509343D01*
X358703281Y-283580771D01*
X358488996Y-283580771D01*
X360274710Y-283580771D02*
X360274710Y-282080771D01*
X360274710Y-283509343D02*
X360131853Y-283580771D01*
X359846139Y-283580771D01*
X359703281Y-283509343D01*
X359631853Y-283437914D01*
X359560424Y-283295057D01*
X359560424Y-282866486D01*
X359631853Y-282723629D01*
X359703281Y-282652200D01*
X359846139Y-282580771D01*
X360131853Y-282580771D01*
X360274710Y-282652200D01*
X361631853Y-282580771D02*
X361631853Y-283580771D01*
X360988996Y-282580771D02*
X360988996Y-283366486D01*
X361060424Y-283509343D01*
X361203282Y-283580771D01*
X361417567Y-283580771D01*
X361560424Y-283509343D01*
X361631853Y-283437914D01*
X362988996Y-283509343D02*
X362846139Y-283580771D01*
X362560425Y-283580771D01*
X362417567Y-283509343D01*
X362346139Y-283437914D01*
X362274710Y-283295057D01*
X362274710Y-282866486D01*
X362346139Y-282723629D01*
X362417567Y-282652200D01*
X362560425Y-282580771D01*
X362846139Y-282580771D01*
X362988996Y-282652200D01*
X363417567Y-282580771D02*
X363988996Y-282580771D01*
X363631853Y-282080771D02*
X363631853Y-283366486D01*
X363703281Y-283509343D01*
X363846139Y-283580771D01*
X363988996Y-283580771D01*
X299989000Y-278502200D02*
X407989000Y-278502200D01*
D11*
X387203286Y-280780771D02*
X386703286Y-280066486D01*
X386346143Y-280780771D02*
X386346143Y-279280771D01*
X386917571Y-279280771D01*
X387060429Y-279352200D01*
X387131857Y-279423629D01*
X387203286Y-279566486D01*
X387203286Y-279780771D01*
X387131857Y-279923629D01*
X387060429Y-279995057D01*
X386917571Y-280066486D01*
X386346143Y-280066486D01*
X388417571Y-280709343D02*
X388274714Y-280780771D01*
X387989000Y-280780771D01*
X387846143Y-280709343D01*
X387774714Y-280566486D01*
X387774714Y-279995057D01*
X387846143Y-279852200D01*
X387989000Y-279780771D01*
X388274714Y-279780771D01*
X388417571Y-279852200D01*
X388489000Y-279995057D01*
X388489000Y-280137914D01*
X387774714Y-280280771D01*
X388989000Y-279780771D02*
X389346143Y-280780771D01*
X389703285Y-279780771D01*
X390274714Y-280637914D02*
X390346142Y-280709343D01*
X390274714Y-280780771D01*
X390203285Y-280709343D01*
X390274714Y-280637914D01*
X390274714Y-280780771D01*
X390274714Y-279852200D02*
X390346142Y-279923629D01*
X390274714Y-279995057D01*
X390203285Y-279923629D01*
X390274714Y-279852200D01*
X390274714Y-279995057D01*
D10*
X301274714Y-280709343D02*
X301489000Y-280780771D01*
X301846143Y-280780771D01*
X301989000Y-280709343D01*
X302060429Y-280637914D01*
X302131857Y-280495057D01*
X302131857Y-280352200D01*
X302060429Y-280209343D01*
X301989000Y-280137914D01*
X301846143Y-280066486D01*
X301560429Y-279995057D01*
X301417571Y-279923629D01*
X301346143Y-279852200D01*
X301274714Y-279709343D01*
X301274714Y-279566486D01*
X301346143Y-279423629D01*
X301417571Y-279352200D01*
X301560429Y-279280771D01*
X301917571Y-279280771D01*
X302131857Y-279352200D01*
X302774714Y-280780771D02*
X302774714Y-279780771D01*
X302774714Y-279280771D02*
X302703285Y-279352200D01*
X302774714Y-279423629D01*
X302846142Y-279352200D01*
X302774714Y-279280771D01*
X302774714Y-279423629D01*
X303346143Y-279780771D02*
X304131857Y-279780771D01*
X303346143Y-280780771D01*
X304131857Y-280780771D01*
X305274714Y-280709343D02*
X305131857Y-280780771D01*
X304846143Y-280780771D01*
X304703286Y-280709343D01*
X304631857Y-280566486D01*
X304631857Y-279995057D01*
X304703286Y-279852200D01*
X304846143Y-279780771D01*
X305131857Y-279780771D01*
X305274714Y-279852200D01*
X305346143Y-279995057D01*
X305346143Y-280137914D01*
X304631857Y-280280771D01*
X305989000Y-280637914D02*
X306060428Y-280709343D01*
X305989000Y-280780771D01*
X305917571Y-280709343D01*
X305989000Y-280637914D01*
X305989000Y-280780771D01*
X305989000Y-279852200D02*
X306060428Y-279923629D01*
X305989000Y-279995057D01*
X305917571Y-279923629D01*
X305989000Y-279852200D01*
X305989000Y-279995057D01*
X307774714Y-280352200D02*
X308489000Y-280352200D01*
X307631857Y-280780771D02*
X308131857Y-279280771D01*
X308631857Y-280780771D01*
X308989000Y-279280771D02*
X309917571Y-279280771D01*
X309417571Y-279852200D01*
X309631857Y-279852200D01*
X309774714Y-279923629D01*
X309846143Y-279995057D01*
X309917571Y-280137914D01*
X309917571Y-280495057D01*
X309846143Y-280637914D01*
X309774714Y-280709343D01*
X309631857Y-280780771D01*
X309203285Y-280780771D01*
X309060428Y-280709343D01*
X308989000Y-280637914D01*
X386346143Y-283580771D02*
X386346143Y-282080771D01*
X387703286Y-283580771D02*
X387703286Y-282080771D01*
X387703286Y-283509343D02*
X387560429Y-283580771D01*
X387274715Y-283580771D01*
X387131857Y-283509343D01*
X387060429Y-283437914D01*
X386989000Y-283295057D01*
X386989000Y-282866486D01*
X387060429Y-282723629D01*
X387131857Y-282652200D01*
X387274715Y-282580771D01*
X387560429Y-282580771D01*
X387703286Y-282652200D01*
X388417572Y-283437914D02*
X388489000Y-283509343D01*
X388417572Y-283580771D01*
X388346143Y-283509343D01*
X388417572Y-283437914D01*
X388417572Y-283580771D01*
X388417572Y-282652200D02*
X388489000Y-282723629D01*
X388417572Y-282795057D01*
X388346143Y-282723629D01*
X388417572Y-282652200D01*
X388417572Y-282795057D01*
X391060429Y-283580771D02*
X390203286Y-283580771D01*
X390631858Y-283580771D02*
X390631858Y-282080771D01*
X390489001Y-282295057D01*
X390346143Y-282437914D01*
X390203286Y-282509343D01*
X392774714Y-282009343D02*
X391489000Y-283937914D01*
X394060429Y-283580771D02*
X393203286Y-283580771D01*
X393631858Y-283580771D02*
X393631858Y-282080771D01*
X393489001Y-282295057D01*
X393346143Y-282437914D01*
X393203286Y-282509343D01*
X299989000Y-274502200D02*
X407989000Y-274502200D01*
D12*
X301441381Y-275206962D02*
X302584238Y-275206962D01*
X301762810Y-277206962D02*
X302012810Y-275206962D01*
X303000905Y-277206962D02*
X303167571Y-275873629D01*
X303250905Y-275206962D02*
X303143762Y-275302200D01*
X303227095Y-275397438D01*
X303334239Y-275302200D01*
X303250905Y-275206962D01*
X303227095Y-275397438D01*
X303834238Y-275873629D02*
X304596143Y-275873629D01*
X304203286Y-275206962D02*
X303989000Y-276921248D01*
X304060430Y-277111724D01*
X304239001Y-277206962D01*
X304429477Y-277206962D01*
X305381858Y-277206962D02*
X305203287Y-277111724D01*
X305131857Y-276921248D01*
X305346143Y-275206962D01*
X306917572Y-277111724D02*
X306715191Y-277206962D01*
X306334239Y-277206962D01*
X306155667Y-277111724D01*
X306084238Y-276921248D01*
X306179476Y-276159343D01*
X306298524Y-275968867D01*
X306500905Y-275873629D01*
X306881857Y-275873629D01*
X307060429Y-275968867D01*
X307131857Y-276159343D01*
X307108048Y-276349819D01*
X306131857Y-276540295D01*
X307881857Y-277016486D02*
X307965192Y-277111724D01*
X307858048Y-277206962D01*
X307774715Y-277111724D01*
X307881857Y-277016486D01*
X307858048Y-277206962D01*
X308012810Y-275968867D02*
X308096144Y-276064105D01*
X307989000Y-276159343D01*
X307905667Y-276064105D01*
X308012810Y-275968867D01*
X307989000Y-276159343D01*
D10*
X301846143Y-272595057D02*
X301346143Y-272595057D01*
X301346143Y-273380771D02*
X301346143Y-271880771D01*
X302060429Y-271880771D01*
X302631857Y-273380771D02*
X302631857Y-272380771D01*
X302631857Y-271880771D02*
X302560428Y-271952200D01*
X302631857Y-272023629D01*
X302703285Y-271952200D01*
X302631857Y-271880771D01*
X302631857Y-272023629D01*
X303560429Y-273380771D02*
X303417571Y-273309343D01*
X303346143Y-273166486D01*
X303346143Y-271880771D01*
X304703285Y-273309343D02*
X304560428Y-273380771D01*
X304274714Y-273380771D01*
X304131857Y-273309343D01*
X304060428Y-273166486D01*
X304060428Y-272595057D01*
X304131857Y-272452200D01*
X304274714Y-272380771D01*
X304560428Y-272380771D01*
X304703285Y-272452200D01*
X304774714Y-272595057D01*
X304774714Y-272737914D01*
X304060428Y-272880771D01*
X305417571Y-273237914D02*
X305488999Y-273309343D01*
X305417571Y-273380771D01*
X305346142Y-273309343D01*
X305417571Y-273237914D01*
X305417571Y-273380771D01*
X305417571Y-272452200D02*
X305488999Y-272523629D01*
X305417571Y-272595057D01*
X305346142Y-272523629D01*
X305417571Y-272452200D01*
X305417571Y-272595057D01*
X307060428Y-271880771D02*
X307560428Y-273380771D01*
X308060428Y-271880771D01*
X308774714Y-273380771D02*
X308631856Y-273309343D01*
X308560428Y-273237914D01*
X308488999Y-273095057D01*
X308488999Y-272666486D01*
X308560428Y-272523629D01*
X308631856Y-272452200D01*
X308774714Y-272380771D01*
X308988999Y-272380771D01*
X309131856Y-272452200D01*
X309203285Y-272523629D01*
X309274714Y-272666486D01*
X309274714Y-273095057D01*
X309203285Y-273237914D01*
X309131856Y-273309343D01*
X308988999Y-273380771D01*
X308774714Y-273380771D01*
X310560428Y-273309343D02*
X310417571Y-273380771D01*
X310131857Y-273380771D01*
X309988999Y-273309343D01*
X309917571Y-273237914D01*
X309846142Y-273095057D01*
X309846142Y-272666486D01*
X309917571Y-272523629D01*
X309988999Y-272452200D01*
X310131857Y-272380771D01*
X310417571Y-272380771D01*
X310560428Y-272452200D01*
X311846142Y-273380771D02*
X311846142Y-272595057D01*
X311774713Y-272452200D01*
X311631856Y-272380771D01*
X311346142Y-272380771D01*
X311203285Y-272452200D01*
X311846142Y-273309343D02*
X311703285Y-273380771D01*
X311346142Y-273380771D01*
X311203285Y-273309343D01*
X311131856Y-273166486D01*
X311131856Y-273023629D01*
X311203285Y-272880771D01*
X311346142Y-272809343D01*
X311703285Y-272809343D01*
X311846142Y-272737914D01*
X312560428Y-273380771D02*
X312560428Y-271880771D01*
X312560428Y-272452200D02*
X312703285Y-272380771D01*
X312988999Y-272380771D01*
X313131856Y-272452200D01*
X313203285Y-272523629D01*
X313274714Y-272666486D01*
X313274714Y-273095057D01*
X313203285Y-273237914D01*
X313131856Y-273309343D01*
X312988999Y-273380771D01*
X312703285Y-273380771D01*
X312560428Y-273309343D01*
X313917571Y-273237914D02*
X313988999Y-273309343D01*
X313917571Y-273380771D01*
X313846142Y-273309343D01*
X313917571Y-273237914D01*
X313917571Y-273380771D01*
X314631857Y-273380771D02*
X314631857Y-271880771D01*
X314774714Y-272809343D02*
X315203285Y-273380771D01*
X315203285Y-272380771D02*
X314631857Y-272952200D01*
X315846143Y-273380771D02*
X315846143Y-272380771D01*
X315846143Y-271880771D02*
X315774714Y-271952200D01*
X315846143Y-272023629D01*
X315917571Y-271952200D01*
X315846143Y-271880771D01*
X315846143Y-272023629D01*
X317203286Y-273309343D02*
X317060429Y-273380771D01*
X316774715Y-273380771D01*
X316631857Y-273309343D01*
X316560429Y-273237914D01*
X316489000Y-273095057D01*
X316489000Y-272666486D01*
X316560429Y-272523629D01*
X316631857Y-272452200D01*
X316774715Y-272380771D01*
X317060429Y-272380771D01*
X317203286Y-272452200D01*
X318489000Y-273380771D02*
X318489000Y-272595057D01*
X318417571Y-272452200D01*
X318274714Y-272380771D01*
X317989000Y-272380771D01*
X317846143Y-272452200D01*
X318489000Y-273309343D02*
X318346143Y-273380771D01*
X317989000Y-273380771D01*
X317846143Y-273309343D01*
X317774714Y-273166486D01*
X317774714Y-273023629D01*
X317846143Y-272880771D01*
X317989000Y-272809343D01*
X318346143Y-272809343D01*
X318489000Y-272737914D01*
X319846143Y-273380771D02*
X319846143Y-271880771D01*
X319846143Y-273309343D02*
X319703286Y-273380771D01*
X319417572Y-273380771D01*
X319274714Y-273309343D01*
X319203286Y-273237914D01*
X319131857Y-273095057D01*
X319131857Y-272666486D01*
X319203286Y-272523629D01*
X319274714Y-272452200D01*
X319417572Y-272380771D01*
X319703286Y-272380771D01*
X319846143Y-272452200D01*
X320203286Y-273523629D02*
X321346143Y-273523629D01*
X321703286Y-272380771D02*
X321703286Y-273880771D01*
X321703286Y-272452200D02*
X321846143Y-272380771D01*
X322131857Y-272380771D01*
X322274714Y-272452200D01*
X322346143Y-272523629D01*
X322417572Y-272666486D01*
X322417572Y-273095057D01*
X322346143Y-273237914D01*
X322274714Y-273309343D01*
X322131857Y-273380771D01*
X321846143Y-273380771D01*
X321703286Y-273309343D01*
X323703286Y-273309343D02*
X323560429Y-273380771D01*
X323274715Y-273380771D01*
X323131857Y-273309343D01*
X323060429Y-273237914D01*
X322989000Y-273095057D01*
X322989000Y-272666486D01*
X323060429Y-272523629D01*
X323131857Y-272452200D01*
X323274715Y-272380771D01*
X323560429Y-272380771D01*
X323703286Y-272452200D01*
X324346143Y-273380771D02*
X324346143Y-271880771D01*
X324346143Y-272452200D02*
X324489000Y-272380771D01*
X324774714Y-272380771D01*
X324917571Y-272452200D01*
X324989000Y-272523629D01*
X325060429Y-272666486D01*
X325060429Y-273095057D01*
X324989000Y-273237914D01*
X324917571Y-273309343D01*
X324774714Y-273380771D01*
X324489000Y-273380771D01*
X324346143Y-273309343D01*
X299989000Y-268502200D02*
X407989000Y-268502200D01*
X301274714Y-270609343D02*
X301489000Y-270680771D01*
X301846143Y-270680771D01*
X301989000Y-270609343D01*
X302060429Y-270537914D01*
X302131857Y-270395057D01*
X302131857Y-270252200D01*
X302060429Y-270109343D01*
X301989000Y-270037914D01*
X301846143Y-269966486D01*
X301560429Y-269895057D01*
X301417571Y-269823629D01*
X301346143Y-269752200D01*
X301274714Y-269609343D01*
X301274714Y-269466486D01*
X301346143Y-269323629D01*
X301417571Y-269252200D01*
X301560429Y-269180771D01*
X301917571Y-269180771D01*
X302131857Y-269252200D01*
X302774714Y-270680771D02*
X302774714Y-269180771D01*
X303417571Y-270680771D02*
X303417571Y-269895057D01*
X303346142Y-269752200D01*
X303203285Y-269680771D01*
X302989000Y-269680771D01*
X302846142Y-269752200D01*
X302774714Y-269823629D01*
X304703285Y-270609343D02*
X304560428Y-270680771D01*
X304274714Y-270680771D01*
X304131857Y-270609343D01*
X304060428Y-270466486D01*
X304060428Y-269895057D01*
X304131857Y-269752200D01*
X304274714Y-269680771D01*
X304560428Y-269680771D01*
X304703285Y-269752200D01*
X304774714Y-269895057D01*
X304774714Y-270037914D01*
X304060428Y-270180771D01*
X305988999Y-270609343D02*
X305846142Y-270680771D01*
X305560428Y-270680771D01*
X305417571Y-270609343D01*
X305346142Y-270466486D01*
X305346142Y-269895057D01*
X305417571Y-269752200D01*
X305560428Y-269680771D01*
X305846142Y-269680771D01*
X305988999Y-269752200D01*
X306060428Y-269895057D01*
X306060428Y-270037914D01*
X305346142Y-270180771D01*
X306488999Y-269680771D02*
X307060428Y-269680771D01*
X306703285Y-269180771D02*
X306703285Y-270466486D01*
X306774713Y-270609343D01*
X306917571Y-270680771D01*
X307060428Y-270680771D01*
X307560428Y-270537914D02*
X307631856Y-270609343D01*
X307560428Y-270680771D01*
X307488999Y-270609343D01*
X307560428Y-270537914D01*
X307560428Y-270680771D01*
X307560428Y-269752200D02*
X307631856Y-269823629D01*
X307560428Y-269895057D01*
X307488999Y-269823629D01*
X307560428Y-269752200D01*
X307560428Y-269895057D01*
X319989000Y-278502200D02*
X319989000Y-281502200D01*
X383989000Y-278502200D02*
X383989000Y-285002200D01*
X196596000Y-167640000D02*
X196596000Y-99060000D01*
X249936000Y-167640000D02*
X196596000Y-167640000D01*
X249936000Y-99060000D02*
X249936000Y-167640000D01*
X196596000Y-99060000D02*
X249936000Y-99060000D01*
D11*
X216864000Y-103675571D02*
X216864000Y-102175571D01*
X216292572Y-102175571D01*
X216149714Y-102247000D01*
X216078286Y-102318429D01*
X216006857Y-102461286D01*
X216006857Y-102675571D01*
X216078286Y-102818429D01*
X216149714Y-102889857D01*
X216292572Y-102961286D01*
X216864000Y-102961286D01*
X215149714Y-103675571D02*
X215292572Y-103604143D01*
X215364000Y-103461286D01*
X215364000Y-102175571D01*
X213935429Y-103675571D02*
X213935429Y-102889857D01*
X214006858Y-102747000D01*
X214149715Y-102675571D01*
X214435429Y-102675571D01*
X214578286Y-102747000D01*
X213935429Y-103604143D02*
X214078286Y-103675571D01*
X214435429Y-103675571D01*
X214578286Y-103604143D01*
X214649715Y-103461286D01*
X214649715Y-103318429D01*
X214578286Y-103175571D01*
X214435429Y-103104143D01*
X214078286Y-103104143D01*
X213935429Y-103032714D01*
X213221143Y-102675571D02*
X213221143Y-103675571D01*
X213221143Y-102818429D02*
X213149715Y-102747000D01*
X213006857Y-102675571D01*
X212792572Y-102675571D01*
X212649715Y-102747000D01*
X212578286Y-102889857D01*
X212578286Y-103675571D01*
X211864000Y-102889857D02*
X211364000Y-102889857D01*
X211149714Y-103675571D02*
X211864000Y-103675571D01*
X211864000Y-102175571D01*
X211149714Y-102175571D01*
X210721143Y-102675571D02*
X210149714Y-102675571D01*
X210506857Y-102175571D02*
X210506857Y-103461286D01*
X210435429Y-103604143D01*
X210292571Y-103675571D01*
X210149714Y-103675571D01*
D13*
X204470000Y-143510000D03*
D14*
X222250000Y-163830000D03*
D15*
X224790000Y-163830000D03*
X227330000Y-163830000D03*
D14*
X237490000Y-163830000D03*
D15*
X240030000Y-163830000D03*
X242570000Y-163830000D03*
D16*
X199390000Y-116840000D03*
D17*
X199390000Y-119380000D03*
X199390000Y-121920000D03*
D16*
X247650000Y-104140000D03*
D17*
X247650000Y-106680000D03*
X247650000Y-109220000D03*
D18*
X247396000Y-117856000D03*
X247396000Y-120396000D03*
X199136000Y-127000000D03*
X199136000Y-132080000D03*
X199136000Y-129540000D03*
X199136000Y-134620000D03*
X199136000Y-137160000D03*
X199136000Y-139700000D03*
X199136000Y-142240000D03*
X199136000Y-144780000D03*
X199136000Y-149860000D03*
X199136000Y-152400000D03*
X199136000Y-154940000D03*
X199136000Y-157480000D03*
X199136000Y-160020000D03*
X199136000Y-162560000D03*
X247396000Y-162560000D03*
X247396000Y-160020000D03*
X247396000Y-157480000D03*
X247396000Y-154940000D03*
X247396000Y-152400000D03*
X247396000Y-149860000D03*
X247396000Y-147320000D03*
X247396000Y-144780000D03*
X247396000Y-140716000D03*
X247396000Y-138176000D03*
X247396000Y-135636000D03*
X247396000Y-133096000D03*
X247396000Y-130556000D03*
X247396000Y-128016000D03*
X247396000Y-125476000D03*
X247396000Y-122936000D03*
D13*
X199390000Y-103505000D03*
X199390000Y-107315000D03*
X217805000Y-143510000D03*
D19*
X213360000Y-163830000D03*
D20*
X215900000Y-163830000D03*
D18*
X202565000Y-121920000D03*
X242316000Y-106553000D03*
X205994000Y-124206000D03*
X229997000Y-112014000D03*
X236474000Y-110998000D03*
X205105000Y-134620000D03*
X210820000Y-134620000D03*
X205105000Y-152273000D03*
X231013000Y-109093000D03*
X237744000Y-117348000D03*
X240157000Y-117983000D03*
X217424000Y-122047000D03*
X222123000Y-117348000D03*
X227012500Y-119443500D03*
X233807000Y-115570000D03*
D21*
X199390000Y-121920000D02*
X202565000Y-121920000D01*
X202565000Y-121920000D02*
X204851000Y-119253000D01*
X217678000Y-119253000D02*
X226695000Y-110236000D01*
X204851000Y-119253000D02*
X217678000Y-119253000D01*
X236728000Y-106553000D02*
X242316000Y-106553000D01*
X230378000Y-106553000D02*
X236728000Y-106553000D01*
X226695000Y-110236000D02*
X230378000Y-106553000D01*
X226695000Y-110236000D02*
X226695000Y-110236000D01*
X205994000Y-124206000D02*
X208280000Y-124206000D01*
X229997000Y-112014000D02*
X229997000Y-114300000D01*
X205105000Y-152273000D02*
X205105000Y-153035000D01*
X233680000Y-124587000D02*
X233680000Y-121666000D01*
X238760000Y-123952000D02*
X238760000Y-119888000D01*
X215900000Y-163830000D02*
X219710000Y-163830000D01*
X213360000Y-163830000D02*
X215900000Y-163830000D01*
X222250000Y-139065000D02*
X222250000Y-133350000D01*
X222250000Y-139065000D02*
X222250000Y-139065000D01*
X222250000Y-133350000D02*
X222250000Y-132588000D01*
X222250000Y-132588000D02*
X226568000Y-128270000D01*
X226568000Y-128270000D02*
X231775000Y-128270000D01*
X237490000Y-128905000D02*
X238760000Y-127635000D01*
X237490000Y-128905000D02*
X235585000Y-128905000D01*
X233045000Y-146050000D02*
X233045000Y-146685000D01*
X233045000Y-146685000D02*
X233045000Y-160020000D01*
X229235000Y-160020000D02*
X229235000Y-149860000D01*
X229235000Y-149860000D02*
X231140000Y-147955000D01*
X217805000Y-149225000D02*
X217805000Y-149225000D01*
X217805000Y-160020000D02*
X218440000Y-160020000D01*
X217805000Y-154940000D02*
X217805000Y-160020000D01*
X217805000Y-154940000D02*
X217805000Y-151765000D01*
X217805000Y-149225000D02*
X217805000Y-151765000D01*
X219075000Y-147955000D02*
X219075000Y-147955000D01*
X219075000Y-147955000D02*
X222250000Y-144780000D01*
X222250000Y-144780000D02*
X222250000Y-139065000D01*
X217805000Y-149225000D02*
X219075000Y-147955000D01*
X231140000Y-147955000D02*
X233045000Y-146050000D01*
X233045000Y-146050000D02*
X233045000Y-146050000D01*
X233045000Y-146050000D02*
X233045000Y-131445000D01*
X233045000Y-131445000D02*
X234950000Y-129540000D01*
X234950000Y-129540000D02*
X235585000Y-128905000D01*
X231140000Y-160020000D02*
X231140000Y-147955000D01*
X231140000Y-160020000D02*
X233045000Y-160020000D01*
X233045000Y-160020000D02*
X234950000Y-160020000D01*
X219710000Y-164465000D02*
X219710000Y-163830000D01*
X220980000Y-165735000D02*
X219710000Y-164465000D01*
X226695000Y-165735000D02*
X220980000Y-165735000D01*
X227330000Y-165100000D02*
X226695000Y-165735000D01*
X227330000Y-163830000D02*
X227330000Y-165100000D01*
X219710000Y-163830000D02*
X219710000Y-160020000D01*
X218440000Y-160020000D02*
X219710000Y-160020000D01*
X229235000Y-160020000D02*
X234950000Y-160020000D01*
X227330000Y-160020000D02*
X229235000Y-160020000D01*
X227330000Y-160020000D02*
X227330000Y-163830000D01*
X238760000Y-127635000D02*
X238760000Y-127000000D01*
X234950000Y-160020000D02*
X234950000Y-164465000D01*
X234950000Y-164465000D02*
X236220000Y-165735000D01*
X236220000Y-165735000D02*
X241935000Y-165735000D01*
X241935000Y-165735000D02*
X242570000Y-165100000D01*
X244475000Y-151765000D02*
X244475000Y-124460000D01*
X242570000Y-153670000D02*
X244475000Y-151765000D01*
X242570000Y-160020000D02*
X242570000Y-153670000D01*
X242570000Y-165100000D02*
X242570000Y-163830000D01*
X242570000Y-160020000D02*
X242570000Y-163830000D01*
X231775000Y-128270000D02*
X232791000Y-127254000D01*
X238760000Y-123825000D02*
X238760000Y-123952000D01*
X238760000Y-123952000D02*
X238760000Y-127000000D01*
X233680000Y-124460000D02*
X233680000Y-124587000D01*
X233680000Y-124587000D02*
X233680000Y-126365000D01*
X233680000Y-126365000D02*
X232791000Y-127254000D01*
X232791000Y-127254000D02*
X232410000Y-127635000D01*
X232410000Y-127635000D02*
X232410000Y-127635000D01*
D11*
X246634000Y-107061000D02*
X247269000Y-107061000D01*
X244602000Y-109093000D02*
X246634000Y-107061000D01*
X231013000Y-109093000D02*
X244602000Y-109093000D01*
X247269000Y-107061000D02*
X247650000Y-106680000D01*
D21*
X247650000Y-109220000D02*
X247523000Y-109220000D01*
X247523000Y-109220000D02*
X244348000Y-112395000D01*
X245745000Y-153289000D02*
X247396000Y-154940000D01*
X245745000Y-120015000D02*
X245745000Y-153289000D01*
X244348000Y-118618000D02*
X245745000Y-120015000D01*
X244348000Y-112395000D02*
X244348000Y-118618000D01*
X247650000Y-109220000D02*
X247650000Y-109601000D01*
X220980000Y-127635000D02*
X224599500Y-124015500D01*
X231267000Y-117348000D02*
X237744000Y-117348000D01*
X224472500Y-124142500D02*
X231267000Y-117348000D01*
X210185000Y-127635000D02*
X220980000Y-127635000D01*
X207645000Y-130175000D02*
X210185000Y-127635000D01*
X207645000Y-140970000D02*
X207645000Y-130175000D01*
X199136000Y-160020000D02*
X206375000Y-160020000D01*
X207645000Y-159004000D02*
X207645000Y-140970000D01*
X207645000Y-140970000D02*
X207645000Y-140970000D01*
X206375000Y-160020000D02*
X207645000Y-159004000D01*
X199136000Y-160020000D02*
X199136000Y-160274000D01*
X199136000Y-160274000D02*
X198882000Y-160020000D01*
X224726500Y-125793500D02*
X224726500Y-125793500D01*
X239268000Y-118872000D02*
X240157000Y-117983000D01*
X231648000Y-118872000D02*
X239268000Y-118872000D01*
X224726500Y-125793500D02*
X231648000Y-118872000D01*
X213360000Y-128905000D02*
X221615000Y-128905000D01*
X213360000Y-128905000D02*
X210820000Y-128905000D01*
X210820000Y-128905000D02*
X208915000Y-130810000D01*
X208915000Y-140335000D02*
X208915000Y-161544000D01*
X208915000Y-140335000D02*
X208915000Y-140335000D01*
X208915000Y-130810000D02*
X208915000Y-140335000D01*
X208915000Y-161544000D02*
X207645000Y-162560000D01*
X199136000Y-162560000D02*
X207645000Y-162560000D01*
X221615000Y-128905000D02*
X224726500Y-125793500D01*
X224726500Y-125793500D02*
X224790000Y-125730000D01*
X200660000Y-162560000D02*
X199136000Y-162560000D01*
X222123000Y-117348000D02*
X217424000Y-122047000D01*
D11*
X230759000Y-115697000D02*
X227012500Y-119443500D01*
X227012500Y-119443500D02*
X226949000Y-119507000D01*
X233680000Y-115697000D02*
X230759000Y-115697000D01*
X233807000Y-115570000D02*
X233680000Y-115697000D01*
D22*
G36*
X249226000Y-102972680D02*
X249126673Y-102821473D01*
X248915640Y-102679023D01*
X248666000Y-102628960D01*
X246634000Y-102628960D01*
X246391877Y-102675937D01*
X246179073Y-102815727D01*
X246036623Y-103026760D01*
X245986560Y-103276400D01*
X245986560Y-105003600D01*
X246033537Y-105245723D01*
X246173327Y-105458527D01*
X246384360Y-105600977D01*
X246422963Y-105608718D01*
X246405585Y-105620330D01*
X246080729Y-106106511D01*
X245982003Y-106602839D01*
X244276842Y-108308000D01*
X232200201Y-108308000D01*
X232198010Y-108302697D01*
X231805370Y-107909371D01*
X231292100Y-107696243D01*
X230736339Y-107695758D01*
X230320768Y-107867468D01*
X230746236Y-107442000D01*
X241229515Y-107442000D01*
X241523630Y-107736629D01*
X242036900Y-107949757D01*
X242592661Y-107950242D01*
X243106303Y-107738010D01*
X243499629Y-107345370D01*
X243712757Y-106832100D01*
X243713242Y-106276339D01*
X243501010Y-105762697D01*
X243108370Y-105369371D01*
X242595100Y-105156243D01*
X242039339Y-105155758D01*
X241525697Y-105367990D01*
X241229170Y-105664000D01*
X230378000Y-105664000D01*
X230037795Y-105731670D01*
X229749382Y-105924382D01*
X217309764Y-118364000D01*
X204851000Y-118364000D01*
X204817116Y-118370740D01*
X204782817Y-118366619D01*
X204648060Y-118404367D01*
X204510794Y-118431671D01*
X204482069Y-118450865D01*
X204448803Y-118460183D01*
X204338748Y-118546628D01*
X204222382Y-118624382D01*
X204203188Y-118653108D01*
X204176021Y-118674447D01*
X202591527Y-120523023D01*
X202288339Y-120522758D01*
X201774697Y-120734990D01*
X201478170Y-121031000D01*
X200748453Y-121031000D01*
X200634415Y-120860330D01*
X200319634Y-120650000D01*
X200634415Y-120439670D01*
X200959271Y-119953489D01*
X201073345Y-119380000D01*
X200959271Y-118806511D01*
X200634415Y-118320330D01*
X200612220Y-118305500D01*
X200765699Y-118241927D01*
X200944327Y-118063298D01*
X201041000Y-117829909D01*
X201041000Y-117125750D01*
X200882250Y-116967000D01*
X199517000Y-116967000D01*
X199517000Y-116987000D01*
X199263000Y-116987000D01*
X199263000Y-116967000D01*
X197897750Y-116967000D01*
X197739000Y-117125750D01*
X197739000Y-117829909D01*
X197835673Y-118063298D01*
X198014301Y-118241927D01*
X198167780Y-118305500D01*
X198145585Y-118320330D01*
X197820729Y-118806511D01*
X197706655Y-119380000D01*
X197820729Y-119953489D01*
X198145585Y-120439670D01*
X198460366Y-120650000D01*
X198145585Y-120860330D01*
X197820729Y-121346511D01*
X197706655Y-121920000D01*
X197820729Y-122493489D01*
X198145585Y-122979670D01*
X198631766Y-123304526D01*
X199205255Y-123418600D01*
X199574745Y-123418600D01*
X200148234Y-123304526D01*
X200634415Y-122979670D01*
X200748453Y-122809000D01*
X201478515Y-122809000D01*
X201772630Y-123103629D01*
X202285900Y-123316757D01*
X202841661Y-123317242D01*
X203355303Y-123105010D01*
X203748629Y-122712370D01*
X203961757Y-122199100D01*
X203962231Y-121655927D01*
X205259882Y-120142000D01*
X217678000Y-120142000D01*
X218018206Y-120074329D01*
X218306618Y-119881618D01*
X220725900Y-117462336D01*
X220725877Y-117487887D01*
X217563643Y-120650121D01*
X217147339Y-120649758D01*
X216633697Y-120861990D01*
X216240371Y-121254630D01*
X216027243Y-121767900D01*
X216026758Y-122323661D01*
X216238990Y-122837303D01*
X216631630Y-123230629D01*
X217144900Y-123443757D01*
X217700661Y-123444242D01*
X218214303Y-123232010D01*
X218607629Y-122839370D01*
X218820757Y-122326100D01*
X218821123Y-121907113D01*
X221983357Y-118744879D01*
X222399661Y-118745242D01*
X222913303Y-118533010D01*
X223306629Y-118140370D01*
X223519757Y-117627100D01*
X223520242Y-117071339D01*
X223308010Y-116557697D01*
X222915370Y-116164371D01*
X222402100Y-115951243D01*
X222237137Y-115951099D01*
X229788019Y-108400217D01*
X229616243Y-108813900D01*
X229615758Y-109369661D01*
X229827990Y-109883303D01*
X230220630Y-110276629D01*
X230733900Y-110489757D01*
X231289661Y-110490242D01*
X231803303Y-110278010D01*
X232196629Y-109885370D01*
X232199689Y-109878000D01*
X244602000Y-109878000D01*
X244902407Y-109818245D01*
X245157079Y-109648079D01*
X246061382Y-108743776D01*
X245966655Y-109220000D01*
X246016280Y-109469484D01*
X243719382Y-111766382D01*
X243526671Y-112054794D01*
X243459000Y-112395000D01*
X243459000Y-118618000D01*
X243526671Y-118958206D01*
X243638788Y-119126000D01*
X243719382Y-119246618D01*
X244856000Y-120383236D01*
X244856000Y-123665929D01*
X244815206Y-123638671D01*
X244475000Y-123571000D01*
X244134794Y-123638671D01*
X243846382Y-123831382D01*
X243653671Y-124119794D01*
X243586000Y-124460000D01*
X243586000Y-151396764D01*
X241941382Y-153041382D01*
X241748671Y-153329794D01*
X241681000Y-153670000D01*
X241681000Y-162471547D01*
X241510330Y-162585585D01*
X241300000Y-162900366D01*
X241089670Y-162585585D01*
X240603489Y-162260729D01*
X240030000Y-162146655D01*
X239456511Y-162260729D01*
X238970330Y-162585585D01*
X238959785Y-162601367D01*
X238954063Y-162571877D01*
X238814273Y-162359073D01*
X238603240Y-162216623D01*
X238353600Y-162166560D01*
X236626400Y-162166560D01*
X236384277Y-162213537D01*
X236171473Y-162353327D01*
X236029023Y-162564360D01*
X235978960Y-162814000D01*
X235978960Y-164236724D01*
X235839000Y-164096764D01*
X235839000Y-160020000D01*
X235771329Y-159679794D01*
X235578618Y-159391382D01*
X235290206Y-159198671D01*
X234950000Y-159131000D01*
X233934000Y-159131000D01*
X233934000Y-131813236D01*
X235953236Y-129794000D01*
X237490000Y-129794000D01*
X237830206Y-129726329D01*
X238118618Y-129533618D01*
X239388618Y-128263618D01*
X239469374Y-128142758D01*
X239581329Y-127975206D01*
X239649000Y-127635000D01*
X239649000Y-119888000D01*
X239610035Y-119692107D01*
X239896618Y-119500618D01*
X240017357Y-119379879D01*
X240433661Y-119380242D01*
X240947303Y-119168010D01*
X241340629Y-118775370D01*
X241553757Y-118262100D01*
X241554242Y-117706339D01*
X241342010Y-117192697D01*
X240949370Y-116799371D01*
X240436100Y-116586243D01*
X239880339Y-116585758D01*
X239366697Y-116797990D01*
X239127117Y-117037153D01*
X238929010Y-116557697D01*
X238536370Y-116164371D01*
X238023100Y-115951243D01*
X237467339Y-115950758D01*
X236953697Y-116162990D01*
X236657170Y-116459000D01*
X234893830Y-116459000D01*
X234990629Y-116362370D01*
X235203757Y-115849100D01*
X235204242Y-115293339D01*
X234992010Y-114779697D01*
X234599370Y-114386371D01*
X234086100Y-114173243D01*
X233530339Y-114172758D01*
X233016697Y-114384990D01*
X232623371Y-114777630D01*
X232567576Y-114912000D01*
X230759000Y-114912000D01*
X230458593Y-114971755D01*
X230203921Y-115141921D01*
X227296899Y-118048943D01*
X227291600Y-118046743D01*
X226735839Y-118046258D01*
X226222197Y-118258490D01*
X225828871Y-118651130D01*
X225615743Y-119164400D01*
X225615258Y-119720161D01*
X225827490Y-120233803D01*
X226220130Y-120627129D01*
X226580851Y-120776913D01*
X220611764Y-126746000D01*
X210185000Y-126746000D01*
X209844794Y-126813671D01*
X209556382Y-127006382D01*
X207016382Y-129546382D01*
X206823671Y-129834794D01*
X206756000Y-130175000D01*
X206756000Y-158576724D01*
X206063156Y-159131000D01*
X200222485Y-159131000D01*
X199928370Y-158836371D01*
X199720488Y-158750051D01*
X199926303Y-158665010D01*
X200319629Y-158272370D01*
X200532757Y-157759100D01*
X200533242Y-157203339D01*
X200321010Y-156689697D01*
X199928370Y-156296371D01*
X199720488Y-156210051D01*
X199926303Y-156125010D01*
X200319629Y-155732370D01*
X200532757Y-155219100D01*
X200533242Y-154663339D01*
X200321010Y-154149697D01*
X199928370Y-153756371D01*
X199720488Y-153670051D01*
X199926303Y-153585010D01*
X200319629Y-153192370D01*
X200532757Y-152679100D01*
X200533242Y-152123339D01*
X200321010Y-151609697D01*
X199928370Y-151216371D01*
X199720488Y-151130051D01*
X199926303Y-151045010D01*
X200319629Y-150652370D01*
X200532757Y-150139100D01*
X200533242Y-149583339D01*
X200321010Y-149069697D01*
X199928370Y-148676371D01*
X199415100Y-148463243D01*
X198859339Y-148462758D01*
X198345697Y-148674990D01*
X197952371Y-149067630D01*
X197739243Y-149580900D01*
X197738758Y-150136661D01*
X197950990Y-150650303D01*
X198343630Y-151043629D01*
X198551512Y-151129949D01*
X198345697Y-151214990D01*
X197952371Y-151607630D01*
X197739243Y-152120900D01*
X197738758Y-152676661D01*
X197950990Y-153190303D01*
X198343630Y-153583629D01*
X198551512Y-153669949D01*
X198345697Y-153754990D01*
X197952371Y-154147630D01*
X197739243Y-154660900D01*
X197738758Y-155216661D01*
X197950990Y-155730303D01*
X198343630Y-156123629D01*
X198551512Y-156209949D01*
X198345697Y-156294990D01*
X197952371Y-156687630D01*
X197739243Y-157200900D01*
X197738758Y-157756661D01*
X197950990Y-158270303D01*
X198343630Y-158663629D01*
X198551512Y-158749949D01*
X198345697Y-158834990D01*
X197952371Y-159227630D01*
X197739243Y-159740900D01*
X197738758Y-160296661D01*
X197950990Y-160810303D01*
X198343630Y-161203629D01*
X198551512Y-161289949D01*
X198345697Y-161374990D01*
X197952371Y-161767630D01*
X197739243Y-162280900D01*
X197738758Y-162836661D01*
X197950990Y-163350303D01*
X198343630Y-163743629D01*
X198856900Y-163956757D01*
X199412661Y-163957242D01*
X199926303Y-163745010D01*
X200222830Y-163449000D01*
X203275582Y-163449000D01*
X203149628Y-163501043D01*
X202618907Y-164030839D01*
X202331328Y-164723405D01*
X202330674Y-165473305D01*
X202617043Y-166166372D01*
X203146839Y-166697093D01*
X203707740Y-166930000D01*
X197306000Y-166930000D01*
X197306000Y-145056661D01*
X197738758Y-145056661D01*
X197950990Y-145570303D01*
X198343630Y-145963629D01*
X198856900Y-146176757D01*
X199412661Y-146177242D01*
X199926303Y-145965010D01*
X200319629Y-145572370D01*
X200532757Y-145059100D01*
X200533242Y-144503339D01*
X200321010Y-143989697D01*
X199928370Y-143596371D01*
X199736273Y-143516605D01*
X199867143Y-143462397D01*
X199936608Y-143220213D01*
X199136000Y-142419605D01*
X198335392Y-143220213D01*
X198404857Y-143462397D01*
X198545318Y-143512509D01*
X198345697Y-143594990D01*
X197952371Y-143987630D01*
X197739243Y-144500900D01*
X197738758Y-145056661D01*
X197306000Y-145056661D01*
X197306000Y-142032302D01*
X197726856Y-142032302D01*
X197754638Y-142587368D01*
X197913603Y-142971143D01*
X198155787Y-143040608D01*
X198956395Y-142240000D01*
X199315605Y-142240000D01*
X200116213Y-143040608D01*
X200358397Y-142971143D01*
X200545144Y-142447698D01*
X200542377Y-142392400D01*
X202704960Y-142392400D01*
X202704960Y-144627600D01*
X202751937Y-144869723D01*
X202891727Y-145082527D01*
X203102760Y-145224977D01*
X203352400Y-145275040D01*
X205587600Y-145275040D01*
X205829723Y-145228063D01*
X206042527Y-145088273D01*
X206184977Y-144877240D01*
X206235040Y-144627600D01*
X206235040Y-142392400D01*
X206188063Y-142150277D01*
X206048273Y-141937473D01*
X205837240Y-141795023D01*
X205587600Y-141744960D01*
X203352400Y-141744960D01*
X203110277Y-141791937D01*
X202897473Y-141931727D01*
X202755023Y-142142760D01*
X202704960Y-142392400D01*
X200542377Y-142392400D01*
X200517362Y-141892632D01*
X200358397Y-141508857D01*
X200116213Y-141439392D01*
X199315605Y-142240000D01*
X198956395Y-142240000D01*
X198956395Y-142240000D01*
X198155787Y-141439392D01*
X197913603Y-141508857D01*
X197726856Y-142032302D01*
X197306000Y-142032302D01*
X197306000Y-140680213D01*
X198335392Y-140680213D01*
X198404857Y-140922397D01*
X198528344Y-140966453D01*
X198404857Y-141017603D01*
X198335392Y-141259787D01*
X199136000Y-142060395D01*
X199936608Y-141259787D01*
X199867143Y-141017603D01*
X199743656Y-140973547D01*
X199867143Y-140922397D01*
X199936608Y-140680213D01*
X199136000Y-139879605D01*
X198335392Y-140680213D01*
X197306000Y-140680213D01*
X197306000Y-139492302D01*
X197726856Y-139492302D01*
X197754638Y-140047368D01*
X197913603Y-140431143D01*
X198155787Y-140500608D01*
X198956395Y-139700000D01*
X199315605Y-139700000D01*
X200116213Y-140500608D01*
X200358397Y-140431143D01*
X200545144Y-139907698D01*
X200517362Y-139352632D01*
X200358397Y-138968857D01*
X200116213Y-138899392D01*
X199315605Y-139700000D01*
X198956395Y-139700000D01*
X198956395Y-139700000D01*
X198155787Y-138899392D01*
X197913603Y-138968857D01*
X197726856Y-139492302D01*
X197306000Y-139492302D01*
X197306000Y-127276661D01*
X197738758Y-127276661D01*
X197950990Y-127790303D01*
X198343630Y-128183629D01*
X198551512Y-128269949D01*
X198345697Y-128354990D01*
X197952371Y-128747630D01*
X197739243Y-129260900D01*
X197738758Y-129816661D01*
X197950990Y-130330303D01*
X198343630Y-130723629D01*
X198551512Y-130809949D01*
X198345697Y-130894990D01*
X197952371Y-131287630D01*
X197739243Y-131800900D01*
X197738758Y-132356661D01*
X197950990Y-132870303D01*
X198343630Y-133263629D01*
X198551512Y-133349949D01*
X198345697Y-133434990D01*
X197952371Y-133827630D01*
X197739243Y-134340900D01*
X197738758Y-134896661D01*
X197950990Y-135410303D01*
X198343630Y-135803629D01*
X198551512Y-135889949D01*
X198345697Y-135974990D01*
X197952371Y-136367630D01*
X197739243Y-136880900D01*
X197738758Y-137436661D01*
X197950990Y-137950303D01*
X198343630Y-138343629D01*
X198535727Y-138423395D01*
X198404857Y-138477603D01*
X198335392Y-138719787D01*
X199136000Y-139520395D01*
X199936608Y-138719787D01*
X199867143Y-138477603D01*
X199726682Y-138427491D01*
X199926303Y-138345010D01*
X200319629Y-137952370D01*
X200532757Y-137439100D01*
X200533242Y-136883339D01*
X200321010Y-136369697D01*
X199928370Y-135976371D01*
X199720488Y-135890051D01*
X199926303Y-135805010D01*
X200319629Y-135412370D01*
X200532757Y-134899100D01*
X200533242Y-134343339D01*
X200321010Y-133829697D01*
X199928370Y-133436371D01*
X199720488Y-133350051D01*
X199926303Y-133265010D01*
X200319629Y-132872370D01*
X200532757Y-132359100D01*
X200533242Y-131803339D01*
X200321010Y-131289697D01*
X199928370Y-130896371D01*
X199720488Y-130810051D01*
X199926303Y-130725010D01*
X200319629Y-130332370D01*
X200532757Y-129819100D01*
X200533242Y-129263339D01*
X200321010Y-128749697D01*
X199928370Y-128356371D01*
X199720488Y-128270051D01*
X199926303Y-128185010D01*
X200319629Y-127792370D01*
X200532757Y-127279100D01*
X200533242Y-126723339D01*
X200321010Y-126209697D01*
X199928370Y-125816371D01*
X199415100Y-125603243D01*
X198859339Y-125602758D01*
X198345697Y-125814990D01*
X197952371Y-126207630D01*
X197739243Y-126720900D01*
X197738758Y-127276661D01*
X197306000Y-127276661D01*
X197306000Y-115850091D01*
X197739000Y-115850091D01*
X197739000Y-116554250D01*
X197897750Y-116713000D01*
X199263000Y-116713000D01*
X199263000Y-115500150D01*
X199517000Y-115500150D01*
X199517000Y-116713000D01*
X200882250Y-116713000D01*
X201041000Y-116554250D01*
X201041000Y-115850091D01*
X200944327Y-115616702D01*
X200765699Y-115438073D01*
X200532310Y-115341400D01*
X199675750Y-115341400D01*
X199517000Y-115500150D01*
X199263000Y-115500150D01*
X199263000Y-115500150D01*
X199104250Y-115341400D01*
X198247690Y-115341400D01*
X198014301Y-115438073D01*
X197835673Y-115616702D01*
X197739000Y-115850091D01*
X197306000Y-115850091D01*
X197306000Y-113537204D01*
X197537043Y-114096372D01*
X198066839Y-114627093D01*
X198759405Y-114914672D01*
X199509305Y-114915326D01*
X200202372Y-114628957D01*
X200733093Y-114099161D01*
X201020672Y-113406595D01*
X201021326Y-112656695D01*
X200734957Y-111963628D01*
X200205161Y-111432907D01*
X199512595Y-111145328D01*
X198762695Y-111144674D01*
X198069628Y-111431043D01*
X197538907Y-111960839D01*
X197306000Y-112521740D01*
X197306000Y-107600750D01*
X197637400Y-107600750D01*
X197637400Y-108558910D01*
X197734073Y-108792299D01*
X197912702Y-108970927D01*
X198146091Y-109067600D01*
X199104250Y-109067600D01*
X199263000Y-108908850D01*
X199263000Y-107442000D01*
X199517000Y-107442000D01*
X199517000Y-108908850D01*
X199675750Y-109067600D01*
X200633909Y-109067600D01*
X200867298Y-108970927D01*
X201045927Y-108792299D01*
X201142600Y-108558910D01*
X201142600Y-107600750D01*
X200983850Y-107442000D01*
X199517000Y-107442000D01*
X199263000Y-107442000D01*
X199263000Y-107442000D01*
X197796150Y-107442000D01*
X197637400Y-107600750D01*
X197306000Y-107600750D01*
X197306000Y-106071090D01*
X197637400Y-106071090D01*
X197637400Y-107029250D01*
X197796150Y-107188000D01*
X199263000Y-107188000D01*
X199263000Y-105721150D01*
X199517000Y-105721150D01*
X199517000Y-107188000D01*
X200983850Y-107188000D01*
X201142600Y-107029250D01*
X201142600Y-106071090D01*
X201045927Y-105837701D01*
X200867298Y-105659073D01*
X200633909Y-105562400D01*
X199675750Y-105562400D01*
X199517000Y-105721150D01*
X199263000Y-105721150D01*
X199263000Y-105721150D01*
X199104250Y-105562400D01*
X198146091Y-105562400D01*
X197912702Y-105659073D01*
X197734073Y-105837701D01*
X197637400Y-106071090D01*
X197306000Y-106071090D01*
X197306000Y-103790750D01*
X197637400Y-103790750D01*
X197637400Y-104748910D01*
X197734073Y-104982299D01*
X197912702Y-105160927D01*
X198146091Y-105257600D01*
X199104250Y-105257600D01*
X199263000Y-105098850D01*
X199263000Y-103632000D01*
X199517000Y-103632000D01*
X199517000Y-105098850D01*
X199675750Y-105257600D01*
X200633909Y-105257600D01*
X200867298Y-105160927D01*
X201045927Y-104982299D01*
X201142600Y-104748910D01*
X201142600Y-103790750D01*
X200983850Y-103632000D01*
X199517000Y-103632000D01*
X199263000Y-103632000D01*
X199263000Y-103632000D01*
X197796150Y-103632000D01*
X197637400Y-103790750D01*
X197306000Y-103790750D01*
X197306000Y-102261090D01*
X197637400Y-102261090D01*
X197637400Y-103219250D01*
X197796150Y-103378000D01*
X199263000Y-103378000D01*
X199263000Y-101911150D01*
X199517000Y-101911150D01*
X199517000Y-103378000D01*
X200983850Y-103378000D01*
X201142600Y-103219250D01*
X201142600Y-102261090D01*
X201045927Y-102027701D01*
X200867298Y-101849073D01*
X200633909Y-101752400D01*
X199675750Y-101752400D01*
X199517000Y-101911150D01*
X199263000Y-101911150D01*
X199263000Y-101911150D01*
X199104250Y-101752400D01*
X198146091Y-101752400D01*
X197912702Y-101849073D01*
X197734073Y-102027701D01*
X197637400Y-102261090D01*
X197306000Y-102261090D01*
X197306000Y-100862000D01*
X209221857Y-100862000D01*
X209221857Y-104832000D01*
X218006143Y-104832000D01*
X218006143Y-100862000D01*
X209221857Y-100862000D01*
X197306000Y-100862000D01*
X197306000Y-99770000D01*
X249226000Y-99770000D01*
X249226000Y-102972680D01*
X249226000Y-102972680D01*
G37*
X249226000Y-102972680D02*
X249126673Y-102821473D01*
X248915640Y-102679023D01*
X248666000Y-102628960D01*
X246634000Y-102628960D01*
X246391877Y-102675937D01*
X246179073Y-102815727D01*
X246036623Y-103026760D01*
X245986560Y-103276400D01*
X245986560Y-105003600D01*
X246033537Y-105245723D01*
X246173327Y-105458527D01*
X246384360Y-105600977D01*
X246422963Y-105608718D01*
X246405585Y-105620330D01*
X246080729Y-106106511D01*
X245982003Y-106602839D01*
X244276842Y-108308000D01*
X232200201Y-108308000D01*
X232198010Y-108302697D01*
X231805370Y-107909371D01*
X231292100Y-107696243D01*
X230736339Y-107695758D01*
X230320768Y-107867468D01*
X230746236Y-107442000D01*
X241229515Y-107442000D01*
X241523630Y-107736629D01*
X242036900Y-107949757D01*
X242592661Y-107950242D01*
X243106303Y-107738010D01*
X243499629Y-107345370D01*
X243712757Y-106832100D01*
X243713242Y-106276339D01*
X243501010Y-105762697D01*
X243108370Y-105369371D01*
X242595100Y-105156243D01*
X242039339Y-105155758D01*
X241525697Y-105367990D01*
X241229170Y-105664000D01*
X230378000Y-105664000D01*
X230037795Y-105731670D01*
X229749382Y-105924382D01*
X217309764Y-118364000D01*
X204851000Y-118364000D01*
X204817116Y-118370740D01*
X204782817Y-118366619D01*
X204648060Y-118404367D01*
X204510794Y-118431671D01*
X204482069Y-118450865D01*
X204448803Y-118460183D01*
X204338748Y-118546628D01*
X204222382Y-118624382D01*
X204203188Y-118653108D01*
X204176021Y-118674447D01*
X202591527Y-120523023D01*
X202288339Y-120522758D01*
X201774697Y-120734990D01*
X201478170Y-121031000D01*
X200748453Y-121031000D01*
X200634415Y-120860330D01*
X200319634Y-120650000D01*
X200634415Y-120439670D01*
X200959271Y-119953489D01*
X201073345Y-119380000D01*
X200959271Y-118806511D01*
X200634415Y-118320330D01*
X200612220Y-118305500D01*
X200765699Y-118241927D01*
X200944327Y-118063298D01*
X201041000Y-117829909D01*
X201041000Y-117125750D01*
X200882250Y-116967000D01*
X199517000Y-116967000D01*
X199517000Y-116987000D01*
X199263000Y-116987000D01*
X199263000Y-116967000D01*
X197897750Y-116967000D01*
X197739000Y-117125750D01*
X197739000Y-117829909D01*
X197835673Y-118063298D01*
X198014301Y-118241927D01*
X198167780Y-118305500D01*
X198145585Y-118320330D01*
X197820729Y-118806511D01*
X197706655Y-119380000D01*
X197820729Y-119953489D01*
X198145585Y-120439670D01*
X198460366Y-120650000D01*
X198145585Y-120860330D01*
X197820729Y-121346511D01*
X197706655Y-121920000D01*
X197820729Y-122493489D01*
X198145585Y-122979670D01*
X198631766Y-123304526D01*
X199205255Y-123418600D01*
X199574745Y-123418600D01*
X200148234Y-123304526D01*
X200634415Y-122979670D01*
X200748453Y-122809000D01*
X201478515Y-122809000D01*
X201772630Y-123103629D01*
X202285900Y-123316757D01*
X202841661Y-123317242D01*
X203355303Y-123105010D01*
X203748629Y-122712370D01*
X203961757Y-122199100D01*
X203962231Y-121655927D01*
X205259882Y-120142000D01*
X217678000Y-120142000D01*
X218018206Y-120074329D01*
X218306618Y-119881618D01*
X220725900Y-117462336D01*
X220725877Y-117487887D01*
X217563643Y-120650121D01*
X217147339Y-120649758D01*
X216633697Y-120861990D01*
X216240371Y-121254630D01*
X216027243Y-121767900D01*
X216026758Y-122323661D01*
X216238990Y-122837303D01*
X216631630Y-123230629D01*
X217144900Y-123443757D01*
X217700661Y-123444242D01*
X218214303Y-123232010D01*
X218607629Y-122839370D01*
X218820757Y-122326100D01*
X218821123Y-121907113D01*
X221983357Y-118744879D01*
X222399661Y-118745242D01*
X222913303Y-118533010D01*
X223306629Y-118140370D01*
X223519757Y-117627100D01*
X223520242Y-117071339D01*
X223308010Y-116557697D01*
X222915370Y-116164371D01*
X222402100Y-115951243D01*
X222237137Y-115951099D01*
X229788019Y-108400217D01*
X229616243Y-108813900D01*
X229615758Y-109369661D01*
X229827990Y-109883303D01*
X230220630Y-110276629D01*
X230733900Y-110489757D01*
X231289661Y-110490242D01*
X231803303Y-110278010D01*
X232196629Y-109885370D01*
X232199689Y-109878000D01*
X244602000Y-109878000D01*
X244902407Y-109818245D01*
X245157079Y-109648079D01*
X246061382Y-108743776D01*
X245966655Y-109220000D01*
X246016280Y-109469484D01*
X243719382Y-111766382D01*
X243526671Y-112054794D01*
X243459000Y-112395000D01*
X243459000Y-118618000D01*
X243526671Y-118958206D01*
X243638788Y-119126000D01*
X243719382Y-119246618D01*
X244856000Y-120383236D01*
X244856000Y-123665929D01*
X244815206Y-123638671D01*
X244475000Y-123571000D01*
X244134794Y-123638671D01*
X243846382Y-123831382D01*
X243653671Y-124119794D01*
X243586000Y-124460000D01*
X243586000Y-151396764D01*
X241941382Y-153041382D01*
X241748671Y-153329794D01*
X241681000Y-153670000D01*
X241681000Y-162471547D01*
X241510330Y-162585585D01*
X241300000Y-162900366D01*
X241089670Y-162585585D01*
X240603489Y-162260729D01*
X240030000Y-162146655D01*
X239456511Y-162260729D01*
X238970330Y-162585585D01*
X238959785Y-162601367D01*
X238954063Y-162571877D01*
X238814273Y-162359073D01*
X238603240Y-162216623D01*
X238353600Y-162166560D01*
X236626400Y-162166560D01*
X236384277Y-162213537D01*
X236171473Y-162353327D01*
X236029023Y-162564360D01*
X235978960Y-162814000D01*
X235978960Y-164236724D01*
X235839000Y-164096764D01*
X235839000Y-160020000D01*
X235771329Y-159679794D01*
X235578618Y-159391382D01*
X235290206Y-159198671D01*
X234950000Y-159131000D01*
X233934000Y-159131000D01*
X233934000Y-131813236D01*
X235953236Y-129794000D01*
X237490000Y-129794000D01*
X237830206Y-129726329D01*
X238118618Y-129533618D01*
X239388618Y-128263618D01*
X239469374Y-128142758D01*
X239581329Y-127975206D01*
X239649000Y-127635000D01*
X239649000Y-119888000D01*
X239610035Y-119692107D01*
X239896618Y-119500618D01*
X240017357Y-119379879D01*
X240433661Y-119380242D01*
X240947303Y-119168010D01*
X241340629Y-118775370D01*
X241553757Y-118262100D01*
X241554242Y-117706339D01*
X241342010Y-117192697D01*
X240949370Y-116799371D01*
X240436100Y-116586243D01*
X239880339Y-116585758D01*
X239366697Y-116797990D01*
X239127117Y-117037153D01*
X238929010Y-116557697D01*
X238536370Y-116164371D01*
X238023100Y-115951243D01*
X237467339Y-115950758D01*
X236953697Y-116162990D01*
X236657170Y-116459000D01*
X234893830Y-116459000D01*
X234990629Y-116362370D01*
X235203757Y-115849100D01*
X235204242Y-115293339D01*
X234992010Y-114779697D01*
X234599370Y-114386371D01*
X234086100Y-114173243D01*
X233530339Y-114172758D01*
X233016697Y-114384990D01*
X232623371Y-114777630D01*
X232567576Y-114912000D01*
X230759000Y-114912000D01*
X230458593Y-114971755D01*
X230203921Y-115141921D01*
X227296899Y-118048943D01*
X227291600Y-118046743D01*
X226735839Y-118046258D01*
X226222197Y-118258490D01*
X225828871Y-118651130D01*
X225615743Y-119164400D01*
X225615258Y-119720161D01*
X225827490Y-120233803D01*
X226220130Y-120627129D01*
X226580851Y-120776913D01*
X220611764Y-126746000D01*
X210185000Y-126746000D01*
X209844794Y-126813671D01*
X209556382Y-127006382D01*
X207016382Y-129546382D01*
X206823671Y-129834794D01*
X206756000Y-130175000D01*
X206756000Y-158576724D01*
X206063156Y-159131000D01*
X200222485Y-159131000D01*
X199928370Y-158836371D01*
X199720488Y-158750051D01*
X199926303Y-158665010D01*
X200319629Y-158272370D01*
X200532757Y-157759100D01*
X200533242Y-157203339D01*
X200321010Y-156689697D01*
X199928370Y-156296371D01*
X199720488Y-156210051D01*
X199926303Y-156125010D01*
X200319629Y-155732370D01*
X200532757Y-155219100D01*
X200533242Y-154663339D01*
X200321010Y-154149697D01*
X199928370Y-153756371D01*
X199720488Y-153670051D01*
X199926303Y-153585010D01*
X200319629Y-153192370D01*
X200532757Y-152679100D01*
X200533242Y-152123339D01*
X200321010Y-151609697D01*
X199928370Y-151216371D01*
X199720488Y-151130051D01*
X199926303Y-151045010D01*
X200319629Y-150652370D01*
X200532757Y-150139100D01*
X200533242Y-149583339D01*
X200321010Y-149069697D01*
X199928370Y-148676371D01*
X199415100Y-148463243D01*
X198859339Y-148462758D01*
X198345697Y-148674990D01*
X197952371Y-149067630D01*
X197739243Y-149580900D01*
X197738758Y-150136661D01*
X197950990Y-150650303D01*
X198343630Y-151043629D01*
X198551512Y-151129949D01*
X198345697Y-151214990D01*
X197952371Y-151607630D01*
X197739243Y-152120900D01*
X197738758Y-152676661D01*
X197950990Y-153190303D01*
X198343630Y-153583629D01*
X198551512Y-153669949D01*
X198345697Y-153754990D01*
X197952371Y-154147630D01*
X197739243Y-154660900D01*
X197738758Y-155216661D01*
X197950990Y-155730303D01*
X198343630Y-156123629D01*
X198551512Y-156209949D01*
X198345697Y-156294990D01*
X197952371Y-156687630D01*
X197739243Y-157200900D01*
X197738758Y-157756661D01*
X197950990Y-158270303D01*
X198343630Y-158663629D01*
X198551512Y-158749949D01*
X198345697Y-158834990D01*
X197952371Y-159227630D01*
X197739243Y-159740900D01*
X197738758Y-160296661D01*
X197950990Y-160810303D01*
X198343630Y-161203629D01*
X198551512Y-161289949D01*
X198345697Y-161374990D01*
X197952371Y-161767630D01*
X197739243Y-162280900D01*
X197738758Y-162836661D01*
X197950990Y-163350303D01*
X198343630Y-163743629D01*
X198856900Y-163956757D01*
X199412661Y-163957242D01*
X199926303Y-163745010D01*
X200222830Y-163449000D01*
X203275582Y-163449000D01*
X203149628Y-163501043D01*
X202618907Y-164030839D01*
X202331328Y-164723405D01*
X202330674Y-165473305D01*
X202617043Y-166166372D01*
X203146839Y-166697093D01*
X203707740Y-166930000D01*
X197306000Y-166930000D01*
X197306000Y-145056661D01*
X197738758Y-145056661D01*
X197950990Y-145570303D01*
X198343630Y-145963629D01*
X198856900Y-146176757D01*
X199412661Y-146177242D01*
X199926303Y-145965010D01*
X200319629Y-145572370D01*
X200532757Y-145059100D01*
X200533242Y-144503339D01*
X200321010Y-143989697D01*
X199928370Y-143596371D01*
X199736273Y-143516605D01*
X199867143Y-143462397D01*
X199936608Y-143220213D01*
X199136000Y-142419605D01*
X198335392Y-143220213D01*
X198404857Y-143462397D01*
X198545318Y-143512509D01*
X198345697Y-143594990D01*
X197952371Y-143987630D01*
X197739243Y-144500900D01*
X197738758Y-145056661D01*
X197306000Y-145056661D01*
X197306000Y-142032302D01*
X197726856Y-142032302D01*
X197754638Y-142587368D01*
X197913603Y-142971143D01*
X198155787Y-143040608D01*
X198956395Y-142240000D01*
X199315605Y-142240000D01*
X200116213Y-143040608D01*
X200358397Y-142971143D01*
X200545144Y-142447698D01*
X200542377Y-142392400D01*
X202704960Y-142392400D01*
X202704960Y-144627600D01*
X202751937Y-144869723D01*
X202891727Y-145082527D01*
X203102760Y-145224977D01*
X203352400Y-145275040D01*
X205587600Y-145275040D01*
X205829723Y-145228063D01*
X206042527Y-145088273D01*
X206184977Y-144877240D01*
X206235040Y-144627600D01*
X206235040Y-142392400D01*
X206188063Y-142150277D01*
X206048273Y-141937473D01*
X205837240Y-141795023D01*
X205587600Y-141744960D01*
X203352400Y-141744960D01*
X203110277Y-141791937D01*
X202897473Y-141931727D01*
X202755023Y-142142760D01*
X202704960Y-142392400D01*
X200542377Y-142392400D01*
X200517362Y-141892632D01*
X200358397Y-141508857D01*
X200116213Y-141439392D01*
X199315605Y-142240000D01*
X198956395Y-142240000D01*
X198956395Y-142240000D01*
X198155787Y-141439392D01*
X197913603Y-141508857D01*
X197726856Y-142032302D01*
X197306000Y-142032302D01*
X197306000Y-140680213D01*
X198335392Y-140680213D01*
X198404857Y-140922397D01*
X198528344Y-140966453D01*
X198404857Y-141017603D01*
X198335392Y-141259787D01*
X199136000Y-142060395D01*
X199936608Y-141259787D01*
X199867143Y-141017603D01*
X199743656Y-140973547D01*
X199867143Y-140922397D01*
X199936608Y-140680213D01*
X199136000Y-139879605D01*
X198335392Y-140680213D01*
X197306000Y-140680213D01*
X197306000Y-139492302D01*
X197726856Y-139492302D01*
X197754638Y-140047368D01*
X197913603Y-140431143D01*
X198155787Y-140500608D01*
X198956395Y-139700000D01*
X199315605Y-139700000D01*
X200116213Y-140500608D01*
X200358397Y-140431143D01*
X200545144Y-139907698D01*
X200517362Y-139352632D01*
X200358397Y-138968857D01*
X200116213Y-138899392D01*
X199315605Y-139700000D01*
X198956395Y-139700000D01*
X198956395Y-139700000D01*
X198155787Y-138899392D01*
X197913603Y-138968857D01*
X197726856Y-139492302D01*
X197306000Y-139492302D01*
X197306000Y-127276661D01*
X197738758Y-127276661D01*
X197950990Y-127790303D01*
X198343630Y-128183629D01*
X198551512Y-128269949D01*
X198345697Y-128354990D01*
X197952371Y-128747630D01*
X197739243Y-129260900D01*
X197738758Y-129816661D01*
X197950990Y-130330303D01*
X198343630Y-130723629D01*
X198551512Y-130809949D01*
X198345697Y-130894990D01*
X197952371Y-131287630D01*
X197739243Y-131800900D01*
X197738758Y-132356661D01*
X197950990Y-132870303D01*
X198343630Y-133263629D01*
X198551512Y-133349949D01*
X198345697Y-133434990D01*
X197952371Y-133827630D01*
X197739243Y-134340900D01*
X197738758Y-134896661D01*
X197950990Y-135410303D01*
X198343630Y-135803629D01*
X198551512Y-135889949D01*
X198345697Y-135974990D01*
X197952371Y-136367630D01*
X197739243Y-136880900D01*
X197738758Y-137436661D01*
X197950990Y-137950303D01*
X198343630Y-138343629D01*
X198535727Y-138423395D01*
X198404857Y-138477603D01*
X198335392Y-138719787D01*
X199136000Y-139520395D01*
X199936608Y-138719787D01*
X199867143Y-138477603D01*
X199726682Y-138427491D01*
X199926303Y-138345010D01*
X200319629Y-137952370D01*
X200532757Y-137439100D01*
X200533242Y-136883339D01*
X200321010Y-136369697D01*
X199928370Y-135976371D01*
X199720488Y-135890051D01*
X199926303Y-135805010D01*
X200319629Y-135412370D01*
X200532757Y-134899100D01*
X200533242Y-134343339D01*
X200321010Y-133829697D01*
X199928370Y-133436371D01*
X199720488Y-133350051D01*
X199926303Y-133265010D01*
X200319629Y-132872370D01*
X200532757Y-132359100D01*
X200533242Y-131803339D01*
X200321010Y-131289697D01*
X199928370Y-130896371D01*
X199720488Y-130810051D01*
X199926303Y-130725010D01*
X200319629Y-130332370D01*
X200532757Y-129819100D01*
X200533242Y-129263339D01*
X200321010Y-128749697D01*
X199928370Y-128356371D01*
X199720488Y-128270051D01*
X199926303Y-128185010D01*
X200319629Y-127792370D01*
X200532757Y-127279100D01*
X200533242Y-126723339D01*
X200321010Y-126209697D01*
X199928370Y-125816371D01*
X199415100Y-125603243D01*
X198859339Y-125602758D01*
X198345697Y-125814990D01*
X197952371Y-126207630D01*
X197739243Y-126720900D01*
X197738758Y-127276661D01*
X197306000Y-127276661D01*
X197306000Y-115850091D01*
X197739000Y-115850091D01*
X197739000Y-116554250D01*
X197897750Y-116713000D01*
X199263000Y-116713000D01*
X199263000Y-115500150D01*
X199517000Y-115500150D01*
X199517000Y-116713000D01*
X200882250Y-116713000D01*
X201041000Y-116554250D01*
X201041000Y-115850091D01*
X200944327Y-115616702D01*
X200765699Y-115438073D01*
X200532310Y-115341400D01*
X199675750Y-115341400D01*
X199517000Y-115500150D01*
X199263000Y-115500150D01*
X199263000Y-115500150D01*
X199104250Y-115341400D01*
X198247690Y-115341400D01*
X198014301Y-115438073D01*
X197835673Y-115616702D01*
X197739000Y-115850091D01*
X197306000Y-115850091D01*
X197306000Y-113537204D01*
X197537043Y-114096372D01*
X198066839Y-114627093D01*
X198759405Y-114914672D01*
X199509305Y-114915326D01*
X200202372Y-114628957D01*
X200733093Y-114099161D01*
X201020672Y-113406595D01*
X201021326Y-112656695D01*
X200734957Y-111963628D01*
X200205161Y-111432907D01*
X199512595Y-111145328D01*
X198762695Y-111144674D01*
X198069628Y-111431043D01*
X197538907Y-111960839D01*
X197306000Y-112521740D01*
X197306000Y-107600750D01*
X197637400Y-107600750D01*
X197637400Y-108558910D01*
X197734073Y-108792299D01*
X197912702Y-108970927D01*
X198146091Y-109067600D01*
X199104250Y-109067600D01*
X199263000Y-108908850D01*
X199263000Y-107442000D01*
X199517000Y-107442000D01*
X199517000Y-108908850D01*
X199675750Y-109067600D01*
X200633909Y-109067600D01*
X200867298Y-108970927D01*
X201045927Y-108792299D01*
X201142600Y-108558910D01*
X201142600Y-107600750D01*
X200983850Y-107442000D01*
X199517000Y-107442000D01*
X199263000Y-107442000D01*
X199263000Y-107442000D01*
X197796150Y-107442000D01*
X197637400Y-107600750D01*
X197306000Y-107600750D01*
X197306000Y-106071090D01*
X197637400Y-106071090D01*
X197637400Y-107029250D01*
X197796150Y-107188000D01*
X199263000Y-107188000D01*
X199263000Y-105721150D01*
X199517000Y-105721150D01*
X199517000Y-107188000D01*
X200983850Y-107188000D01*
X201142600Y-107029250D01*
X201142600Y-106071090D01*
X201045927Y-105837701D01*
X200867298Y-105659073D01*
X200633909Y-105562400D01*
X199675750Y-105562400D01*
X199517000Y-105721150D01*
X199263000Y-105721150D01*
X199263000Y-105721150D01*
X199104250Y-105562400D01*
X198146091Y-105562400D01*
X197912702Y-105659073D01*
X197734073Y-105837701D01*
X197637400Y-106071090D01*
X197306000Y-106071090D01*
X197306000Y-103790750D01*
X197637400Y-103790750D01*
X197637400Y-104748910D01*
X197734073Y-104982299D01*
X197912702Y-105160927D01*
X198146091Y-105257600D01*
X199104250Y-105257600D01*
X199263000Y-105098850D01*
X199263000Y-103632000D01*
X199517000Y-103632000D01*
X199517000Y-105098850D01*
X199675750Y-105257600D01*
X200633909Y-105257600D01*
X200867298Y-105160927D01*
X201045927Y-104982299D01*
X201142600Y-104748910D01*
X201142600Y-103790750D01*
X200983850Y-103632000D01*
X199517000Y-103632000D01*
X199263000Y-103632000D01*
X199263000Y-103632000D01*
X197796150Y-103632000D01*
X197637400Y-103790750D01*
X197306000Y-103790750D01*
X197306000Y-102261090D01*
X197637400Y-102261090D01*
X197637400Y-103219250D01*
X197796150Y-103378000D01*
X199263000Y-103378000D01*
X199263000Y-101911150D01*
X199517000Y-101911150D01*
X199517000Y-103378000D01*
X200983850Y-103378000D01*
X201142600Y-103219250D01*
X201142600Y-102261090D01*
X201045927Y-102027701D01*
X200867298Y-101849073D01*
X200633909Y-101752400D01*
X199675750Y-101752400D01*
X199517000Y-101911150D01*
X199263000Y-101911150D01*
X199263000Y-101911150D01*
X199104250Y-101752400D01*
X198146091Y-101752400D01*
X197912702Y-101849073D01*
X197734073Y-102027701D01*
X197637400Y-102261090D01*
X197306000Y-102261090D01*
X197306000Y-100862000D01*
X209221857Y-100862000D01*
X209221857Y-104832000D01*
X218006143Y-104832000D01*
X218006143Y-100862000D01*
X209221857Y-100862000D01*
X197306000Y-100862000D01*
X197306000Y-99770000D01*
X249226000Y-99770000D01*
X249226000Y-102972680D01*
G36*
X249226000Y-113792796D02*
X248994957Y-113233628D01*
X248465161Y-112702907D01*
X247772595Y-112415328D01*
X247022695Y-112414674D01*
X246329628Y-112701043D01*
X245798907Y-113230839D01*
X245511328Y-113923405D01*
X245510674Y-114673305D01*
X245797043Y-115366372D01*
X246326839Y-115897093D01*
X247019405Y-116184672D01*
X247769305Y-116185326D01*
X248462372Y-115898957D01*
X248993093Y-115369161D01*
X249226000Y-114808260D01*
X249226000Y-166930000D01*
X232663204Y-166930000D01*
X233222372Y-166698957D01*
X233753093Y-166169161D01*
X234040672Y-165476595D01*
X234041326Y-164726695D01*
X233754957Y-164033628D01*
X233225161Y-163502907D01*
X232532595Y-163215328D01*
X231782695Y-163214674D01*
X231089628Y-163501043D01*
X230558907Y-164030839D01*
X230271328Y-164723405D01*
X230270674Y-165473305D01*
X230557043Y-166166372D01*
X231086839Y-166697093D01*
X231647740Y-166930000D01*
X204723204Y-166930000D01*
X205282372Y-166698957D01*
X205813093Y-166169161D01*
X206100672Y-165476595D01*
X206101326Y-164726695D01*
X205814957Y-164033628D01*
X205285161Y-163502907D01*
X205155339Y-163449000D01*
X207645000Y-163449000D01*
X207767738Y-163424586D01*
X207892424Y-163413875D01*
X207936504Y-163391016D01*
X207985206Y-163381329D01*
X208089262Y-163311801D01*
X208200354Y-163254192D01*
X209470354Y-162238192D01*
X209502331Y-162200205D01*
X209543618Y-162172618D01*
X209613144Y-162068565D01*
X209693737Y-161972825D01*
X209708743Y-161925491D01*
X209736329Y-161884206D01*
X209760743Y-161761469D01*
X209798563Y-161642173D01*
X209794313Y-161592699D01*
X209804000Y-161544000D01*
X209804000Y-142392400D01*
X216039960Y-142392400D01*
X216039960Y-144627600D01*
X216086937Y-144869723D01*
X216226727Y-145082527D01*
X216437760Y-145224977D01*
X216687400Y-145275040D01*
X218922600Y-145275040D01*
X219164723Y-145228063D01*
X219377527Y-145088273D01*
X219519977Y-144877240D01*
X219570040Y-144627600D01*
X219570040Y-142392400D01*
X219523063Y-142150277D01*
X219383273Y-141937473D01*
X219172240Y-141795023D01*
X218922600Y-141744960D01*
X216687400Y-141744960D01*
X216445277Y-141791937D01*
X216232473Y-141931727D01*
X216090023Y-142142760D01*
X216039960Y-142392400D01*
X209804000Y-142392400D01*
X209804000Y-131178236D01*
X211188236Y-129794000D01*
X221615000Y-129794000D01*
X221955206Y-129726329D01*
X222243618Y-129533618D01*
X232016236Y-119761000D01*
X237896262Y-119761000D01*
X237871000Y-119888000D01*
X237871000Y-127266764D01*
X237121764Y-128016000D01*
X235585000Y-128016000D01*
X235244795Y-128083670D01*
X234956382Y-128276382D01*
X232416382Y-130816382D01*
X232223671Y-131104794D01*
X232156000Y-131445000D01*
X232156000Y-145681764D01*
X228606382Y-149231382D01*
X228413671Y-149519794D01*
X228346000Y-149860000D01*
X228346000Y-159131000D01*
X227330000Y-159131000D01*
X226989794Y-159198671D01*
X226701382Y-159391382D01*
X226508671Y-159679794D01*
X226441000Y-160020000D01*
X226441000Y-162471547D01*
X226270330Y-162585585D01*
X226060000Y-162900366D01*
X225849670Y-162585585D01*
X225363489Y-162260729D01*
X224790000Y-162146655D01*
X224216511Y-162260729D01*
X223730330Y-162585585D01*
X223719785Y-162601367D01*
X223714063Y-162571877D01*
X223574273Y-162359073D01*
X223363240Y-162216623D01*
X223113600Y-162166560D01*
X221386400Y-162166560D01*
X221144277Y-162213537D01*
X220931473Y-162353327D01*
X220789023Y-162564360D01*
X220738960Y-162814000D01*
X220738960Y-164236724D01*
X220599000Y-164096764D01*
X220599000Y-160020000D01*
X220531329Y-159679794D01*
X220338618Y-159391382D01*
X220050206Y-159198671D01*
X219710000Y-159131000D01*
X218694000Y-159131000D01*
X218694000Y-149593236D01*
X222878618Y-145408618D01*
X222967872Y-145275040D01*
X223071329Y-145120206D01*
X223139000Y-144780000D01*
X223139000Y-132956236D01*
X226936236Y-129159000D01*
X231775000Y-129159000D01*
X232115206Y-129091329D01*
X232403618Y-128898618D01*
X234308618Y-126993618D01*
X234416360Y-126832371D01*
X234501329Y-126705206D01*
X234569000Y-126365000D01*
X234569000Y-121666000D01*
X234501329Y-121325794D01*
X234308618Y-121037382D01*
X234020206Y-120844671D01*
X233680000Y-120777000D01*
X233339794Y-120844671D01*
X233051382Y-121037382D01*
X232858671Y-121325794D01*
X232791000Y-121666000D01*
X232791000Y-125996764D01*
X231406764Y-127381000D01*
X226568000Y-127381000D01*
X226227794Y-127448671D01*
X226009986Y-127594206D01*
X225939382Y-127641382D01*
X221621382Y-131959382D01*
X221428671Y-132247794D01*
X221361000Y-132588000D01*
X221361000Y-144411764D01*
X217176382Y-148596382D01*
X216983671Y-148884794D01*
X216916000Y-149225000D01*
X216916000Y-160020000D01*
X216983671Y-160360206D01*
X217176382Y-160648618D01*
X217464794Y-160841329D01*
X217805000Y-160909000D01*
X218821000Y-160909000D01*
X218821000Y-162941000D01*
X217093325Y-162941000D01*
X216959670Y-162740971D01*
X216473489Y-162416115D01*
X215900000Y-162302041D01*
X215326511Y-162416115D01*
X214840330Y-162740971D01*
X214830234Y-162756081D01*
X214824063Y-162724277D01*
X214684273Y-162511473D01*
X214473240Y-162369023D01*
X214223600Y-162318960D01*
X212496400Y-162318960D01*
X212254277Y-162365937D01*
X212041473Y-162505727D01*
X211899023Y-162716760D01*
X211848960Y-162966400D01*
X211848960Y-164693600D01*
X211895937Y-164935723D01*
X212035727Y-165148527D01*
X212246760Y-165290977D01*
X212496400Y-165341040D01*
X214223600Y-165341040D01*
X214465723Y-165294063D01*
X214678527Y-165154273D01*
X214820977Y-164943240D01*
X214829179Y-164902340D01*
X214840330Y-164919029D01*
X215326511Y-165243885D01*
X215900000Y-165357959D01*
X216473489Y-165243885D01*
X216959670Y-164919029D01*
X217093325Y-164719000D01*
X218871524Y-164719000D01*
X218888671Y-164805206D01*
X219068551Y-165074415D01*
X219081382Y-165093618D01*
X220351382Y-166363618D01*
X220639794Y-166556329D01*
X220980000Y-166624000D01*
X226695000Y-166624000D01*
X227035206Y-166556329D01*
X227323618Y-166363618D01*
X227958618Y-165728618D01*
X228151330Y-165440205D01*
X228198709Y-165202011D01*
X228389670Y-165074415D01*
X228714526Y-164588234D01*
X228828600Y-164014745D01*
X228828600Y-163645255D01*
X228714526Y-163071766D01*
X228389670Y-162585585D01*
X228219000Y-162471547D01*
X228219000Y-160909000D01*
X234061000Y-160909000D01*
X234061000Y-164465000D01*
X234128671Y-164805206D01*
X234308551Y-165074415D01*
X234321382Y-165093618D01*
X235591382Y-166363618D01*
X235879794Y-166556329D01*
X236220000Y-166624000D01*
X241935000Y-166624000D01*
X242275206Y-166556329D01*
X242563618Y-166363618D01*
X243198618Y-165728618D01*
X243391330Y-165440205D01*
X243438709Y-165202011D01*
X243629670Y-165074415D01*
X243954526Y-164588234D01*
X244068600Y-164014745D01*
X244068600Y-163645255D01*
X243954526Y-163071766D01*
X243629670Y-162585585D01*
X243459000Y-162471547D01*
X243459000Y-154038236D01*
X244856000Y-152641236D01*
X244856000Y-153289000D01*
X244923671Y-153629206D01*
X245008640Y-153756371D01*
X245116382Y-153917618D01*
X245999121Y-154800357D01*
X245998758Y-155216661D01*
X246210990Y-155730303D01*
X246603630Y-156123629D01*
X246811512Y-156209949D01*
X246605697Y-156294990D01*
X246212371Y-156687630D01*
X245999243Y-157200900D01*
X245998758Y-157756661D01*
X246210990Y-158270303D01*
X246603630Y-158663629D01*
X246811512Y-158749949D01*
X246605697Y-158834990D01*
X246212371Y-159227630D01*
X245999243Y-159740900D01*
X245998758Y-160296661D01*
X246210990Y-160810303D01*
X246603630Y-161203629D01*
X246811512Y-161289949D01*
X246605697Y-161374990D01*
X246212371Y-161767630D01*
X245999243Y-162280900D01*
X245998758Y-162836661D01*
X246210990Y-163350303D01*
X246603630Y-163743629D01*
X247116900Y-163956757D01*
X247672661Y-163957242D01*
X248186303Y-163745010D01*
X248579629Y-163352370D01*
X248792757Y-162839100D01*
X248793242Y-162283339D01*
X248581010Y-161769697D01*
X248188370Y-161376371D01*
X247980488Y-161290051D01*
X248186303Y-161205010D01*
X248579629Y-160812370D01*
X248792757Y-160299100D01*
X248793242Y-159743339D01*
X248581010Y-159229697D01*
X248188370Y-158836371D01*
X247980488Y-158750051D01*
X248186303Y-158665010D01*
X248579629Y-158272370D01*
X248792757Y-157759100D01*
X248793242Y-157203339D01*
X248581010Y-156689697D01*
X248188370Y-156296371D01*
X247980488Y-156210051D01*
X248186303Y-156125010D01*
X248579629Y-155732370D01*
X248792757Y-155219100D01*
X248793242Y-154663339D01*
X248581010Y-154149697D01*
X248188370Y-153756371D01*
X247980488Y-153670051D01*
X248186303Y-153585010D01*
X248579629Y-153192370D01*
X248792757Y-152679100D01*
X248793242Y-152123339D01*
X248581010Y-151609697D01*
X248188370Y-151216371D01*
X247980488Y-151130051D01*
X248186303Y-151045010D01*
X248579629Y-150652370D01*
X248792757Y-150139100D01*
X248793242Y-149583339D01*
X248581010Y-149069697D01*
X248188370Y-148676371D01*
X247980488Y-148590051D01*
X248186303Y-148505010D01*
X248579629Y-148112370D01*
X248792757Y-147599100D01*
X248793242Y-147043339D01*
X248581010Y-146529697D01*
X248188370Y-146136371D01*
X247980488Y-146050051D01*
X248186303Y-145965010D01*
X248579629Y-145572370D01*
X248792757Y-145059100D01*
X248793242Y-144503339D01*
X248581010Y-143989697D01*
X248188370Y-143596371D01*
X247675100Y-143383243D01*
X247119339Y-143382758D01*
X246634000Y-143583295D01*
X246634000Y-141912240D01*
X247116900Y-142112757D01*
X247672661Y-142113242D01*
X248186303Y-141901010D01*
X248579629Y-141508370D01*
X248792757Y-140995100D01*
X248793242Y-140439339D01*
X248581010Y-139925697D01*
X248188370Y-139532371D01*
X247980488Y-139446051D01*
X248186303Y-139361010D01*
X248579629Y-138968370D01*
X248792757Y-138455100D01*
X248793242Y-137899339D01*
X248581010Y-137385697D01*
X248188370Y-136992371D01*
X247980488Y-136906051D01*
X248186303Y-136821010D01*
X248579629Y-136428370D01*
X248792757Y-135915100D01*
X248793242Y-135359339D01*
X248581010Y-134845697D01*
X248188370Y-134452371D01*
X247980488Y-134366051D01*
X248186303Y-134281010D01*
X248579629Y-133888370D01*
X248792757Y-133375100D01*
X248793242Y-132819339D01*
X248581010Y-132305697D01*
X248188370Y-131912371D01*
X247980488Y-131826051D01*
X248186303Y-131741010D01*
X248579629Y-131348370D01*
X248792757Y-130835100D01*
X248793242Y-130279339D01*
X248581010Y-129765697D01*
X248188370Y-129372371D01*
X247980488Y-129286051D01*
X248186303Y-129201010D01*
X248579629Y-128808370D01*
X248792757Y-128295100D01*
X248793242Y-127739339D01*
X248581010Y-127225697D01*
X248188370Y-126832371D01*
X247980488Y-126746051D01*
X248186303Y-126661010D01*
X248579629Y-126268370D01*
X248792757Y-125755100D01*
X248793242Y-125199339D01*
X248581010Y-124685697D01*
X248188370Y-124292371D01*
X247980488Y-124206051D01*
X248186303Y-124121010D01*
X248579629Y-123728370D01*
X248792757Y-123215100D01*
X248793242Y-122659339D01*
X248581010Y-122145697D01*
X248188370Y-121752371D01*
X247980488Y-121666051D01*
X248186303Y-121581010D01*
X248579629Y-121188370D01*
X248792757Y-120675100D01*
X248793242Y-120119339D01*
X248581010Y-119605697D01*
X248188370Y-119212371D01*
X247980488Y-119126051D01*
X248186303Y-119041010D01*
X248579629Y-118648370D01*
X248792757Y-118135100D01*
X248793242Y-117579339D01*
X248581010Y-117065697D01*
X248188370Y-116672371D01*
X247675100Y-116459243D01*
X247119339Y-116458758D01*
X246605697Y-116670990D01*
X246212371Y-117063630D01*
X245999243Y-117576900D01*
X245998758Y-118132661D01*
X246210990Y-118646303D01*
X246603630Y-119039629D01*
X246811512Y-119125949D01*
X246605697Y-119210990D01*
X246396177Y-119420144D01*
X246373618Y-119386382D01*
X245237000Y-118249764D01*
X245237000Y-112763236D01*
X247312100Y-110688136D01*
X247465255Y-110718600D01*
X247834745Y-110718600D01*
X248408234Y-110604526D01*
X248894415Y-110279670D01*
X249219271Y-109793489D01*
X249226000Y-109759660D01*
X249226000Y-113792796D01*
X249226000Y-113792796D01*
G37*
X249226000Y-113792796D02*
X248994957Y-113233628D01*
X248465161Y-112702907D01*
X247772595Y-112415328D01*
X247022695Y-112414674D01*
X246329628Y-112701043D01*
X245798907Y-113230839D01*
X245511328Y-113923405D01*
X245510674Y-114673305D01*
X245797043Y-115366372D01*
X246326839Y-115897093D01*
X247019405Y-116184672D01*
X247769305Y-116185326D01*
X248462372Y-115898957D01*
X248993093Y-115369161D01*
X249226000Y-114808260D01*
X249226000Y-166930000D01*
X232663204Y-166930000D01*
X233222372Y-166698957D01*
X233753093Y-166169161D01*
X234040672Y-165476595D01*
X234041326Y-164726695D01*
X233754957Y-164033628D01*
X233225161Y-163502907D01*
X232532595Y-163215328D01*
X231782695Y-163214674D01*
X231089628Y-163501043D01*
X230558907Y-164030839D01*
X230271328Y-164723405D01*
X230270674Y-165473305D01*
X230557043Y-166166372D01*
X231086839Y-166697093D01*
X231647740Y-166930000D01*
X204723204Y-166930000D01*
X205282372Y-166698957D01*
X205813093Y-166169161D01*
X206100672Y-165476595D01*
X206101326Y-164726695D01*
X205814957Y-164033628D01*
X205285161Y-163502907D01*
X205155339Y-163449000D01*
X207645000Y-163449000D01*
X207767738Y-163424586D01*
X207892424Y-163413875D01*
X207936504Y-163391016D01*
X207985206Y-163381329D01*
X208089262Y-163311801D01*
X208200354Y-163254192D01*
X209470354Y-162238192D01*
X209502331Y-162200205D01*
X209543618Y-162172618D01*
X209613144Y-162068565D01*
X209693737Y-161972825D01*
X209708743Y-161925491D01*
X209736329Y-161884206D01*
X209760743Y-161761469D01*
X209798563Y-161642173D01*
X209794313Y-161592699D01*
X209804000Y-161544000D01*
X209804000Y-142392400D01*
X216039960Y-142392400D01*
X216039960Y-144627600D01*
X216086937Y-144869723D01*
X216226727Y-145082527D01*
X216437760Y-145224977D01*
X216687400Y-145275040D01*
X218922600Y-145275040D01*
X219164723Y-145228063D01*
X219377527Y-145088273D01*
X219519977Y-144877240D01*
X219570040Y-144627600D01*
X219570040Y-142392400D01*
X219523063Y-142150277D01*
X219383273Y-141937473D01*
X219172240Y-141795023D01*
X218922600Y-141744960D01*
X216687400Y-141744960D01*
X216445277Y-141791937D01*
X216232473Y-141931727D01*
X216090023Y-142142760D01*
X216039960Y-142392400D01*
X209804000Y-142392400D01*
X209804000Y-131178236D01*
X211188236Y-129794000D01*
X221615000Y-129794000D01*
X221955206Y-129726329D01*
X222243618Y-129533618D01*
X232016236Y-119761000D01*
X237896262Y-119761000D01*
X237871000Y-119888000D01*
X237871000Y-127266764D01*
X237121764Y-128016000D01*
X235585000Y-128016000D01*
X235244795Y-128083670D01*
X234956382Y-128276382D01*
X232416382Y-130816382D01*
X232223671Y-131104794D01*
X232156000Y-131445000D01*
X232156000Y-145681764D01*
X228606382Y-149231382D01*
X228413671Y-149519794D01*
X228346000Y-149860000D01*
X228346000Y-159131000D01*
X227330000Y-159131000D01*
X226989794Y-159198671D01*
X226701382Y-159391382D01*
X226508671Y-159679794D01*
X226441000Y-160020000D01*
X226441000Y-162471547D01*
X226270330Y-162585585D01*
X226060000Y-162900366D01*
X225849670Y-162585585D01*
X225363489Y-162260729D01*
X224790000Y-162146655D01*
X224216511Y-162260729D01*
X223730330Y-162585585D01*
X223719785Y-162601367D01*
X223714063Y-162571877D01*
X223574273Y-162359073D01*
X223363240Y-162216623D01*
X223113600Y-162166560D01*
X221386400Y-162166560D01*
X221144277Y-162213537D01*
X220931473Y-162353327D01*
X220789023Y-162564360D01*
X220738960Y-162814000D01*
X220738960Y-164236724D01*
X220599000Y-164096764D01*
X220599000Y-160020000D01*
X220531329Y-159679794D01*
X220338618Y-159391382D01*
X220050206Y-159198671D01*
X219710000Y-159131000D01*
X218694000Y-159131000D01*
X218694000Y-149593236D01*
X222878618Y-145408618D01*
X222967872Y-145275040D01*
X223071329Y-145120206D01*
X223139000Y-144780000D01*
X223139000Y-132956236D01*
X226936236Y-129159000D01*
X231775000Y-129159000D01*
X232115206Y-129091329D01*
X232403618Y-128898618D01*
X234308618Y-126993618D01*
X234416360Y-126832371D01*
X234501329Y-126705206D01*
X234569000Y-126365000D01*
X234569000Y-121666000D01*
X234501329Y-121325794D01*
X234308618Y-121037382D01*
X234020206Y-120844671D01*
X233680000Y-120777000D01*
X233339794Y-120844671D01*
X233051382Y-121037382D01*
X232858671Y-121325794D01*
X232791000Y-121666000D01*
X232791000Y-125996764D01*
X231406764Y-127381000D01*
X226568000Y-127381000D01*
X226227794Y-127448671D01*
X226009986Y-127594206D01*
X225939382Y-127641382D01*
X221621382Y-131959382D01*
X221428671Y-132247794D01*
X221361000Y-132588000D01*
X221361000Y-144411764D01*
X217176382Y-148596382D01*
X216983671Y-148884794D01*
X216916000Y-149225000D01*
X216916000Y-160020000D01*
X216983671Y-160360206D01*
X217176382Y-160648618D01*
X217464794Y-160841329D01*
X217805000Y-160909000D01*
X218821000Y-160909000D01*
X218821000Y-162941000D01*
X217093325Y-162941000D01*
X216959670Y-162740971D01*
X216473489Y-162416115D01*
X215900000Y-162302041D01*
X215326511Y-162416115D01*
X214840330Y-162740971D01*
X214830234Y-162756081D01*
X214824063Y-162724277D01*
X214684273Y-162511473D01*
X214473240Y-162369023D01*
X214223600Y-162318960D01*
X212496400Y-162318960D01*
X212254277Y-162365937D01*
X212041473Y-162505727D01*
X211899023Y-162716760D01*
X211848960Y-162966400D01*
X211848960Y-164693600D01*
X211895937Y-164935723D01*
X212035727Y-165148527D01*
X212246760Y-165290977D01*
X212496400Y-165341040D01*
X214223600Y-165341040D01*
X214465723Y-165294063D01*
X214678527Y-165154273D01*
X214820977Y-164943240D01*
X214829179Y-164902340D01*
X214840330Y-164919029D01*
X215326511Y-165243885D01*
X215900000Y-165357959D01*
X216473489Y-165243885D01*
X216959670Y-164919029D01*
X217093325Y-164719000D01*
X218871524Y-164719000D01*
X218888671Y-164805206D01*
X219068551Y-165074415D01*
X219081382Y-165093618D01*
X220351382Y-166363618D01*
X220639794Y-166556329D01*
X220980000Y-166624000D01*
X226695000Y-166624000D01*
X227035206Y-166556329D01*
X227323618Y-166363618D01*
X227958618Y-165728618D01*
X228151330Y-165440205D01*
X228198709Y-165202011D01*
X228389670Y-165074415D01*
X228714526Y-164588234D01*
X228828600Y-164014745D01*
X228828600Y-163645255D01*
X228714526Y-163071766D01*
X228389670Y-162585585D01*
X228219000Y-162471547D01*
X228219000Y-160909000D01*
X234061000Y-160909000D01*
X234061000Y-164465000D01*
X234128671Y-164805206D01*
X234308551Y-165074415D01*
X234321382Y-165093618D01*
X235591382Y-166363618D01*
X235879794Y-166556329D01*
X236220000Y-166624000D01*
X241935000Y-166624000D01*
X242275206Y-166556329D01*
X242563618Y-166363618D01*
X243198618Y-165728618D01*
X243391330Y-165440205D01*
X243438709Y-165202011D01*
X243629670Y-165074415D01*
X243954526Y-164588234D01*
X244068600Y-164014745D01*
X244068600Y-163645255D01*
X243954526Y-163071766D01*
X243629670Y-162585585D01*
X243459000Y-162471547D01*
X243459000Y-154038236D01*
X244856000Y-152641236D01*
X244856000Y-153289000D01*
X244923671Y-153629206D01*
X245008640Y-153756371D01*
X245116382Y-153917618D01*
X245999121Y-154800357D01*
X245998758Y-155216661D01*
X246210990Y-155730303D01*
X246603630Y-156123629D01*
X246811512Y-156209949D01*
X246605697Y-156294990D01*
X246212371Y-156687630D01*
X245999243Y-157200900D01*
X245998758Y-157756661D01*
X246210990Y-158270303D01*
X246603630Y-158663629D01*
X246811512Y-158749949D01*
X246605697Y-158834990D01*
X246212371Y-159227630D01*
X245999243Y-159740900D01*
X245998758Y-160296661D01*
X246210990Y-160810303D01*
X246603630Y-161203629D01*
X246811512Y-161289949D01*
X246605697Y-161374990D01*
X246212371Y-161767630D01*
X245999243Y-162280900D01*
X245998758Y-162836661D01*
X246210990Y-163350303D01*
X246603630Y-163743629D01*
X247116900Y-163956757D01*
X247672661Y-163957242D01*
X248186303Y-163745010D01*
X248579629Y-163352370D01*
X248792757Y-162839100D01*
X248793242Y-162283339D01*
X248581010Y-161769697D01*
X248188370Y-161376371D01*
X247980488Y-161290051D01*
X248186303Y-161205010D01*
X248579629Y-160812370D01*
X248792757Y-160299100D01*
X248793242Y-159743339D01*
X248581010Y-159229697D01*
X248188370Y-158836371D01*
X247980488Y-158750051D01*
X248186303Y-158665010D01*
X248579629Y-158272370D01*
X248792757Y-157759100D01*
X248793242Y-157203339D01*
X248581010Y-156689697D01*
X248188370Y-156296371D01*
X247980488Y-156210051D01*
X248186303Y-156125010D01*
X248579629Y-155732370D01*
X248792757Y-155219100D01*
X248793242Y-154663339D01*
X248581010Y-154149697D01*
X248188370Y-153756371D01*
X247980488Y-153670051D01*
X248186303Y-153585010D01*
X248579629Y-153192370D01*
X248792757Y-152679100D01*
X248793242Y-152123339D01*
X248581010Y-151609697D01*
X248188370Y-151216371D01*
X247980488Y-151130051D01*
X248186303Y-151045010D01*
X248579629Y-150652370D01*
X248792757Y-150139100D01*
X248793242Y-149583339D01*
X248581010Y-149069697D01*
X248188370Y-148676371D01*
X247980488Y-148590051D01*
X248186303Y-148505010D01*
X248579629Y-148112370D01*
X248792757Y-147599100D01*
X248793242Y-147043339D01*
X248581010Y-146529697D01*
X248188370Y-146136371D01*
X247980488Y-146050051D01*
X248186303Y-145965010D01*
X248579629Y-145572370D01*
X248792757Y-145059100D01*
X248793242Y-144503339D01*
X248581010Y-143989697D01*
X248188370Y-143596371D01*
X247675100Y-143383243D01*
X247119339Y-143382758D01*
X246634000Y-143583295D01*
X246634000Y-141912240D01*
X247116900Y-142112757D01*
X247672661Y-142113242D01*
X248186303Y-141901010D01*
X248579629Y-141508370D01*
X248792757Y-140995100D01*
X248793242Y-140439339D01*
X248581010Y-139925697D01*
X248188370Y-139532371D01*
X247980488Y-139446051D01*
X248186303Y-139361010D01*
X248579629Y-138968370D01*
X248792757Y-138455100D01*
X248793242Y-137899339D01*
X248581010Y-137385697D01*
X248188370Y-136992371D01*
X247980488Y-136906051D01*
X248186303Y-136821010D01*
X248579629Y-136428370D01*
X248792757Y-135915100D01*
X248793242Y-135359339D01*
X248581010Y-134845697D01*
X248188370Y-134452371D01*
X247980488Y-134366051D01*
X248186303Y-134281010D01*
X248579629Y-133888370D01*
X248792757Y-133375100D01*
X248793242Y-132819339D01*
X248581010Y-132305697D01*
X248188370Y-131912371D01*
X247980488Y-131826051D01*
X248186303Y-131741010D01*
X248579629Y-131348370D01*
X248792757Y-130835100D01*
X248793242Y-130279339D01*
X248581010Y-129765697D01*
X248188370Y-129372371D01*
X247980488Y-129286051D01*
X248186303Y-129201010D01*
X248579629Y-128808370D01*
X248792757Y-128295100D01*
X248793242Y-127739339D01*
X248581010Y-127225697D01*
X248188370Y-126832371D01*
X247980488Y-126746051D01*
X248186303Y-126661010D01*
X248579629Y-126268370D01*
X248792757Y-125755100D01*
X248793242Y-125199339D01*
X248581010Y-124685697D01*
X248188370Y-124292371D01*
X247980488Y-124206051D01*
X248186303Y-124121010D01*
X248579629Y-123728370D01*
X248792757Y-123215100D01*
X248793242Y-122659339D01*
X248581010Y-122145697D01*
X248188370Y-121752371D01*
X247980488Y-121666051D01*
X248186303Y-121581010D01*
X248579629Y-121188370D01*
X248792757Y-120675100D01*
X248793242Y-120119339D01*
X248581010Y-119605697D01*
X248188370Y-119212371D01*
X247980488Y-119126051D01*
X248186303Y-119041010D01*
X248579629Y-118648370D01*
X248792757Y-118135100D01*
X248793242Y-117579339D01*
X248581010Y-117065697D01*
X248188370Y-116672371D01*
X247675100Y-116459243D01*
X247119339Y-116458758D01*
X246605697Y-116670990D01*
X246212371Y-117063630D01*
X245999243Y-117576900D01*
X245998758Y-118132661D01*
X246210990Y-118646303D01*
X246603630Y-119039629D01*
X246811512Y-119125949D01*
X246605697Y-119210990D01*
X246396177Y-119420144D01*
X246373618Y-119386382D01*
X245237000Y-118249764D01*
X245237000Y-112763236D01*
X247312100Y-110688136D01*
X247465255Y-110718600D01*
X247834745Y-110718600D01*
X248408234Y-110604526D01*
X248894415Y-110279670D01*
X249219271Y-109793489D01*
X249226000Y-109759660D01*
X249226000Y-113792796D01*
M02*
